<?xml version="1.0" encoding="utf-8"?>
<!-- Generator: Adobe Illustrator 22.0.1, SVG Export Plug-In . SVG Version: 6.00 Build 0)  -->
<svg version="1.1" id="Layer_1" xmlns="http://www.w3.org/2000/svg" xmlns:xlink="http://www.w3.org/1999/xlink" x="0px" y="0px"
	 viewBox="0 0 65 65" style="enable-background:new 0 0 65 65;" xml:space="preserve">
<style type="text/css">
	.st0{fill:#FFE399;}
	.st1{fill:#5D545E;}
	.st2{fill:#E59526;}
	.st3{fill:#757776;}
	.st4{fill:#AD3030;}
	.st5{fill:#E18818;}
	.st6{fill:#FFA72B;}
	.st7{fill:none;}
	.st8{fill:#FFD3AB;}
	.st9{fill:#D99F71;}
	.st10{fill:#B76F38;}
	.st11{fill:#FFFFFF;}
	.st12{fill:#60AFCA;}
	.st13{fill:#D98C54;}
	.st14{fill:#FFEAD4;}
	.st15{fill:#573C16;}
	.st16{fill:#FFC64C;}
	.st17{fill:#502E20;}
	.st18{fill:#806942;}
</style>
<circle class="st0" cx="32.4" cy="32.5" r="27.6"/>
<path class="st1" d="M27.8,60.5c-1.7-0.3-3.4-1-4.9-1.9c0,0,0.3-2,0.3-2.3s0-4.6-0.4-5.1S20.4,45,20.1,45s-0.4,0.6-0.7,1.9
	c-0.3,1.3-0.7,2.5-1.2,3.6c-0.3,0.3-0.5,0.5-0.9,0.6s-0.7,1.4-1.3,1.3s-1.9,1.3-2.1,1.4s-1.6-1.3-2.8-1.5S10,53.4,9,53.8
	c-0.6,0.2-1.8,0.7-2.6,1.1v2c0.8-0.3,1.8-0.7,2.2-0.8c1.4-0.2,2.8-0.3,4.2-0.2c1.1,0.1,2.2,0.3,3.2,0.8c0.9,0.5,1.6,2.6,0.9,4.4
	c-0.1,0.3-0.3,0.5-0.5,0.8h16.8v-0.7C33.1,61.1,30.2,60.9,27.8,60.5z"/>
<path class="st2" d="M12,60.4c-0.9,0.6-1.9,1.1-3,1.3h7.2c0.7-0.9,1-1.8,0.8-2.8c-0.4-2.5-1.9-2.9-5.3-3.1
	C13.5,56.5,14.8,58.2,12,60.4z"/>
<path class="st1" d="M45.2,61.8c0-0.7,0-1.5,0-2.2c0.3-2.1,0.9-4.2,1.7-6.2l1.2-2.8L48,50.5c-0.6-1.2-1-2.4-1.2-3.6
	c-0.3-1.2-0.3-1.9-0.7-1.9s-2.4,5.8-2.8,6.2S43,56.1,43,56.4c0.1,0.2,0.3,2.3,0.3,2.3c-1.5,0.9-3.2,1.5-4.9,1.9
	C35.9,61,33,61.2,33,61.2v0.7h12.2V61.8z"/>
<path class="st3" d="M43.9,61.8l-0.5-3.1c-3.4,1.6-7.1,2.4-10.8,2.3c-3.3-0.1-6.6-0.9-9.7-2.3l-0.5,3.1H43.9z"/>
<path class="st4" d="M49.9,61.8c-0.2-0.2-0.4-0.5-0.5-0.8c-0.4-1-0.4-2.2,0-3.3c0.4-0.9,1-1.7,1.9-2.3c0.5-0.5,0.9-1,1.3-1.5
	c-0.1,0-0.1,0-0.1,0c-0.2-0.1-1.6-1.5-2.1-1.4s-0.9-1.2-1.3-1.3c-0.3-0.1-0.5-0.3-0.8-0.5L47,53.4c-0.8,2-1.4,4.1-1.8,6.2
	c-0.1,0.7-0.1,1.5,0,2.2C45.2,61.8,49.9,61.8,49.9,61.8z"/>
<path class="st1" d="M59.8,54.8c-0.8-0.4-2-0.9-2.6-1c-1-0.3-0.9-1.6-2.1-1.4s-2.2,1.3-2.6,1.5c-0.4,0.5-0.8,1.1-1.3,1.5
	c-0.8,0.6-1.4,1.4-1.8,2.3c0.2-0.5,0.5-0.8,0.9-1.1c1-0.4,2.1-0.7,3.2-0.8c1.4-0.1,2.8,0,4.2,0.2c0.3,0.1,1.3,0.5,2.1,0.8
	C59.8,56.8,59.8,54.8,59.8,54.8z"/>
<path class="st5" d="M57.2,61.8c-1.1-0.3-2.1-0.7-3-1.3c-2.9-2.2-1.5-4,0.3-4.6c-3.4,0.2-4.9,0.6-5.3,3.1c-0.2,1,0.2,1.9,0.8,2.8
	H57.2z"/>
<path class="st6" d="M59.8,57c-1.6-0.8-3.5-1.2-5.3-1.1c-1.8,0.6-3.2,2.3-0.3,4.6c0.9,0.6,1.9,1.1,3,1.3h2.6V57z"/>
<title>ESPN_AVG_Thor</title>
<path class="st7" d="M49.4,61c0.3,0.6,0.8,1.1,1.3,1.5c-0.7-0.6-1.1-1.4-1.4-2.2c-0.3-0.8-0.3-1.7,0-2.6C49,58.8,49,60,49.4,61z"/>
<path class="st8" d="M19,22.9c0,0-2.5,0.7-3.2,0.9c-0.9,0.4-1.4,1.3-1.2,2.2c0.5,1.3,0.8,2.6,1.2,4c0,0.3,0.3,2.2,0.3,2.2
	c0.3,0.8,0.6,1.5,1,2.2c0.2,0.2,1.2,1.2,1.2,1.2s4.4,12.1,4.7,12.7c0.2,1.2,0.2,2.4,0.1,3.6L23,55.6l-0.2,3c2.6,1.3,5.5,2.1,8.4,2.4
	c4.2,0.2,11.4-1.8,12-2.2s-0.5-3.9,0.1-7.1s2.2-8.2,2.9-10.4s1.2-5.4,1.2-5.4c0.7-0.2,1.2-0.7,1.4-1.4c0.3-0.7,0.6-1.3,1.1-1.9
	c0.5-0.7,0.7-5.1,1.1-6.2c0.2-1,0-2-0.4-2.8L48.8,23c0,0-2.3-5-7.2-6.6s-10.9-2.3-14-1.1S19,22.9,19,22.9z"/>
<path class="st9" d="M33.7,43.2c0.5-0.2,0.9-0.5,1.1-1c0.2-0.8-0.3-1.4-0.2-2.3c-0.1-1.3-0.2-2.6-0.4-3.9c0,0,0.6-2.3,0.7-2.8
	c0.1-0.4,0-0.8-0.1-1.2c0,0,0.6-1.9,0.7-2.1c0.4-0.5,1-0.9,1.6-1.1c0.7-0.3,3.4-0.6,4.3-1s0.9-2.4,0.6-3.9s-4-2.1-5.7-1.9
	c-0.7,0.1-1.4,0.2-2.1,0.4c0,0,2.7-2.4,4.5-2.7s4.9-0.1,5.7,0.6c1,1.1,2,2.2,2.9,3.5c0.8,1,1.4,0.3,2.3,0.1s1,0.1,1.3,0.6
	s0.7,0.4,0.4,1.3c-0.3,1.4-0.5,2.7-0.5,4.1c-0.1,1-0.4,2.1-0.8,3c-0.4,0.9-1,1.8-1.7,2.5c-0.5,0.6-1,5.3-1,5.3s-3.4,6-4.2,7
	s-0.8,2.1-3.5,3.7s-3.3,1.9-3.6,1.5s-1.7-1.7-1.9-2.3s0-1.3-0.4-1.4c-0.6-0.1-1.1-0.1-1.7-0.3c-0.4-0.2-1.1-0.2-1.5-0.5s-1-0.6-1-1
	s4.8-1,4.8-1.3C34.2,45.1,34,44.1,33.7,43.2z"/>
<path class="st10" d="M37,32.3c-0.1,0.4-0.3,0.8-0.6,1.1s-0.5,0.6-0.5,1c0.1,0.5,0.3,1,0.7,1.4c0.8,0.6,1.8,0.9,2.8,1
	c0.9,0,1,0.1,1.3-0.1c0.5-0.2,0.9-0.5,1.3-0.8c0.2-0.2,1-0.2,1.4,0s0.7,1.2,0.7,2.2c-0.1,1.1-0.3,2.1-0.7,3.1
	c-0.1,0.2-0.3,2.1-0.5,2.5c-0.1,0.4-0.3,0.9-0.6,1.2c-0.4,0.3-0.9,0.5-1.4,0.5s-0.3,0.8,0,1s1.7,0.8,1.7,0.9s1.1-0.9,2.6-3.9
	c0.9-1.7,1.5-3.5,1.9-5.3c0,0-0.1-2,0.4-2.2c0.4-0.3,0.8-0.6,1.1-1c0,0,0.3,0.3,0.1-0.8S48.2,31,48.2,31c0.3-1,0.8-1.9,1.4-2.8
	c0.5-0.4,0.8-0.9,1-1.5c0-0.3,0.3-0.9-0.2-0.3s-1.1,1.2-1.7,1.8c-0.7,0.5-0.9,0.3-0.9,0.3l-0.4-3.1l-1.9-2.8
	c-0.5-0.7-0.8-1.1-0.8-0.8c0.2,0.9,0.4,1.7,0.5,2.6c0,0.3-0.2,1.6-0.2,1.6c-0.2,0.8-0.5,1.7-0.9,2.5c-0.6,0.8-1.3,1.5-2.1,2.1
	C41.5,30.9,37,32.3,37,32.3z"/>
<path class="st11" d="M37.6,32.6l-0.5,1C38,34,39,34.3,40,34.3c0.9,0,1.7-0.5,2.1-1.2c0-0.1-0.8-0.4-1-0.4s-2.9,0.2-2.9,0.2
	L37.6,32.6z"/>
<path class="st12" d="M38.7,33c0.3,0.4,0.8,0.6,1.2,0.6c0.4-0.1,0.8-0.4,0.9-0.8l-1.1-0.1C39.8,32.7,38.6,32.8,38.7,33z"/>
<path class="st13" d="M24.6,31.4l0.6,0.3c0.7,0,1.3,0.2,1.9,0.4c0.4,0.2,2.9,0.7,3.3,0.9c0.4,0.4,0.5,0.9,0.5,1.4
	c-0.1,0.3-0.2,1.1-0.8,1.3c-0.7,0.4-1.5,0.8-2.3,1.1c-0.5,0-1,0.1-1.5,0.1c0.9,0.1,1.8,0.1,2.7,0c1.3-0.2,1.7-0.3,1.9,0
	s0.2,0.6,0.3,0.7s0.1-0.8,0.4-0.8s0.6,0.5,0.5,0.6c0.1-0.5,0.2-1,0.2-1.5c-0.2-0.8-0.4-1.7-0.6-2.5c0.1-0.4,0.2-0.9,0.2-1.3
	c0-0.2-0.6-0.7-0.8-0.6c-0.5,0.2-0.9,0.3-1.4,0.3c-0.3-0.1-2.4-0.8-3.1-0.8S24.7,31.2,24.6,31.4z"/>
<path class="st14" d="M24.4,46.5c0-0.1-0.5-3.2-0.8-4.2s-1.6-2.8-1.8-4.5c-0.3-2-0.3-4-0.1-6.1c0.2-1.3,0.3-2.5,0.1-3.8
	c0-1.1,0-2.1,0.1-3.2c0,0,0.1-2.2,3.1-3.2s4.1-1.4,2.7-1.5s-5.6-0.2-6.4,0.9c-0.9,1.5-1.6,3.1-2,4.8c-0.5,1.7-0.4,6-0.4,6.9
	s1,7.9,1.5,8.8s2.6,4.2,2.6,4.2s0.7,1.9,1,1.8S24.4,46.5,24.4,46.5z"/>
<path class="st10" d="M30.4,47.2c0,0,1.2,0.3,1.4,0.4s0.6,0.5,0.7,0.7s-0.3,0.5-0.3,0.6c0.8,0.1,1.5,0.1,2.3,0
	c0.5-0.2,1-0.3,1.6-0.3s1.2,0.2,1.8,0.6c0.5,0.5,1.2,1.4,1.5,1.6s2.1,1,1.5-0.8s-1.2-3.3-2.1-3.3s-1.6,0.8-1.8,0.8
	c-0.2-0.1-0.4-0.1-0.6-0.1c-0.4,0.1-1.4,0.3-1.7,0.3S31.2,47.7,30.4,47.2z"/>
<path class="st10" d="M34.6,33.9c0,0,0.2,1.8,0.4,2.5s0.5,1.3,1,1.7c0.4,0.5,0.7,1.2,0.8,1.9c0.1,0.5-0.2,0.7-0.4,0.5
	c-0.3-0.2-0.6-0.3-0.9-0.2c-0.4,0.2-0.8,1.1-0.8,1c0-1,0-1.9-0.2-2.9c-0.3-1-0.4-1.9-0.5-2.9L34.6,33.9z"/>
<path class="st15" d="M31.9,33.5c0.2,0.7,0.4,1.3,0.6,2l0.1,0.2c0,0.1,0,0.2,0,0.3c0,0.2,0,0.3-0.1,0.5l-0.2,1
	c-0.1,0.7-0.2,1.3-0.2,2s-0.1,1.4-0.3,2c0.1-0.7,0.1-1.3,0.1-2s0-1.3,0.2-2l0.2-1c0-0.2,0.1-0.3,0.1-0.5c0-0.1,0-0.1,0-0.2v-0.2
	C32.1,34.9,32,34.2,31.9,33.5z"/>
<path class="st15" d="M34.7,33.5c-0.1,0.7-0.2,1.3-0.4,2v0.2c0,0.1,0,0.1,0,0.2c0,0.2,0,0.3,0.1,0.5l0.2,1c0.1,0.7,0.2,1.3,0.2,2
	s0,1.3,0.1,2c-0.2-0.6-0.3-1.3-0.3-2s-0.1-1.3-0.2-2l-0.2-1C34.1,36.3,34,36.2,34,36c0-0.1,0-0.2,0-0.3l0.1-0.2
	C34.3,34.8,34.5,34.2,34.7,33.5z"/>
<path class="st15" d="M31.4,40.4C31.3,40.1,31,40,30.7,40c-0.2,0-0.4,0.3-0.6,0.6c-0.2,0.2-0.3,0.5-0.4,0.8s0,0.6,0.1,0.5
	c0.3,0,0.6,0,0.9,0.1c0.4,0.1,0.7,0.2,1,0.4c0.2,0.2,0.4,0.4,0.7,0.5s0.5,0.1,0.8,0.1s0.5,0,0.8-0.1c0.3-0.2,0.5-0.3,0.7-0.5
	c0.3-0.2,0.6-0.4,1-0.4c0.3-0.1,0.7-0.1,1-0.1c0.1,0.1,0.2-0.3,0.1-0.5c-0.1-0.3-0.2-0.5-0.4-0.8C36.2,40.3,36,40,35.8,40
	c-0.3,0-0.6,0.2-0.7,0.4c0.1-0.3,0.4-0.5,0.7-0.6c0.2,0,0.4,0.1,0.5,0.2c0.1,0.1,0.2,0.2,0.3,0.3c0.2,0.2,0.4,0.5,0.5,0.8
	c0.1,0.2,0.1,0.4,0.1,0.5s0,0.2-0.1,0.3s-0.2,0.2-0.3,0.2c-0.7,0.1-1.2,0.1-1.7,0.5c-0.2,0.2-0.5,0.4-0.8,0.6
	c-0.3,0.2-0.7,0.2-1.1,0.2c-0.3,0-0.7-0.1-1-0.2c-0.3-0.1-0.6-0.3-0.8-0.6c-0.4-0.4-1-0.4-1.6-0.5c-0.1,0-0.3-0.1-0.3-0.2
	c-0.1-0.1-0.1-0.2-0.1-0.3c0-0.2,0-0.4,0.1-0.5c0.1-0.3,0.3-0.6,0.5-0.8c0.1-0.1,0.2-0.2,0.4-0.3c0.1-0.1,0.3-0.2,0.5-0.2
	C31.1,39.9,31.3,40.1,31.4,40.4z"/>
<path class="st15" d="M28,43c0.4-0.4,0.7-0.9,1-1.3c0.3-0.5,0.6-1,1-1.5c0.2-0.2-0.2,0.7-0.2,0.7S28.9,42.7,28,43z"/>
<path class="st15" d="M40,32.5c1.1-0.1,1.2-0.2,2,0c0.5,0.2,1,0.5,1.5,0.8c0,0-0.4,0-0.6,0c-0.2,0-0.4,0-0.6,0
	c-0.1,0-0.2,0.2-0.4,0.4c-0.2,0.1-0.4,0.3-0.6,0.4l-0.6,0.2c-0.2,0.1-0.5,0.1-0.7,0.1h-0.7l-1-0.2c-0.4-0.1-1.2-0.3-1.4-0.2
	c-0.3,0.2-0.5,0.4-0.8,0.7c0.1-0.3,0.3-0.6,0.5-0.9c0.3-0.3,0.5-0.6,0.7-0.9c0.1-0.1,0.2-0.2,0.3-0.2L40,32.5z M37.8,32.9
	c-0.1,0.2-0.2,0.3-0.3,0.5c0.7,0.5,1.5,0.7,2.3,0.6c0.8,0,1.6-0.4,2-1.1c-0.3-0.1-0.5-0.1-0.8-0.2c-0.1,0-0.2,1-1.2,1
	c-0.6,0-1.1-0.3-1.2-0.9L37.8,32.9z M39,32.9c0.1,0.3,0.4,0.6,0.8,0.6c0.4,0,0.7-0.3,0.8-0.7h-0.3c0,0.2-0.2,0.3-0.4,0.4
	c-0.3,0.1-0.5-0.3-0.5-0.3H39z"/>
<path class="st15" d="M36,32c0,0,0.8,0.8,1.2,0.8c1.5-0.1,2.9-0.3,4.4-0.7c0.6-0.2,1.3-0.4,1.9-0.5c0.4,0.1,0.7,0.3,1,0.6
	c0.2,0.3-0.1-0.8-1-1.5c-0.6-0.4-1.3-0.4-1.9-0.1c-0.5,0.2-4.5,1.4-4.7,1.4c-0.3-0.1-0.6-0.2-0.9-0.4C36,31.6,35.9,32,36,32z"/>
<path class="st15" d="M45.5,32.7c0.2,0.9,0.4,1.7,0.4,2.6c0.1,0.9-0.1,1.8-0.5,2.7c-0.4,0.8-0.8,1.5-1.4,2.2
	c-0.2,0.4-0.4,0.7-0.6,1.1c-0.2,0.4-0.3,0.8-0.5,1.2c0.1-0.9,0.4-1.7,0.9-2.5c0.5-0.7,1-1.4,1.3-2.2c0.4-0.8,0.5-1.6,0.5-2.5
	C45.6,34.4,45.6,33.5,45.5,32.7z"/>
<path class="st15" d="M37.6,41.9c0,0-0.9-1.4-1-1.4s0.1,0.5,0.2,0.6C37,41.4,37.3,41.6,37.6,41.9z"/>
<path class="st15" d="M34.7,32l0.8-2.2C35.4,30.6,35.2,31.4,34.7,32z"/>
<path class="st15" d="M47.3,33c0.1-0.1,0.9-0.8,1.3-1c0.6-0.5,0.9-1.3,0.7-2c-0.4-0.8-0.2-1.7,0.4-2.4c0.7-0.6,1.2-1.4,1.6-2.2
	c0-0.2-0.1-0.4-0.3-0.6c-0.2,0.7-0.7,1.4-1.3,1.8c-0.9,0.8-1.6,1.8-2,2.9C47.7,29.8,47.3,33,47.3,33z"/>
<path class="st15" d="M18.9,33c-0.4-0.4-0.9-0.7-1.3-1c-0.6-0.5-0.9-1.3-0.7-2c0.4-0.8,0.2-1.7-0.4-2.4c-0.7-0.6-1.2-1.4-1.6-2.2
	c0-0.2,0.1-0.4,0.3-0.6c0.2,0.7,0.7,1.4,1.3,1.8c0.9,0.8,1.6,1.8,2,2.9C18.5,29.8,18.9,33,18.9,33z"/>
<path class="st15" d="M45.4,30.7c-0.1-0.5-0.2-1-0.3-1.4c0-0.3-0.1-0.5-0.1-0.8c-0.1-0.2-0.1-0.5-0.1-0.8c0-1,0.2-2,0.4-2.9
	l-0.1,1.5c0,0.5-0.1,1-0.1,1.5c0,0.2,0,0.5,0.1,0.7s0.1,0.5,0.2,0.7C45.4,29.7,45.4,30.2,45.4,30.7z"/>
<path class="st15" d="M21.3,30.7c0.1-0.5,0.2-1,0.3-1.4c0.1-0.2,0.1-0.5,0.2-0.7s0.1-0.5,0.1-0.8c0-1-0.2-2-0.4-2.9l0.1,1.5
	c0,0.5,0.1,1,0.1,1.5c0,0.2,0,0.5-0.1,0.7s-0.1,0.5-0.2,0.7C21.3,29.7,21.3,30.2,21.3,30.7z"/>
<path class="st15" d="M36.8,34.5c0.2-0.1,0.4-0.2,0.6-0.1l0.6,0.1l1.2,0.3c0.4,0.1,0.8,0.1,1.2,0c0.4,0,0.8-0.1,1.2-0.3
	c-0.3,0.2-0.7,0.3-1.1,0.4c-0.4,0.1-0.8,0.1-1.2,0l-1.1-0.3C37.5,34.5,37.2,34.2,36.8,34.5z"/>
<path class="st15" d="M36.3,33.5c0,0,0.4-0.7,0.5-1s0.3,0,0.3,0L36.3,33.5z"/>
<path class="st15" d="M36.1,33.8L36,34c0,0,0.1,0.1,0.3-0.1S36.1,33.8,36.1,33.8z"/>
<path class="st15" d="M43.2,32.8c-0.4-0.3-0.8-0.6-1.2-0.8c-0.3-0.1-0.6-0.2-0.9-0.3h0.8C41.8,31.7,42.6,31.5,43.2,32.8z"/>
<path class="st15" d="M24.8,31.5c0.4-0.1,0.8-0.2,1.2-0.2h0.3c1.3,0.2,2.5,0.6,3.7,1.1c0.4-0.2,0.8-0.5,1.1-0.8c0.1,0,0-0.4,0-0.4
	c-0.3,0.2-0.7,0.3-1,0.4c-0.2,0-4.5-1.4-5-1.6s-1.1-0.7-2,0.1s-1.3,2-1,1.7s0.6-0.5,1-0.7C23.7,31.1,24.2,31.3,24.8,31.5z"/>
<path class="st15" d="M26.2,31.6H26c-0.8,0-1.5,0.2-2.1,0.7c-0.7,0.5-1.1,1.3-1.3,2.2c-0.1,0.7,1.6,2.4,3.7,2.6c0.2,0,0.5,0,0.7,0
	c1.1,0,2.2-0.3,3.1-1c0.6-0.6,1-1.4,1-2.2c0-0.5-0.2-0.9-0.7-1.1C29.1,32.3,27.7,31.9,26.2,31.6z"/>
<path class="st15" d="M20.8,36.9c0.1,0.5,0.1,1.1,0.2,1.6s0.2,1,0.5,1.5s0.5,0.9,0.8,1.4s0.4,1,0.5,1.6c-0.2-0.5-0.4-1-0.7-1.4
	c-0.3-0.4-0.6-0.9-0.9-1.4s-0.4-1.1-0.4-1.6C20.7,38,20.7,37.4,20.8,36.9z"/>
<path class="st15" d="M31,32.8c0.3,0.4,0.6,0.8,0.8,1.3c0.2,0.5,0.4,1.4,0.4,1.4l0.3,0.4c-0.2-0.8-0.4-1.7-0.6-2.5
	c0-0.5,0-1.5,0-1.5l-0.3,1.3L31,32.8z"/>
<path class="st15" d="M38.7,34.1c0.1,0.1,0.3,0.2,0.4,0.3c0.3,0,0.5,0.1,0.8,0.1h0.6v-0.1h0.3v-0.1h0.4H41h0.4l-0.1-0.1h0.4L41.5,34
	h0.3l-0.1-0.2H42l-0.1-0.1h0.3L42,33.5h0.3l-0.2-0.2c0,0-0.5,0.4-0.7,0.5c-0.5,0.2-1,0.4-1.6,0.4L38.7,34.1z"/>
<path class="st15" d="M35,39.3l0.6,0.3C35.6,39.6,35,39.8,35,39.3z"/>
<path class="st15" d="M31.3,39.9l0.4-0.7C31.7,39.2,31.8,39.9,31.3,39.9z"/>
<path class="st15" d="M29.9,29.3c0.6,0,1.2,0,1.8,0c0.6,0,1.2,0.1,1.8,0s1.2-0.2,1.7-0.3s1.2-0.2,1.8-0.3c-0.6,0.2-1.2,0.3-1.7,0.4
	s-1.2,0.3-1.8,0.4C32.2,29.6,31.1,29.5,29.9,29.3z"/>
<path class="st15" d="M31.4,28.3c0.6-0.1,1.2-0.1,1.8-0.1s1.2,0,1.8,0c-0.6,0.1-1.2,0.1-1.8,0.1S32,28.3,31.4,28.3z"/>
<path class="st15" d="M36.8,40c-0.2-0.4-0.4-0.8-0.5-1.2c-0.2-0.3-0.5-0.7-0.8-1c-0.1-0.2-0.3-0.4-0.4-0.5c-0.1-0.2-0.2-0.4-0.2-0.7
	c0-0.4,0-0.9,0-1.3l0.2,1.3c0,0.2,0.1,0.4,0.2,0.6c0.1,0.2,0.2,0.3,0.4,0.5c0.3,0.3,0.6,0.7,0.8,1C36.6,39.1,36.7,39.6,36.8,40z"/>
<path class="st15" d="M30.9,39.6c-0.1-0.3-0.1-0.6-0.1-0.9c0-0.2,0-0.3,0.1-0.5c0.1-0.1,0.1-0.3,0.2-0.4c0.2-0.6,0.4-1.2,0.6-1.7
	c-0.1,0.6-0.3,1.2-0.5,1.8c-0.1,0.1-0.1,0.3-0.2,0.4c0,0.1,0,0.2,0,0.4C30.9,39,30.9,39.3,30.9,39.6z"/>
<path class="st15" d="M43.5,34L43,35.1C43.4,34.9,43.6,34.4,43.5,34z"/>
<path class="st15" d="M37.7,47.5c-0.3-0.1-0.6-0.2-0.8-0.3c-0.1,0-0.3,0-0.4,0h-0.1c-0.4,0-0.7,0.1-1.1,0.1
	c-0.7,0.1-1.4,0.1-2.1,0.1c-0.7,0.1-1.4,0-2.1-0.2c-0.2,0-0.4-0.1-0.6-0.1c-0.5-0.1-1-0.1-1.4,0c-0.6,0.2-0.5,0.4-0.4,0.5
	c0.1,0,0.2,0,0.3,0c0.7-0.3,1.4-0.3,2,0c0.7,0.2,1.4,0.4,2.2,0.3c0.7,0,1.4-0.1,2.2-0.2c0.4-0.1,0.7-0.2,1-0.2c0.2,0,0.3,0,0.4,0.1
	c0.2,0.1,0.5,0.2,0.7,0.3C37.8,47.7,37.9,47.6,37.7,47.5z"/>
<path class="st15" d="M29.6,47.6c0.4,0.5,1,0.8,1.6,1c0.6,0.1,1.3,0.2,1.9,0.2c0.6,0,1.3,0,1.9-0.2c0.6-0.2,1.2-0.5,1.7-0.9
	c-0.2,0.2-0.4,0.5-0.7,0.7s-0.6,0.4-0.9,0.5c-0.6,0.2-1.3,0.3-2,0.3s-1.4-0.1-2-0.4C30.5,48.7,29.9,48.2,29.6,47.6z"/>
<path class="st16" d="M27.7,35.7l-3.2-3.1C24,33,23.6,33.4,23.3,34l1-0.7l2,1.9v0.4h0.5l0.4,0.2L27.7,35.7z"/>
<path class="st16" d="M30.3,35.4c-0.1-0.8-0.4-1.6-0.9-2.2l0.1-0.2c0,0,0.7,0.5,1,2.1L30.3,35.4z"/>
<polygon class="st16" points="23.2,34.2 24.1,35.2 24.1,35.6 23.1,34.6 "/>
<polygon class="st16" points="24.9,32.3 25.4,32.8 25.6,32.7 25.2,32.2 "/>
<path class="st17" d="M31.4,34.5c-0.1,0.1-0.1,0.3-0.2,0.4c0,0.1,0.3,0.1,0.3,0.1l0.1-0.3L31.4,34.5z"/>
<g>
	<path class="st15" d="M39.3,48.2C39.3,48.2,39.3,48.2,39.3,48.2C39.3,48.2,39.3,48.2,39.3,48.2z"/>
	<path class="st15" d="M51.2,23.7c-0.3-0.3-0.6-0.4-1-0.5c-0.1,0-0.2,0-0.4,0c0-0.1-0.1-0.2-0.1-0.3c0.2,0,0.2,0,0.2,0
		s-0.2-2.8-0.5-3.9c-0.3-1.1,0.3-2.8-0.5-4.9c-0.8-1.7-2-3.3-3.4-4.6l0.9,0.4c-0.5-0.9-1.3-1.7-2.2-2.3c-1.6-0.8-3.3-1.5-5.1-1.9
		l0.5-0.3c-1-0.2-1.9-0.5-2.8-1c-1.9-0.7-3.9-1-5.9-0.8c-2,0.4-4,0.9-5.9,1.5l1,0.2c-0.9,0.3-1.9,0.7-2.8,1.1
		c-1.8,1-3.4,2.3-4.7,3.8l0.7-0.1c-1,1.3-1.8,2.7-2.4,4.2l0.8-0.5c-0.2,0.7-0.5,1.5-0.8,2.2s-0.5,1.5-0.4,2.3v0.3
		c-0.1,2.4-0.2,3.9-0.2,4.9H16c-0.1,0-0.2,0-0.3,0c-1,0.1-1.7,1-1.6,2c0.3,1.3,0.7,2.6,1.1,3.9c0.1,0.5,0.2,1,0.1,1.6
		c0,0.5,0,0.9,0.1,1.4c0.1,0.6,0.5,1.2,0.9,1.7c0.2,0.9,0.8,1.7,1.7,2c0,0.4,0.1,0.9,0.1,1.1c0,0.6,0.1,1.2,0.2,1.8c0,0,0,0.3,0,0.5
		c0,0.3,0,0.6,0.1,0.8c0.1,0.2,0.2,0.5,0.2,0.7c0,0.6,0.2,1.2,0.4,1.7c0,0.1,0,0.2,0.1,0.3c0,0.3,0.1,0.6,0.3,0.9
		c0,0.1,0.1,0.2,0.1,0.3v0.1l0.1,0.1l0.3,0.5l0.2,0.4c0.1,0.4,0.2,0.9,0.3,1.3c0.1,0.2,0.1,0.5,0.2,0.8c0.1,0.7,0.4,1.3,0.7,1.9
		c0.2,0.4,0.4,0.8,0.5,1.3v0.1v0.1l1.8,3.4v0.1c0.6,0.9,1.5,1.7,2.4,2.4c0.8,0.5,1.6,0.9,2.5,1.3c0.1,0,0.9,0.3,1.4,0.4l0.7,0.2h0.1
		H31c0.2,0,0.4,0,0.6,0.1c0.3,0.1,0.7,0.2,1,0.3h0.1h0.4h0.1h0.5h0.1c0.3,0,0.7-0.1,1-0.3c0.2-0.1,0.4-0.1,0.6-0.1h0.1h0.1l0.7-0.2
		c0.5-0.2,1-0.4,1.5-0.7c0.8-0.2,1.6-0.6,2.3-1c0.9-0.6,1.7-1.4,2.3-2.3c0.4-0.4,0.8-1,1-1.5c0.2-0.6,0.9-2.1,0.9-2.1v-0.1
		c0.1-0.4,0.3-0.9,0.5-1.3c0.3-0.6,0.5-1.3,0.7-1.9c0.1-0.3,0.2-0.5,0.2-0.8c0.1-0.4,0.2-0.8,0.3-1.3l0.2-0.4l0.2-0.1v-0.1l0.1-0.4
		c0.1-0.1,0.2-0.3,0.3-0.4c0.2-0.3,0.2-0.6,0.3-0.9c0-0.1,0-0.2,0.1-0.3c0.3-0.5,0.4-1.1,0.4-1.7c0.1-0.2,0.2-0.5,0.2-0.7
		c0.1-0.3,0.1-0.6,0.1-0.8c0-0.2,0-0.5,0.1-0.5c0.1-0.6,0.2-1.1,0.2-1.7c0-0.2,0-0.8,0.1-1.2c0.9-0.5,1.5-1.4,1.7-2.4
		c0-0.1,0-0.1,0.2-0.3c0.5-0.7,0.8-1.5,0.8-2.4c0.1-0.7,0.1-1.4,0.1-1.9c-0.1-0.9,0.1-1.8,0.5-2.6C52.2,25.7,52,24.5,51.2,23.7z
		 M46.8,32.5c0,0.9,0.2,3.2,0.3,3.2c-0.1,1.1-0.4,2.1-0.9,3.1c-0.6,1.1-1.3,2.1-2.1,3.1c-0.4,0.7-0.7,1.5-1,2.2c0-0.2,0-0.5,0-0.7
		l-0.8,3.1c-0.8-0.4-1.4-0.8-2.1-1.3c-0.8-0.7-1.8-1.1-2.8-1.3l-0.8-0.1c-0.4-0.1-0.9,0-1.3,0.1l-0.7,0.2h-2.1l-0.9-0.2
		c-0.4-0.1-0.8-0.1-1.2,0c-0.3,0-0.6,0.1-0.9,0.1c-1,0.2-2,0.7-2.8,1.3c-0.7,0.5-1.4,0.9-2.1,1.3l-0.8-3.1c0,0.2,0,0.5,0,0.7
		c-0.3-0.8-0.6-1.5-1-2.2c-0.8-1-1.5-2-2.1-3.1c-0.4-1.1-0.7-2.1-0.8-3.2c-0.3-1.5-0.4-3.1-0.4-4.6c0.2-1.6,0-3.4,0.3-3.9
		s0.8-1.9,0.9-2c0.1-0.1,0.7-1.1,0.7-1.1L21,24.3c0,0,1-2.2,1.4-2.4c0.4-0.2,1.4-0.3,1.9-0.5c0.5-0.2,1.4-0.4,1.4-0.4l-0.8,0.7
		l2-0.5l-0.8,0.6l1.9-0.4L27.1,22l1.7-0.3L28,22.3l1.2-0.3l-0.5,0.5l0.9-0.3L29,22.7l0.9-0.2l-1.2,0.8c0.9,0.3,1.9,0.2,2.8-0.1
		c1-0.2,1.9-0.6,2.9-1l-0.2,0.4c0,0,1.1-0.6,1.8-0.9c0.9-0.4,1.8-0.7,2.7-0.9l-0.2,0.5c0.6-0.3,1.2-0.5,1.8-0.6
		c0.6,0,1.3,0.1,1.9,0.2l-0.7,0.2c0.9,0.1,1.8,0.4,2.6,0.8c0.6,0.6,1,1.3,1.2,2.1l0.1-0.7l0.8,1.7v-0.7c0.4,0.7,0.8,1.5,1.1,2.3
		C47.4,27.3,46.7,31.5,46.8,32.5z M39.7,49.9l-0.3-0.3l0.1,0.4l-0.3-0.2l0.2,0.5L39,50l0.1,0.3L38.6,50l0.3,0.5l-0.5-0.4
		c0.1,0.2,0.2,0.3,0.2,0.5c0-0.1-0.5-0.4-0.5-0.4l0.2,0.6l-0.6-0.4L38,51l-0.3-0.5l0.3,0.7l-0.5-0.5l0.2,0.6l-0.6-0.5l0.3,0.6L37,51
		l0.2,0.5L36.6,51l0.3,0.7l-0.4-0.3l0.1,0.6c-0.3-0.2-0.5-0.4-0.7-0.7c-0.3-0.4-0.5-0.9-0.7-1.3l-0.1,0.4l-0.2-0.5
		c0,0.1-0.1,0.3-0.1,0.4c-0.1-0.1-0.1-0.3-0.2-0.4l-0.2,0.4l-0.1-0.4L34,50.4L33.9,50l-0.2,0.3L33.5,50l-0.2,0.3L33.1,50L33,50.4
		l-0.3-0.5l-0.1,0.4l-0.2-0.4c0,0.1-0.1,0.3-0.1,0.4c0-0.1-0.1-0.3-0.1-0.4L32,50.4L31.9,50c-0.2,0.5-0.4,0.9-0.7,1.3
		c-0.2,0.3-0.4,0.5-0.7,0.7l0.2-0.5l-0.5,0.3l0.3-0.7L30,51.6v-0.5l-0.4,0.4l0.3-0.6l-0.6,0.5l0.2-0.6L29,51.3l0.3-0.7L28.8,51
		l0.2-0.4L28.4,51l0.2-0.6c0,0-0.5,0.3-0.5,0.4c0.1-0.2,0.1-0.3,0.2-0.5l-0.5,0.4l0.3-0.6l-0.5,0.3l0.2-0.4l-0.4,0.3l0.2-0.5
		L27.3,50l0.2-0.5l-0.3,0.3l0.1-0.3l-0.4,0.3l0.5-1L27,49l0.6-1.1c0,0-0.2,0.4-0.1,0.3c0.1-0.1,0.7-0.7,0.7-0.7l-0.1,0.3
		c0,0,0.6-0.2,0.9-0.3s1.2-0.4,1.5-0.5c0.6-0.1,1.1-0.1,1.7,0.1h2.5c0.4-0.1,0.9-0.1,1.4-0.1c0.3,0.1,0.8,0.6,1.1,0.7
		c0.2,0.1,0.5,0.1,0.7,0.1v-0.5c0,0,1.3,0.7,1.4,0.9c0-0.1-0.1-0.3-0.1-0.3l0.6,1.1l-0.3-0.2l0.5,1l-0.4-0.3L39.7,49.9z M17.2,33.7
		c-0.4-0.3-0.7-0.8-0.9-1.4c-0.1-1.1-0.2-2.1-0.4-3.1c-0.4-1.2-0.8-2.3-1.1-3.5c0-0.1-0.1-1,0.8-1.1H16c0.5,0,1,0.4,1.1,0.5
		c0.3,0.6,0.7,1.4,0.7,1.9c0,0.8,0.8,3.9,0.7,5.5c-0.1,1.1-0.1,2.3-0.1,2.8C17.4,35,17.2,33.7,17.2,33.7z M50.7,26
		c-0.8,1.5-0.4,2.7-0.7,4.8c-0.3,2.1-0.8,1.6-1,2.6c-0.1,0.9-0.6,1.5-1.5,1.8c0-0.9,0-1.9,0-2.1c-0.1-0.4,0.6-4.1,0.6-5.4
		c0.2-1,0.5-2.1,1-3c0,0,0-0.1,0.1-0.2c0.1,0.2,0.1,0.2,0.1,0.2s0.5-0.5,0.9-0.5c0.1,0,0.2,0,0.3,0.1C51,24.7,51.2,25.5,50.7,26z"/>
</g>
<polygon class="st17" points="21.5,34.7 22.9,34.8 22.7,34.5 "/>
<path class="st15" d="M19.5,49.4C19.2,50,19,50.6,19,51.3c0,0.5,0.1,1,0.1,1.4l-1-1.7l0.5-1L19.5,49.4z"/>
<path class="st15" d="M15.5,60.7C15.5,60.7,15.4,60.7,15.5,60.7c-0.2,0-0.2-0.1-0.1-0.2l0,0c0.2-0.4,0.4-0.8,0.4-1.3
	c0-0.1,0.1-0.2,0.2-0.2l0,0c0.1,0,0.2,0.1,0.2,0.2c0,0.5-0.2,1-0.4,1.5C15.6,60.7,15.5,60.7,15.5,60.7z"/>
<path class="st15" d="M15.8,58.5c-0.1,0-0.1-0.1-0.2-0.1c-0.1-0.4-0.3-0.7-0.6-0.9c-0.1-0.1-0.1-0.2,0-0.2c0.1-0.1,0.2-0.1,0.2,0
	c0.3,0.3,0.6,0.7,0.7,1.1C16,58.4,16,58.5,15.8,58.5L15.8,58.5z"/>
<path class="st15" d="M14.5,56.9h-0.1c-0.5-0.4-1.1-0.6-1.7-0.8c-0.8-0.2-1.7-0.2-2.5-0.1c-0.1,0-0.2,0-0.2-0.1l0,0
	c0-0.1,0-0.2,0.1-0.2c0.9-0.1,1.8-0.1,2.7,0.1c0.7,0.1,1.3,0.4,1.9,0.8c0.1,0.1,0.1,0.1,0,0.2l0,0C14.6,56.9,14.5,56.9,14.5,56.9z"
	/>
<path class="st15" d="M25.1,51.2c-0.6-1.1-1.1-2.2-1.4-3.5c-0.3-1.2-0.8-2.4-1.3-3.6c-0.2-0.6-0.5-1.2-0.8-1.8
	c-0.1-0.2-0.2-0.3-0.3-0.5l-0.1-0.1l-0.1-0.1c0,0-0.1-0.1-0.2-0.1s-0.2,0-0.3,0.1c-0.1,0-0.1,0.1-0.1,0.2v0.1V42v0.1
	c-0.1,0.3-0.1,0.6-0.2,0.9c-0.2,1.3-0.3,2.6-0.2,3.9c0,1.3,0.2,2.6,0.5,3.8c0.7,2.4,1.2,4.9,1.4,7.5c0.1-1.3,0-2.6-0.1-3.8
	c-0.1-1.3-0.5-2.5-0.7-3.8c-0.2-1.2-0.3-2.5-0.4-3.7c-0.1-1.3,0-2.5,0.2-3.8l0.1-0.4c0.3,0.5,0.5,1,0.7,1.5c0.5,1.1,1,2.3,1.4,3.5
	s0.9,2.4,1.6,3.5c0.8,1,1.8,1.9,3,2.3C26.7,53.1,25.8,52.2,25.1,51.2z"/>
<path class="st15" d="M10.5,53.7c0.7,0.1,1.3,0.5,1.7,0.9c1,0.9,1.8,1.8,1.8,1.8c-0.5-0.8-1.1-1.6-1.8-2.2c-0.6-0.4-1.1-1-1.5-1.5
	C10.6,52.6,10.3,53.4,10.5,53.7z"/>
<path class="st15" d="M47.1,49.4c0.3,0.6,0.5,1.2,0.5,1.9c0,0.5-0.1,1-0.2,1.4l1-1.7L48,50L47.1,49.4z"/>
<path class="st15" d="M50.9,60.7C50.8,60.7,50.8,60.7,50.9,60.7c-0.4-0.5-0.5-1-0.6-1.6c0-0.1,0.1-0.2,0.2-0.2
	c0.1,0,0.2,0.1,0.2,0.2c0,0.5,0.1,0.9,0.4,1.3c0.1,0.1,0.1,0.2,0,0.2l0,0C51,60.7,51,60.7,50.9,60.7z"/>
<path class="st15" d="M50.6,58.5L50.6,58.5c-0.1,0-0.1-0.1-0.1-0.2c0.1-0.4,0.4-0.8,0.7-1.1c0.1-0.1,0.2-0.1,0.2,0
	c0.1,0.1,0.1,0.2,0,0.2c-0.3,0.2-0.5,0.6-0.6,0.9C50.8,58.4,50.7,58.5,50.6,58.5L50.6,58.5z"/>
<path class="st15" d="M51.9,56.9L51.9,56.9c-0.2-0.1-0.2-0.1-0.1-0.2l0,0c0.5-0.4,1.2-0.7,1.9-0.8c0.9-0.2,1.8-0.2,2.7-0.1
	c0.1,0,0.1,0.1,0.1,0.2c0,0.1-0.1,0.1-0.2,0.1l0,0c-0.8-0.1-1.7-0.1-2.5,0.1c-0.6,0.1-1.2,0.4-1.7,0.8C52,56.9,52,56.9,51.9,56.9z"
	/>
<path class="st15" d="M41.3,51.2c0.6-1.1,1.1-2.2,1.4-3.5c0.3-1.2,0.8-2.4,1.3-3.6c0.2-0.6,0.5-1.2,0.8-1.8c0.1-0.2,0.2-0.3,0.3-0.5
	l0.1-0.1l0.1-0.1c0,0,0.1-0.1,0.2-0.1c0.1,0,0.2,0,0.3,0.1c0.1,0,0.1,0.1,0.1,0.2c0,0.1,0,0.1,0,0.1V42v0.1c0.1,0.3,0.1,0.6,0.2,0.9
	c0.2,1.3,0.2,2.6,0.2,3.9c0,1.3-0.2,2.6-0.5,3.8c-0.7,2.4-1.2,4.9-1.3,7.5c-0.1-1.3,0-2.6,0.1-3.8c0.1-1.3,0.5-2.5,0.7-3.8
	c0.2-1.2,0.3-2.5,0.3-3.7c0.1-1.2,0-2.5-0.2-3.7l-0.1-0.4c-0.2,0.5-0.5,1-0.7,1.5c-0.5,1.1-1,2.3-1.4,3.5s-0.9,2.4-1.6,3.5
	c-0.8,1.1-1.8,1.9-3,2.3C39.7,53.2,40.6,52.3,41.3,51.2z"/>
<path class="st15" d="M55.9,53.7c-0.7,0.1-1.3,0.5-1.7,0.9c-0.6,0.6-1.3,1.2-1.8,1.8c0.5-0.8,1.1-1.6,1.8-2.2c0.6-0.4,1.1-1,1.5-1.5
	C55.8,52.6,56.1,53.4,55.9,53.7z"/>
<path class="st15" d="M33.5,61.3h-0.8c-6.8,0-10-2.2-10.1-2.3l0.5-0.8c0,0,3.1,2.1,9.6,2.1h0.8c6.5,0,9.8-2.1,9.8-2.1l0.5,0.8
	C43.7,59.1,40.3,61.3,33.5,61.3z"/>
<path class="st0" d="M22.1,15.8c1.3-0.2,2.4-0.9,3.5-1.8c-0.7,0.4-1.5,0.7-2.3,1c0.6-0.3,1.1-0.7,1.6-1.2c-0.8,0.4-1.7,0.7-2.7,1
	c0.5-0.2,1-0.6,1.5-1c-0.6,0.3-1.2,0.6-1.9,0.9l1-0.7c-0.7,0.2-1.5,0.5-2.3,0.5c-0.4,0-0.9,0-1.4,0c0.6,0.2,1.1,0.4,1.8,0.4L20,15
	c0.5,0.1,1,0.1,1.6,0.1l-0.9,0.3l1.4,0l-1,0.2l1.1-0.1l-0.7,0.2L22.1,15.8z"/>
<path class="st0" d="M23.6,16.2c0,0,1.3-0.8,2-1.2c0.5-0.4,1-0.8,1.6-1.3c-0.3,0.6-0.7,1.2-1.2,1.6c0.7-0.4,1.3-0.8,1.9-1.3
	c-0.3,0.8-0.9,1.3-1.5,1.7c0.8-0.2,1.4-0.6,2-1.2c-0.3,0.8-0.9,1.3-1.6,1.5l1.1-0.6c-0.4,0.6-0.8,1-1.4,1.3l1.6-0.6
	c-0.4,0.5-1.5,1.2-2.1,1.4l-2.4,0.6l2.2-1l-1.8,0.4l2.1-1l-2.1,0.5l1.8-0.9l-1.7,0.6l1.3-0.9L23.6,16.2z"/>
<path class="st0" d="M27,10.6c0,0-0.7,1-0.9,1.4c-0.2,0.4-0.5,0.9-0.6,1.3c0-0.5,0.2-1,0.3-1.5c-0.3,0.4-0.7,1-0.9,1.4
	c0-0.6,0.3-1.2,0.5-1.6c-0.4,0.4-0.7,0.9-1,1.3c0.1-0.6,0.3-1.1,0.6-1.6l-0.6,0.7c0.1-0.4,0.3-1,0.6-1.3l-0.6,0.5
	c0.1-0.5,0.4-0.8,0.8-1.2c0.6-0.5,1.5-1.2,1.5-1.2l-1.2,1.5l1-0.8L25.3,11l1.2-0.9l-0.9,1.2l1-0.8l-0.7,1L27,10.6z"/>
<path class="st9" d="M31.7,13.7c0,0,1.2,0,1.7,0.1c0.4,0,1,0,1.5-0.2c-0.4,0.3-0.9,0.4-1.4,0.5c0.5,0.1,1.2,0,1.7,0.1
	c-0.6,0.3-1.1,0.4-1.7,0.4c0.6,0.1,1.1,0.1,1.7,0.1c-0.5,0.2-1.1,0.3-1.6,0.3l0.9,0.2c-0.4,0.2-1,0.2-1.4,0.2l0.7,0.3
	c-0.5,0.1-0.9,0.1-1.4,0c-0.7-0.3-1.8-0.6-1.8-0.6l1.9,0.2l-1.2-0.5l1.6,0.2l-1.4-0.6l1.4,0.2l-1.2-0.4l1.2,0L31.7,13.7z"/>
<path class="st0" d="M24.4,18.8c0,0,1.2-0.3,1.7-0.5s1.1-0.4,1.1-0.4l-0.4,0.4l0.9-0.2l-0.6,0.4l1-0.2l-0.6,0.6l1.1-0.3l-0.4,0.4
	c0,0,0.7-0.2,1-0.4L28.7,19c0.4-0.1,0.8-0.2,1.2-0.3L29,19.1c0.1,0,1.4-0.2,1.4-0.2c-0.6,0.1-1.1,0.4-1.7,0.5
	c-0.7,0.2-1.5,0.4-2.2,0.4l0.8-0.4L26,19.6l1.1-0.4l-1.5,0.2l1.2-0.4l-1.6,0.2l1.2-0.5L24.9,19l1-0.4L24.4,18.8z"/>
<path class="st0" d="M27.8,20.4c0,0,1.6-0.4,2.4-0.7c0.8-0.3,1.6-0.5,1.6-0.5l-0.6,0.6l1.2-0.3l-0.9,0.5l1.4-0.3l-0.8,0.8l1.5-0.4
	l-0.6,0.6c0,0,1-0.2,1.5-0.5l-0.7,0.6c0.5-0.1,1.1-0.3,1.6-0.4l-1.2,0.6c0.1,0,1.9-0.3,1.9-0.3c-0.8,0.2-1.6,0.5-2.4,0.7
	c-1,0.2-2,0.5-3,0.6l1.2-0.6l-1.8,0.3l1.6-0.5l-2.1,0.2l1.7-0.6L29.1,21l1.7-0.7l-2.4,0.4l1.5-0.5L27.8,20.4z"/>
<path class="st0" d="M28.2,17.2c0,0,1.3-0.3,2-0.6c0.6-0.3,1.2-0.4,1.2-0.4l-0.5,0.5l1-0.2l-0.7,0.4l1.1-0.3l-0.7,0.5l1.2-0.4
	l-0.5,0.5c0,0,0.8-0.2,1.3-0.4l-0.7,0.5c0.4-0.1,0.9-0.2,1.3-0.3l-0.9,0.6c0.1,0,1.6-0.3,1.6-0.3c-0.6,0.3-1.3,0.5-1.9,0.7
	c-0.8,0.2-1.6,0.4-2.4,0.5l0.9-0.5l-1.5,0.2l1.3-0.4l-1.7,0.2l1.4-0.4l-1.8,0.2l1.4-0.6l-1.9,0.4l1.2-0.4L28.2,17.2z"/>
<path class="st11" d="M39.9,32.8h0.4c0,0,0,0.2-0.2,0.3S39.9,32.8,39.9,32.8z"/>
<path class="st15" d="M14.4,61.8c0.2-0.1,0.4-0.3,0.5-0.4l0,0c0.1-0.1,0-0.2,0-0.2l0,0c-0.1-0.1-0.2-0.1-0.2,0
	c-0.3,0.3-0.5,0.5-0.8,0.7L14.4,61.8L14.4,61.8z"/>
<path class="st15" d="M15.6,56.5c1,1.2,1.7,2.6,2.1,4.1c0.1,0.4,0.1,0.8,0.1,1.2H18c0.1-0.5,0.1-1.1-0.1-2.1
	c-0.4-2.6-3.3-5.4-4.1-6.1c-0.5-0.5-1.1-0.8-1.8-1.1l0.7,1C12.7,53.5,14.5,55.1,15.6,56.5z"/>
<path class="st15" d="M18.9,61.8h0.5c0.1-1.8,0-4.1-0.3-5.3c-0.5-1.6-1.1-3.1-1.9-4.5l-0.7,0.4c0.9,1.4,1.7,2.8,2.3,4.4
	C19,57.7,19,60,18.9,61.8z"/>
<path class="st15" d="M20.5,61.8h0.8c0.1-1.5,0-3.3-0.3-4.6c-0.8-2.2-1.7-4.4-2.8-6.5l-0.5,0.1c1,1.6,1.8,3.4,2.3,5.2
	C20.5,57.7,20.6,60,20.5,61.8z"/>
<path class="st15" d="M22.2,61.8h0.4c0.1-0.5,0.2-1,0.2-1.3c0.4-2.1,0.6-4.2,0.5-6.3c-0.2-2-0.9-6.8-0.9-6.8s-0.9-3.2-0.9-1.9
	c-0.1,1.3,0.8,5.1,1.2,8.6C23,56.1,22.6,59.4,22.2,61.8z"/>
<path class="st15" d="M45.8,61.8c0-1.8,0.1-4.1,0.6-5.8c0.6-1.8,1.3-3.6,2.3-5.2l-0.5-0.2c-1.1,2.1-2.1,4.2-2.8,6.5
	c-0.4,1.4-0.5,3.2-0.5,4.7H45.8z"/>
<g>
	<path class="st15" d="M43.9,61.8l-0.1-0.3c0,0-0.2,0.1-0.7,0.3H43.9z"/>
	<path class="st15" d="M23.7,61.8c-0.6-0.2-1-0.4-1-0.4l-0.2,0.4H23.7z"/>
</g>
<path class="st15" d="M52,61.8h0.5c-0.3-0.2-0.5-0.4-0.8-0.6l0,0c-0.1-0.1-0.2-0.1-0.2,0l0,0c-0.1,0.1,0,0.2,0,0.2
	C51.7,61.5,51.9,61.7,52,61.8z"/>
<path class="st15" d="M47.4,61.8c0-1.8,0-4,0.2-5c0.6-1.6,1.3-3,2.3-4.4L49.2,52c-0.8,1.4-1.4,2.9-1.9,4.5c-0.3,1.2-0.4,3.5-0.4,5.3
	H47.4z"/>
<path class="st15" d="M48.7,61.8c0-0.4,0-0.8,0.1-1.2c0.3-1.5,1-2.9,2.1-4.1c1.1-1.3,2.8-3,2.8-3l0.7-1c-0.7,0.2-1.3,0.6-1.8,1.1
	c-0.8,0.8-3.7,3.6-4.1,6.1c-0.1,0.9-0.1,1.6-0.1,2.1C48.4,61.8,48.7,61.8,48.7,61.8z"/>
<path class="st15" d="M59.8,54.7l-3.3-1.8c-0.1-0.1-0.2-0.2-0.3-0.3c-0.1-0.2-0.3-0.4-0.6-0.5c-0.4-0.2-0.9-0.3-1.4-0.1
	c-0.4,0.2-0.8,0.4-1.2,0.7c-0.2,0.2-0.4,0.3-0.6,0.4L52.2,53c-0.4-0.2-0.9-0.5-1.2-0.8s-0.8-0.5-1.3-0.5c-0.3-1-0.5-1.1-0.7-1.2
	c-0.2-0.1-0.5-0.2-0.8-0.3L47.8,49c-0.3-1.1-0.5-2.2-0.6-3.4c-0.1-1.3-0.5-2.5-1.1-3.6l-0.8,0.5c0.6,1,0.9,2,1,3.1
	c0.1,1.2,0.3,2.4,0.6,3.6l0.7,1.6l0.2,0.1c0,0,0.5,0.2,0.8,0.3c0.1,0.3,0.2,0.7,0.3,1l0.1,0.4h0.4c0.3,0,0.6,0,0.9,0.2
	c0.5,0.4,1,0.7,1.5,1l0.3,0.1c0.5,0.3,0.9-0.1,1.5-0.6c0.3-0.2,0.6-0.5,0.9-0.6c0.3-0.1,0.6,0,0.8,0.1c0.2,0.3,0.4,0.5,0.6,0.7
	l0.1,0.1l3.7,1.6L59.8,54.7L59.8,54.7z"/>
<path class="st16" d="M11.7,55.9C9.9,55.7,8,56.1,6.4,57v4.8H9c1.1-0.3,2.1-0.7,3-1.3C14.9,58.2,13.5,56.5,11.7,55.9z"/>
<path class="st15" d="M20.2,42.1c-0.6,1.1-1,2.3-1.1,3.6c-0.1,1.1-0.3,2.3-0.6,3.4L18,50.2l-0.8,0.3c-0.1,0.1-0.4,0.2-0.6,1.2
	c-0.5,0-1,0.2-1.3,0.5c-0.4,0.3-0.8,0.6-1.2,0.8l-0.2,0.1c-0.2-0.1-0.4-0.3-0.6-0.4c-0.3-0.3-0.7-0.6-1.2-0.8s-1-0.1-1.4,0.1
	c-0.3,0.1-0.5,0.3-0.6,0.5c-0.1,0.1-0.2,0.2-0.3,0.3l-3.5,1.8v0.6l3.9-1.6l0.1-0.1c0.2-0.2,0.4-0.4,0.6-0.7c0.2-0.2,0.6-0.2,0.8-0.1
	c0.3,0.2,0.6,0.4,0.9,0.6c0.6,0.5,1.1,0.9,1.5,0.6l0.3-0.2c0.6-0.3,1.1-0.6,1.5-1c0.3-0.2,0.6-0.2,0.9-0.2h0.4l0.1-0.4
	c0.1-0.3,0.2-0.7,0.3-1c0.3-0.1,0.8-0.3,0.8-0.3l0.2-0.1l0.7-1.6c0.3-1.2,0.5-2.4,0.6-3.6c0.1-1.1,0.4-2.2,0.9-3.1L20.2,42.1z"/>
<path class="st15" d="M17.5,58.6c-0.2-1.1-0.8-2.4-4-3.1c-2.7-0.6-5.6,0.5-7.1,1.2V57h0.4c2.1-0.9,4.3-1.2,6.5-0.8
	c2.8,0.6,3.2,1.6,3.5,2.6c0.1,0.3,0.3,1.6-1,3h0.9C17.8,60.3,17.6,59,17.5,58.6z"/>
<path class="st15" d="M50.6,61.8c-1.3-1.4-1.1-2.7-1-3c0.2-1,0.7-1.9,3.5-2.6c2.2-0.3,4.5-0.1,6.5,0.8h0.2v-0.4
	c-1.6-0.7-4.4-1.7-6.9-1.1c-3.2,0.7-3.8,2-4,3.1c-0.1,0.4-0.3,1.7,0.8,3.2H50.6z"/>
<path class="st15" d="M43.8,61.8h0.4c-0.4-2.3-0.8-5.6-0.5-7.7c0.4-3.5,1.2-7.4,1.2-8.6c-0.1-1.3-0.9,1.9-0.9,1.9s-0.7,4.8-0.9,6.8
	c-0.1,2.1,0.1,4.2,0.5,6.3C43.6,60.8,43.7,61.3,43.8,61.8z"/>
<path class="st0" d="M18.2,14.4c0,0-0.5,1.3-0.8,2.5S17,18.7,17,18.7l0.4-0.9l-0.4,1.6l0.6-1.2l-0.3,1.5l0.6-1.2
	c0,0-0.5,1.8-0.5,1.7c0-0.1,0.7-1.4,0.7-1.4l-0.4,1.7l0.7-1.5l-0.4,1.7l0.6-1.1l-0.4,1.4l0.6-1.1l-0.4,1.9l0.9-1.6l-0.5,2l0.8-1.8
	l-0.4,1.7l0.7-1.5c0,0-0.4,1.6-0.3,1.5c0.1-0.1,0.8-1.5,0.8-1.5l-0.2,1.5l0.9-1.5c0,0-0.4,1.4-0.3,1.4s0.9-1.4,0.9-1.4
	s-0.3,1.1-0.3,1c0.1-0.1,1.4-2.4,1.4-2.4L22.3,20l0.6-1.2c0,0-1.1,1.4-1,1.3s0.7-1.6,0.7-1.6l-1.1,1.4l0.6-1.5l-1,1.7l0.6-2l-1,1.8
	l0.7-2l-1.1,1.7l0.9-1.9L20,19.2l1-1.9l-1.1,1.5l0.6-1.8l-1,1.6l0.7-1.9L19,18.4l0.8-2.1L18.8,18l0.7-1.9l-1.1,1.7l0.7-1.9L18,17.5
	l0.7-2.1l-0.9,1.8l0.8-2.2l-0.7,1.2L18.2,14.4z"/>
<polygon class="st0" points="17.1,21.2 16.8,23.4 17.1,23.1 17.1,23.7 17.4,23.3 17.4,24.3 17.7,23.6 17.6,24.7 18,24 17.9,25.1 
	18.4,24.5 18.3,25.5 18.6,25 18.5,26 18.9,25.2 19,26.1 19.8,24.2 19.3,24.7 19.7,23.6 19,24.3 19.2,23.4 18.8,24 19,23.2 
	18.5,23.7 18.6,22.9 18.4,23.4 18.5,22.4 18.2,23.1 18.2,22.3 17.9,22.9 18,22 17.7,22.7 17.8,21.8 17.4,22.4 17.6,21.6 17.2,22.1 
	"/>
<path class="st18" d="M47.1,12.7c0,0,0.6,1.3,1,2.4c0.4,1.1,0.5,1.9,0.5,1.9l-0.5-0.8l0.5,1.6l-0.7-1.2l0.4,1.5L47.6,17
	c0,0,0.6,1.7,0.6,1.7c0-0.1-0.8-1.4-0.8-1.4l0.5,1.7L47,17.5l0.5,1.7l-0.7-1l0.4,1.4l-0.7-1.1l0.6,1.8l-1-1.6l0.6,2L45.8,19l0.5,1.7
	l-0.8-1.5c0,0,0.5,1.6,0.4,1.4S45,19.2,45,19.2l0.3,1.5l-1-1.4c0,0,0.5,1.4,0.4,1.3c-0.1-0.1-1-1.4-1-1.4s0.4,1.1,0.3,0.9
	c-0.1-0.1-1.6-2.3-1.6-2.3l0.9,0.8l-0.7-1.2c0,0,1.2,1.3,1.1,1.2S43,17.1,43,17.1l1.2,1.3l-0.7-1.5l1.1,1.7l-0.8-1.9l1.2,1.7
	l-0.8-1.9l1.2,1.7l-1-1.9l1.3,1.6l-1.1-1.9l1.2,1.4l-0.8-1.7l1.1,1.5l-0.8-1.9l1.2,1.7l-1-2l1.2,1.5L46,14.5l1.2,1.6l-0.8-1.9
	l1.2,1.7l-0.8-2.1l1,1.7l-0.9-2.1l0.8,1.1L47.1,12.7z"/>
<polygon class="st18" points="48.7,19.5 49.1,21.7 48.8,21.4 48.9,22 48.5,21.6 48.7,22.6 48.2,22 48.5,23 48,22.4 48.2,23.4 
	47.6,22.9 47.8,23.9 47.5,23.4 47.6,24.3 47.1,23.6 47.1,24.5 46.2,22.7 46.7,23.1 46.3,22 47,22.7 46.7,21.8 47.2,22.4 47,21.6 
	47.5,22.1 47.3,21.3 47.6,21.7 47.4,20.8 47.8,21.4 47.7,20.6 48,21.3 47.9,20.4 48.2,21 48.1,20.1 48.5,20.8 48.2,19.9 48.6,20.4 
	"/>
<path class="st0" d="M18.8,36.6l-0.1,1.9l0.3-0.5l-0.2,1.6l0.3-0.7l0,2.2l0.2-0.7l-0.1,1.3l0.2-0.5l-0.1,1.2l0.3-0.6l-0.1,1.5
	l0.3-0.7l0,1l0.2-0.5l0,1.1l0.2-0.6c0,0,0,1.3,0,1.2c0-0.2,0.2-0.7,0.2-0.7v1.4l0.2-0.6l0.1,1.6l0.2-0.6v1.3l0.1-0.5l0.1,1.4
	l0.1-0.4l0.1,0.8l0.2-0.7l0,1.5l0.2-0.8l0.2,1.2l0.1-1.1l0.2,1.1l0.1-1.2l0.2,0.9l-0.1-2.1l-0.2,0.7l-0.1-1.5l-0.3,1.1L22,46.2
	l-0.1,0.9l0-1.5l-0.2,1.1l0-1.5l-0.2,0.7l-0.1-1.5l-0.1,0.9l0-1.6l-0.3,0.8l0-1.5l-0.1,0.8l-0.2-1.7L20.3,43l0.1-1.9l-0.2,1
	l-0.1-1.5l-0.2,0.9l0.1-1.6l-0.3,1l0.1-1.7L19.5,40l0.1-1.5l-0.2,0.9l0.2-1.7c0,0-0.4,1.1-0.3,1s0.1-2.1,0.1-2.1l-0.2,1l0-1.9
	L19,37.2L18.8,36.6z"/>
<path class="st0" d="M18.4,13.3c0,0,0.3-1,0.9-1.9s1.1-1.4,1.1-1.4l-0.6,0.3c0,0,0.5-0.8,1.6-1.4S23,8.1,23,8.1l-0.8,0.7l1.3-0.7
	l-1.4,1.2l1.7-0.8l-1.2,0.9l1.4-0.6l-0.9,0.7l1.2-0.5l-0.8,0.8l1.1-0.4L23.9,10l1-0.4c0,0-1.4,1.2-2,2.1s-0.8,1.2-0.8,1.2
	s0.4-1.2,1-2c0,0-1,0.8-1.6,2.4c0,0,0.3-1.3,1-2.4c0,0-0.8,0.7-1.4,2.2c0,0,0.2-1.3,0.9-2.3c0,0-1,1.2-1.7,2.5c0,0,0.3-0.9,0.9-2.3
	c0,0-0.7,0.9-1.2,2.2l0.4-1.8l-1.1,1.9l0.6-1.6l-1.1,1.9l0.5-1.5L18.4,13.3z"/>
<path class="st18" d="M43.6,14.6l-0.8-0.1l1.1-0.1l-1-0.1l1.4-0.3l-0.9-0.1c0.5-0.1,1.1-0.2,1.5-0.4l-1,0.1c0.6-0.2,1.2-0.4,1.7-0.7
	c-0.5,0.1-0.9,0.2-1.4,0.3c-0.8,0.1-1.5,0-2.3,0l1.1,0.5c-0.7-0.1-1.4-0.3-2-0.5c0.6,0.3,1.1,0.6,1.7,0.7c-1-0.1-1.9-0.2-2.8-0.4
	c0.6,0.3,1.2,0.7,1.8,0.9c-0.8-0.2-1.7-0.3-2.4-0.6c1.2,0.7,2.4,1.2,3.7,1.1L43.6,14.6z"/>
<path class="st18" d="M40,15.3l1.5,0.6l-1.7-0.2l1.9,0.6l-2.1-0.1l2.2,0.6l-1.8-0.1l2.3,0.5l-2.4-0.2c-0.6,0-1.8-0.6-2.3-0.9
	l1.7,0.3c-0.7-0.1-1.1-0.5-1.7-1l1.2,0.3c-0.8-0.1-1.4-0.5-1.9-1.2c0.6,0.4,1.4,0.7,2.1,0.8c-0.7-0.3-1.4-0.7-1.8-1.4
	c0.6,0.4,1.4,0.7,2.1,1c-0.6-0.3-1.1-0.8-1.5-1.4c0.6,0.3,1.2,0.6,1.8,1c0.7,0.3,2.1,0.8,2.1,0.8L40,15.3z"/>
<path class="st18" d="M38.4,11.2l-0.8-0.8l1.1,0.6l-1.1-1l1.4,0.6l-1.3-1l1.2,0.6L37.5,9c0,0,1,0.6,1.7,0.9c0.4,0.3,0.7,0.6,1,1
	l-0.7-0.3c0.3,0.3,0.6,0.7,0.8,1.1l-0.7-0.6c0.4,0.4,0.7,0.9,0.9,1.4c-0.4-0.4-0.7-0.8-1.2-1.1c0.4,0.4,0.7,0.9,0.8,1.5
	c-0.4-0.4-0.8-0.9-1.2-1.2c0.2,0.4,0.5,0.9,0.6,1.4c-0.2-0.4-0.6-0.8-0.9-1.2c-0.4-0.4-1.2-1.2-1.2-1.2L38.4,11.2z"/>
<path class="st18" d="M46.2,11.7c0,0-0.5-0.9-1.3-1.7c-0.7-0.7-1.4-1.2-1.4-1.2L44.1,9c0,0-0.6-0.6-1.8-1.1
	c-1.2-0.5-1.7-0.5-1.7-0.5l0.9,0.6l-1.5-0.5l1.6,0.9l-1.8-0.5l1.3,0.7l-1.5-0.4l1.1,0.5l-1.2-0.3l0.9,0.6l-1.2-0.2l0.9,0.5l-1.1-0.2
	c0,0,1.6,1,2.4,1.7c0.8,0.7,1,1,1,1s-0.6-1.1-1.4-1.8c0,0,1.1,0.6,2,2.1c0,0-0.5-1.2-1.4-2.1c0,0,0.9,0.5,1.8,1.9
	c0,0-0.4-1.3-1.4-2.1c0,0,1.2,1,2.1,2.1c0,0-0.5-0.9-1.3-2.1c0,0,0.8,0.8,1.6,1.9l-0.7-1.7l1.4,1.7l-0.9-1.5l1.4,1.6L45,10.5
	L46.2,11.7z"/>
<path class="st9" d="M24,7.5c0,0,1.2-0.7,2.7-1.2s1.9-0.6,1.9-0.6l-0.9-0.1c0,0,2.3-0.5,4-0.7s2.5,0,2.5,0l-2.3,0.1L34,5.1l-2.1,0.3
	l2,0l-1.7,0.2l1.6,0L32,5.9l1.9,0l-2,0.3l2,0l-2.1,0.3l2.1-0.1c0,0-1.8,0.3-3.4,0.8s-2.2,0.9-2.2,0.9l1.5-1.1l-2,1L29.4,7l-2.3,1
	L29,6.9l-2.2,0.9l2.1-1.2L26,7.9l2.1-1.4l-2.5,1.1l1.7-1l-2.4,1l1.4-0.9l-2,0.8l1.3-0.7L24,7.5z"/>
<path class="st9" d="M27.8,9.4c0,0,1-0.8,2.7-1.4s2.1-0.5,2.1-0.5l-1.7,0.8l2-0.5l-1.4,0.8l1.7-0.3c0,0-1.5,0.6-1.3,0.6
	s1.6-0.2,1.6-0.2l-1.6,0.6L33.3,9c0,0-2.9,1.4-4.3,2.4c0,0,0.6-0.6,1.4-1.3c0,0-0.8,0.4-2.2,1.3c0,0,0.9-0.7,1.9-1.6
	c0,0-1,0.6-2.2,1.4l1.8-1.5L28,10.6l1.9-1.5l-2,1l1.8-1.3L28,9.7l1.4-1L27.8,9.4z"/>
<path class="st9" d="M28.3,13c0,0,0.8-0.9,2.1-1.6s1.8-0.8,1.8-0.8l-1.4,1l1.7-0.7l-1.1,0.9l1.4-0.5c0,0-1.2,0.8-1.1,0.7
	c0.1-0.1,1.3-0.5,1.3-0.5l-1.3,0.8l1.3-0.5c0,0-2.3,1.7-3.4,2.8c0,0,0.4-0.7,1-1.4c0,0-0.6,0.5-1.7,1.5c0,0,0.7-0.8,1.4-1.7
	c0,0-0.8,0.7-1.7,1.5l1.4-1.6L28.7,14l1.5-1.6l-1.6,1.2l1.3-1.4l-1.3,1l1.1-1.1L28.3,13z"/>
<path class="st0" d="M23.2,48.2c0,0,0,1.7,0.2,3s0.4,2.4,0.4,2.4l0.1-1.5l0.4,2.3l0.2-1.3l0.3,1.9l0.2-1l0.4,1.5l0.1-1.3L26,56
	l0.1-1.1l0.3,1.4l0.2-1.1l0.4,1.3l0.2-1.1l0.3,1.4l0.2-1l0.4,1.2l0.1-1l0.3,0.6c0,0-0.1-1,0-1.9s0.2-1.2,0.2-1.2s-0.4,0.9-0.6,1.5
	l0.1-1.3l-0.4,1.3l-0.1-1.6l-0.3,1.3v-1.4l-0.4,1l0.2-1.7l-0.6,1.5l0.2-1.6L26.4,54l0.2-1.6l-0.5,1.2l0.2-1.8l-0.6,1.4l0.2-1.8
	l-0.6,1.6c0,0,0-0.8,0.5-2.1s0.7-1.7,0.7-1.7s-0.7,0.9-1.2,2.5l0.4-2.1l-0.8,1.7l0.4-1.7L24.5,51l0.3-1.9l-0.6,1.4l0.3-1.9l-0.7,1.7
	l0.4-2.1l-0.5,1.3l0.1-0.9l-0.3,0.6L23.2,48.2z"/>
<path class="st0" d="M24.7,47.9c0,0,0.4-0.6,0.8-1s0.7-0.6,0.7-0.6L25.8,47l1-0.9L26.2,47l1-0.8l-0.6,0.9l1-0.7l-0.7,0.8l1-0.6
	l-0.7,0.8l-0.6,1l0.2-0.6l-0.6,0.9l0.2-0.8l-0.7,0.8l0.3-0.9l-0.7,0.8l0.3-0.9L25,48.4l0.3-0.8L24.7,47.9z"/>
<path class="st9" d="M29.1,44.8l-1,0.7l0.6-0.1l-0.5,0.6l0.8-0.4l-0.6,0.8l0.7-0.4l-0.5,0.8l0.8-0.6l-0.3,0.7l0.6-0.7l-0.2,0.5
	l0.5-0.7L30,46.5l0.4-0.6v0.5l0.4-0.5l0,0.4l0.3-0.5v0.6l0.3-0.7l0,0.7l0.3-0.6l0,0.6l0.2-0.6l0.2,0.6l0.2-1.5l-0.3,0.5
	c0,0,0-0.9,0-0.8S32,45.1,32,45.1v-0.7l-0.3,0.7l0.1-0.7l-0.4,0.8l0-0.7L31,45.3l0.1-0.9l-0.3,0.8l0.1-0.7l-0.4,0.7l0.1-0.7
	l-0.4,0.7l0.1-0.7l-0.4,0.8l0.2-0.7l-0.5,0.8l0.3-0.8l-0.6,0.6l0.3-0.5l-0.5,0.4L29.1,44.8z"/>
<path class="st18" d="M47.6,37.7l0,1.6l-0.2-0.4l0.1,1.4l-0.2-0.6l-0.1,1.9l-0.2-0.6l0,1.1l-0.2-0.4l0,1l-0.3-0.6l0.1,1.3L46.4,43
	l0,0.9l-0.2-0.5l-0.1,1L46,43.8c0,0,0,1.2-0.1,1c0-0.1-0.1-0.6-0.1-0.6l0,1.2l-0.2-0.5l-0.2,1.4l-0.1-0.5l0,1.1L45,46.5l-0.2,1.2
	l-0.1-0.4L44.7,48l-0.2-0.6l-0.1,1.3L44.3,48l-0.2,1l0-0.9l-0.2,1l0-1l-0.2,0.8l0.1-1.8l0.2,0.6l0.1-1.3l0.2,0.9l0.1-1.3l0.1,0.8
	l0.1-1.3l0.2,0.9l0.1-1.3l0.2,0.6l0.1-1.3l0.1,0.8l0.1-1.4l0.2,0.7l0.1-1.3l0.1,0.7l0.2-1.5l0.1,0.8l0-1.6l0.1,0.8l0.1-1.3l0.2,0.8
	l0-1.4l0.2,0.9l-0.1-1.5l0.3,0.7l0-1.3L47,40l-0.1-1.5c0,0,0.3,1,0.2,0.9s0-1.8,0-1.8l0.1,0.9l0-1.6l0.1,1.4L47.6,37.7z"/>
<path class="st18" d="M43.1,48.4c0,0,0,1.6-0.1,2.8c-0.2,1.2-0.4,2.3-0.4,2.3l-0.1-1.4l-0.4,2.1L42,53l-0.3,1.8l-0.2-1l-0.4,1.4
	l-0.1-1.2l-0.4,1.7l-0.1-1L40.4,56l-0.2-1l-0.4,1.2l-0.1-1.1l-0.3,1.3l-0.2-0.9l-0.4,1.2l-0.1-0.9l-0.3,0.6c0,0,0.1-0.9,0-1.8
	s-0.2-1.1-0.2-1.1s0.4,0.8,0.5,1.4l-0.1-1.3l0.4,1.3l0.1-1.5l0.3,1.2v-1.3l0.4,1l-0.2-1.6l0.5,1.4l-0.2-1.5l0.5,1.2l-0.1-1.5
	l0.4,1.1l-0.2-1.7l0.5,1.3l-0.2-1.7l0.5,1.5c0,0,0-0.8-0.4-2c-0.4-1.2-0.6-1.6-0.6-1.6s0.6,0.9,1.1,2.3L41,49.6l0.7,1.6l-0.4-1.6
	l0.6,1.4l-0.2-1.8l0.5,1.3l-0.2-1.8l0.6,1.6l-0.4-1.9l0.4,1.2l-0.1-0.9l0.3,0.5L43.1,48.4z"/>
<path class="st18" d="M41.9,47.9c0,0-0.4-0.6-0.8-1s-0.7-0.6-0.7-0.6l0.4,0.7l-1-0.9l0.6,0.9l-1-0.8l0.6,0.9l-1-0.7l0.7,0.8l-1-0.6
	l0.7,0.8l0.6,1l-0.2-0.6l0.6,0.9l-0.2-0.8l0.7,0.8l-0.3-0.9l0.7,0.8L41,47.7l0.7,0.7l-0.3-0.8L41.9,47.9z"/>
<path class="st18" d="M37.5,44.8l1,0.7l-0.6-0.1l0.5,0.6l-0.8-0.4l0.6,0.8l-0.7-0.4l0.5,0.8l-0.8-0.6l0.3,0.7l-0.6-0.7l0.2,0.5
	l-0.5-0.7l0.1,0.5l-0.4-0.6v0.5l-0.4-0.5l0,0.4l-0.3-0.5v0.6l-0.3-0.7l0,0.7l-0.3-0.6l0,0.6l-0.2-0.6l-0.2,0.6l-0.2-1.5l0.3,0.5
	c0,0,0-0.9,0-0.8s0.2,0.6,0.2,0.6v-0.7l0.3,0.7l-0.1-0.7l0.4,0.8l0-0.7l0.3,0.9l-0.1-0.9l0.3,0.8l-0.1-0.7l0.4,0.7l-0.1-0.7l0.4,0.7
	l-0.1-0.7l0.4,0.8l-0.2-0.7l0.5,0.8l-0.3-0.8l0.6,0.6l-0.3-0.5l0.5,0.4L37.5,44.8z"/>
</svg>
