<?xml version="1.0" encoding="utf-8"?>
<!-- Generator: Adobe Illustrator 21.1.0, SVG Export Plug-In . SVG Version: 6.00 Build 0)  -->
<svg version="1.1" id="Layer_1" xmlns="http://www.w3.org/2000/svg" xmlns:xlink="http://www.w3.org/1999/xlink" x="0px" y="0px"
	 viewBox="0 0 65 65" style="enable-background:new 0 0 65 65;" xml:space="preserve">
<style type="text/css">
	.st0{fill:#EE926E;}
	.st1{clip-path:url(#SVGID_2_);}
	.st2{fill:#FFFFFF;}
	.st3{fill:#FFD3AB;}
	.st4{fill:#D98C54;}
	.st5{fill:#7AA3BD;}
	.st6{fill:#5A839C;}
	.st7{fill:#265D95;}
	.st8{fill:#60AFCA;}
	.st9{fill:#FFEAD4;}
	.st10{fill:#A7662B;}
	.st11{fill:#573C16;}
	.st12{fill:#D8A265;}
	.st13{fill:#9A6014;}
	.st14{fill:#E2C685;}
</style>
<title>ESPN_AVG_Cap</title>
<g id="temp">
	<circle class="st0" cx="32.4" cy="32.5" r="27.6"/>
</g>
<g>
	<defs>
		<path id="SVGID_1_" d="M55.8,17.7h2.1V-4.5H8.5v22.2h0.8C6.5,22,4.9,27,4.9,32.5c0,15.2,12.4,27.6,27.6,27.6s27.6-12.4,27.6-27.6
			C60.1,27,58.5,22,55.8,17.7z"/>
	</defs>
	<clipPath id="SVGID_2_">
		<use xlink:href="#SVGID_1_"  style="overflow:visible;"/>
	</clipPath>
	<g id="Color" class="st1">
		<ellipse class="st2" cx="26.8" cy="29" rx="5.1" ry="3.7"/>
		<ellipse class="st2" cx="38.2" cy="29.3" rx="5.1" ry="3.7"/>
		<path class="st3" d="M36.3,10.2c5.1-0.6,8.2,3.1,10.5,7.8s0.8,8.2,1.3,8.7s0.5,0.5,1.2,1.8s0.2,3.3,0.3,4.4s-1.2,5.4-1.8,5.9
			c-0.7,0.5-1.6,0.8-2.5,0.7c-0.5-0.1-1.2,6.2-1.2,6.2l0.5,4.7c-0.5,0.5-1.1,1-1.6,1.5c-0.4,0.2-3.7,2.2-3.7,2.2l0.2,1.4L38.3,56
			l0.1,1.6c0,0-4.2,1.8-6.5,1.4c-1.7-0.3-3.4-0.8-5-1.5l0.3-1.5l-1.3-0.7l0.4-1.3l-4.7-2.8c0,0,0-3.1,0-4.7s-1.1-6.6-1.8-6.8
			c-0.8-0.2-1.5-0.7-2.1-1.3c-0.9-1.9-1.6-3.8-2.1-5.8c-0.2-1.2,0.5-4.2,0.7-5s1.4-1.8,2-2.8s0.8-5.7,1.5-7.8c0.7-1.6,1.8-2.9,3.1-4
			C25.2,11.3,31.2,10.8,36.3,10.2z M29.1,29.1c-0.5-0.6-1.2-1-2-1c-1.1,0-2.1,0.3-3,0.9c0.3,0.4,0.7,0.8,1.2,0.9
			c0.7,0.1,1.5-0.3,2.6-0.2s0.9-0.2,1.1-0.3C29.1,29.3,29.1,29.2,29.1,29.1z M36.5,29.3c-0.1,0.1,0.2,0.6,0.4,0.7
			c0.6,0,1.3,0,1.9,0.1c1.2,0.2,1.8,0,2.1-0.3c0.2-0.2,0.3-0.4,0.4-0.6c-0.5-0.5-1.1-0.7-1.8-0.8C38.4,28,37.2,28.4,36.5,29.3z"/>
		<path class="st4" d="M40.3,40.8c-0.9-0.4-1.6-1-2.3-1.8c-0.5-0.8-3-3.7-2.8-5.5s1.3-3.3,2.6-3.4c1.8-0.1,3.7,0.1,5.5,0.5
			c1,0.3,1.7,1,2,2c0.3,1.5,0.1,3-0.5,4.4c-0.9,1.6-1.8,3.8-2.2,3.9C41.8,41.1,41.1,41,40.3,40.8z"/>
		<path class="st5" d="M26.6,59.6c1.9,0.8,3.9,1.2,6,1.1c3.6,0,1.5-1.4,0.2-1.6c-2-0.4-4-1-5.9-1.6L26.6,59.6z"/>
		<path class="st6" d="M15.5,55.3l-0.3,0.4c1.1,1.3,2.5,2.4,4,3.1c2.3,1.1,4.6,1.9,7.1,2.4l0.4-1.5l0.6-3.6l-1.3-0.7l0.2-1.6
			c0,0-3.8-2-4.6-2.9s-1.7-2-1.8-1.8s-0.1,0.8-0.1,0.8s0,2.2,0,2.5c-0.3,0.6-0.6,1.1-1,1.6C18.2,54,15.5,55.3,15.5,55.3z"/>
		<path class="st5" d="M38.9,59.6c-1.9,0.8-3.9,1.2-6,1.1c-3.6,0-1.5-1.4-0.2-1.6c2-0.4,4-1,5.9-1.6L38.9,59.6z"/>
		<path class="st7" d="M50,55.3l0.3,0.4c-1.1,1.3-2.5,2.4-4,3.1c-2.3,1.1-4.6,1.9-7.1,2.4l-0.4-1.5l-0.6-3.6l1.3-0.7l-0.2-1.6
			c0,0,3.8-2,4.6-2.9s1.7-2,1.8-1.8s0.1,0.8,0.1,0.8c0,0.8,0,1.6,0,2.5c0.3,0.6,0.6,1.1,1,1.6C47.3,54,50,55.3,50,55.3z"/>
		<path class="st8" d="M25.3,28.4c0,0.5,0.4,1,0.8,1.3c0.6,0.2,1.3-0.1,1.6-0.7c0.2-0.2,0.2-0.5,0.1-0.8
			C27.8,28.1,25.4,27.8,25.3,28.4z"/>
		<path class="st8" d="M40.2,28.5c0,0.5-0.4,1-0.8,1.3c-0.6,0.2-1.3-0.1-1.6-0.7c-0.2-0.2-0.2-0.5-0.1-0.8
			C37.7,28.2,40.1,27.9,40.2,28.5z"/>
		<path class="st9" d="M18.4,33.1c0,0-1-2.9-1.2-3.2S17,33,17,33.4c0.1,0.7,0.5,1.4,1,1.9c0.5,0.7,0.8,1.6,0.8,2.5
			c0,0.8-0.1,1.4-0.1,1.4c-0.6-0.6-1.1-1.3-1.6-2.1c-0.7-2.1-1.3-4.4-1.6-6.6c-0.1-1.3,0.3-2.5,1.2-3.5c0.4-0.4,1-0.3,1.3,0
			c0,0,0,0,0,0c0.3,0.4,0.3,1,0,1.4c-0.4,0.6,0.1,3.2,0.3,3.6C18.4,32.4,18.4,32.7,18.4,33.1z"/>
		<path class="st9" d="M24.7,12.6c0,0-1.4,0.6-2.6,3.4s-1.6,5-1.3,6c0.4,1.7,0.5,3.5,0.3,5.2c-0.3,1.3-1,3.6-0.2,5.3
			c1,2.1,2,4.2,2.7,6.4c0.3,1.2,0.8,2.4,1.4,3.5c0.4,0.6,1.3-0.2,1.4,0.1c-0.2,1-0.5,1.9-1,2.8c-0.2,0.2-1.2,0-2.2-3.1
			s-3.6-7.6-4-9.2c-0.3-2.4-0.5-4.9-0.6-7.3c0,0-1.1-6.9,0.1-9.4S24.7,12.6,24.7,12.6z"/>
		<path class="st9" d="M29.8,27.5c0.6,0.4,1.1,0.9,1.4,1.6c0.1,0.9,0.2,1.9,0.1,2.8c0,0.6,0.3,1.8,0.3,2.1s-0.2,1.2-0.3,2.1
			c0,0.6,0,1.3,0.1,1.9c0,0.2-0.6-0.1-0.9-0.2c-0.5-0.3-0.8-0.8-0.7-1.4c0.2-0.6,0.8-1.1,0.9-1.5s-0.2-1.4-1.5-1.8s0.3-2.8,0.5-3.2
			S31,28.8,29.8,27.5z"/>
		<path class="st9" d="M24.4,12.2c0,0,1.3-1.5,1.8,0.4c0.1,0.3,0.1,0.5-1.1,1.8s-0.8,2-1.6,4s-1.1,2.9-0.5,4.2
			c0.4,1,1.1,1.9,1.9,2.6c0.4,0.3-2.4,1-3,1.4c-0.6,0.6-1.1,1.4-1.3,2.2c-0.3,0.8-0.4-2.9-0.5-5.2s-0.8-6.9,1.2-9
			S23.8,12.4,24.4,12.2z"/>
		<path class="st4" d="M22.7,29.5c0.4-0.4,0.9-0.8,1.3-1.1c0.5-0.3,0.9-0.4,1.2-0.6s0.2-0.8-0.4-1s-1-0.5-0.2-0.5s4.4,1.2,5,1.4
			c0.4,0.1,0.7,0.5,0.7,0.9c0,0.4-0.1,0.8-0.4,1.1c-0.2,0.2-0.5,0.4-0.8,0.4c-0.2,0-0.4,0-0.6-0.1c0.2-0.2,0.3-0.4,0.3-0.6
			c0.1-0.4,0-0.6-0.4-0.8c-0.7-0.3-1.4-0.5-2.1-0.6c-0.6,0.2-1.2,0.5-1.7,0.9c-0.2,0.1-1.2,0.8-1.2,0.8L22.7,29.5z"/>
		<path class="st4" d="M32,43.8c0.3,0.1,0.7,0.2,1,0.3c0.3,0.1,0.4,0.7,0,0.9c-0.5,0.2-1.1,0.2-1.6,0.2c-0.5,0-1.1,0-1.6-0.2
			c0.1,0.2,0.2,0.5,0.3,0.7c0.3,0.3,0.7,0.6,1.1,0.7c0.5,0.1,3.1-0.1,3.6,0.6s0.2,0.9,1.3,0.8s1.8-0.3,2-0.8
			c0.2-0.9,0.2-1.8-0.1-2.6c-0.2-0.8-0.8-1.4-1.6-1.7c-0.7-0.4-1.6-0.6-2.4-0.6c-0.7,0-0.3,0.1-0.3,0.5c0,0.4-0.2,0.8-0.6,1
			C32.8,43.7,32.4,43.8,32,43.8z"/>
		<path class="st4" d="M33.2,38.9c0.4-0.3,0.7-0.7,0.9-1.2c0.1-1.2,0.1-2.5-0.1-3.7c-0.1-1.6-0.1-3.2,0.1-4.8
			c0.2-0.5,0.7-1.6,1.4-1.9s2.3-0.4,2.5-0.2s0.7,0.8,0.1,0.9c-0.6,0.1-1.1,0.4-1.5,0.8c-0.1,0.3-0.1,0.6,0,0.9
			c0.3,0.1,0.7,0.1,1,0.1c0.4,0,0.9,0.1,1.5,0.2c0.4,0.1,0.8,0,1.2-0.1c-0.4,0.3-0.9,0.5-1.4,0.7c-0.8-0.1-1.6,0.1-2.3,0.4
			c-0.6,0.5-0.7,2-0.6,2.9c0,0.8,0.3,1.6,0.8,2.2c0.6,0.8,1.1,1.6,1.6,2.5c0.5,0.8,1.4,1.4,2.3,1.5c0.6,0,1.1-1,1.4-1.3
			s0.5,0.9,0.4,1s-1.5,4.9-2,4.9s-1.1-1.6-2.4-2.8c-1.2-1-2.6-1.8-4.1-2.1c-0.4,0-0.8-0.1-1.2-0.2L33.2,38.9z"/>
		<path class="st4" d="M35.1,13.9c1-0.1,2,0,3,0.3c1.6,0.6,3,1.6,4,2.9c0.9,1.2,1.4,2.6,1.5,4.1c0,1-0.4,2-1,2.9
			c-0.5,0.7-2.5,1.3-2.9,1.7c-0.4,0.5-0.5,1.1-0.4,1.7c0.1,0.4,0.1,1,0.8,1.2c0.4,0.1,0.8,0.3,1.2,0.6c0,0-0.4,0.6-0.4,0.6
			c-0.2,0.2-0.4,0.3-0.7,0.4c-0.4,0-1-0.1-1.2,0.1c-0.1,0.2-0.1,0.4-0.1,0.5c0,0,1.1,0.1,2,0.1s2.5,0,3.3,1.1s0.6,2,0.2,3.3
			S43.8,36.7,44,37s0.7,2.3,1.3,2.5c0.5,0.2,1,0.3,1.5,0.1c0.6-0.6,1.1-1.4,1.3-2.3c0.4-1.1,1.4-3,1.3-4.9s0.6-3.6-0.5-4.6
			s-1.3-1.3-1.3-1.3L47,19.9c-0.6-1.4-1.4-2.8-2.3-4c-1.5-2-2-3-3.6-3.3c-1.6-0.2-3.2-0.1-4.8,0.4C36.1,13.1,35.1,13.9,35.1,13.9z"
			/>
		<path class="st10" d="M34.5,38.1c0.2-0.5,0.4-1.1,0.3-1.7c-0.1-1-0.5-2.9-0.5-3.5c-0.1-1.2-0.1-2.4,0.1-3.6
			c0.2-0.5,0.5-1.4,1.1-1.8c0.9-0.3,1.8-0.3,2.7-0.1c0.2,0.2-1.3,1-1.6,1.4s-0.1,0.6,0,0.9s1.3,0.1,1.8,0.2s1,0.1,1.2,0.1
			s-0.9,0.6-0.9,0.6c-0.8,0.2-1.6,0.7-2.2,1.2c-0.6,0.8-0.4,3.1-0.2,3.4s1,1.3,1.2,1.7s0.7,1.3,0.7,1.4s-0.9-0.7-1.1-0.4
			c-0.3,0.4-0.8,0.7-1.3,0.7c-0.6-0.1-1.6-0.1-1.6-0.1L34.5,38.1z"/>
		<path class="st10" d="M41.7,13.2c0,0,2.4,2.9,2.6,4.1c0.3,1.3,0.4,2.7,0.3,4.1c-0.3,0.7-0.5,1.5-0.6,2.2c-0.1,0.8-0.1,1.7,0.1,2.5
			c0.3,1.4,0.6,2.8,0.8,4.2c0.1,1.7-0.1,3.4-0.5,5c-0.3,0.8-0.3,1.7-0.1,2.5c0.1,0.4,1.8-1.8,2.9-2.4s1.2-1.9,1.2-3s0-2.9,0-2.9
			L48.2,29c0,0-0.9,0.2-0.8-0.5c0.2-0.7,0.3-1.4,0.3-2.1c-0.2-2.6-0.5-5.3-1-7.9C46.3,17.9,44.1,12.8,41.7,13.2z"/>
		<path class="st4" d="M29.5,54.5c0,0,1.1,0.5,2.9,1c1.8,0.5,1.9,2.3,2.2,2.8s1.7,0.2,2.1,0.1s1.7-0.8,1.7-0.8l-0.2-1.5l1.3-0.7
			L39.3,54c0,0,4-2.5,4.5-2.7c0.6-0.3,0.9-0.9,1-1.5c0-0.6-0.1-3-0.5-3.3s-1-1.1-2.7,0.6s-2.1,2.3-3,3.4c-0.8,0.9-1.8,1.6-2.9,2.1
			C33.6,53.4,31.6,54,29.5,54.5z"/>
		<path class="st10" d="M34.1,54.4c1.1,0.3,2.3,0.4,3.5,0.3c1-0.4,2-0.8,2.9-1.4c0,0,3.8-2.2,4-2.4s0-4.2-0.3-4.3s-1.3,0.6-1.3,0.6
			L34.1,54.4z"/>
	</g>
	<g id="blacks" class="st1">
		<path class="st11" d="M34.2,7.9c1.2,0,5.7,0.1,8.3,1.3c3,1.4,4.1,6.3,4.5,8.5s0.3,9.8,0.3,9.8c0.2-0.2,0.4-0.2,0.6-0.3
			c0.3,0,0.6,0.1,0.9,0.7c0.6,1.2,0.5,2.1,0.3,4.5c-0.2,1.9-0.7,3.7-1.6,5.3c-0.3,0.9-1.2,1.5-2.1,1.5h-0.2c0,0-0.2,1.9-0.3,3.1
			s-1.2,2.5-2,3.5s-3.1,4.9-4.9,5.9c-1.5,0.6-3.1,1-4.7,1H32c-1.6,0-3.2-0.4-4.7-1c-1.8-0.9-4.1-4.8-4.9-5.9s-1.9-2.4-2-3.5
			l-0.3-3.1h-0.2c-1,0-1.8-0.6-2.1-1.5c-0.8-1.7-1.4-3.5-1.6-5.3c-0.2-2.4-0.3-3.3,0.4-4.5c0.3-0.5,0.6-0.7,0.9-0.7
			c0.2,0,0.5,0.1,0.6,0.3c0,0-0.2-7.6,0.3-9.8s1.6-7.1,4.5-8.5c2.5-1.2,7-1.3,8.3-1.3L34.2,7.9 M34.2,6.9h-3c-1.4,0-6,0.1-8.7,1.4
			c-3.5,1.6-4.6,7.1-5.1,9.2c-0.3,2.9-0.4,5.8-0.3,8.7c-0.6,0.2-1.1,0.6-1.4,1.2C15,28.7,15,29.8,15.2,32v0.4
			c0.1,1.6,0.6,3.1,1.3,4.6l0.4,1c0.4,1,1.3,1.8,2.3,2c0.1,0.7,0.1,1.6,0.2,2.2c0.1,1.4,1.3,2.9,2.2,4c0.2,0.2,0.5,0.6,0.8,1.1
			c1.5,2.2,3,4.3,4.4,5.1c1.6,0.7,3.4,1.1,5.1,1.2h1.5c1.8-0.1,3.5-0.5,5.2-1.2c1.4-0.8,2.9-2.8,4.5-5.1c0.3-0.5,0.6-0.8,0.7-1.1
			c0.9-1.2,2-2.6,2.2-4c0.1-0.7,0.2-1.6,0.2-2.2c1.1-0.2,2-1,2.3-2c0.1-0.3,0.3-0.7,0.4-1c0.7-1.5,1.1-3,1.2-4.6V32
			c0.2-2.2,0.2-3.3-0.5-4.7c-0.3-0.6-0.8-1-1.4-1.2c0.1-2.9,0-5.8-0.3-8.7c-0.4-2.1-1.6-7.5-5.1-9.2C40.2,7,35.5,6.9,34.2,6.9
			L34.2,6.9z"/>
		<path class="st11" d="M46.1,36.2c0.4-0.2,0.7-0.5,1-0.8c0.3-0.3,0.6-0.6,0.8-1c0.2-0.4,0.3-0.8,0.4-1.2c0-0.2,0-0.4,0-0.6v-0.7
			c0.1,0.4,0.2,0.9,0.2,1.3c0,0.5-0.1,0.9-0.3,1.3C47.7,35.3,47,35.9,46.1,36.2z"/>
		<path class="st11" d="M41.4,41c0.2-0.7,0.5-1.3,0.8-1.9c0.2-0.3,0.3-0.6,0.5-0.9c0.2-0.3,0.5-0.5,0.7-0.8c0.8-1.1,1.3-2.4,1.5-3.8
			c0.1,1.4-0.4,2.8-1.2,4c-0.2,0.3-0.5,0.5-0.7,0.8s-0.4,0.6-0.6,0.8C42,39.8,41.7,40.4,41.4,41z"/>
		<path class="st11" d="M24.2,41c-0.2-0.7-0.5-1.3-0.8-1.9c-0.2-0.3-0.3-0.6-0.5-0.9c-0.2-0.3-0.5-0.5-0.6-0.8
			c-0.8-1.1-1.3-2.4-1.5-3.8c0,1.4,0.4,2.8,1.2,4c0.2,0.3,0.5,0.5,0.7,0.8s0.4,0.6,0.6,0.8C23.5,39.8,23.8,40.4,24.2,41z"/>
		<path class="st11" d="M34.5,37.7c0.1-0.5,0.1-1,0.1-1.5c0-0.3,0-0.5-0.1-0.8c-0.1-0.3-0.1-0.5-0.1-0.8c0.1,0.2,0.2,0.5,0.3,0.8
			c0.1,0.3,0.1,0.5,0.1,0.8C34.9,36.6,34.8,37.2,34.5,37.7z"/>
		<path class="st11" d="M34.4,33.9c-0.1-0.7-0.2-1.4-0.2-2.1v-2.1c0-0.2,0-0.4,0-0.5c0.1-0.2,0.1-0.3,0.2-0.5
			c0.2-0.3,0.3-0.6,0.5-0.9c0.5-0.6,1.2-0.9,1.9-1c-0.3,0.1-0.7,0.2-1,0.4c-0.3,0.1-0.6,0.4-0.8,0.6l-0.5,0.9
			c-0.1,0.2-0.2,0.3-0.2,0.5c0,0.2,0,0.3,0,0.5v2.1C34.3,32.5,34.4,33.2,34.4,33.9z"/>
		<path class="st11" d="M43.4,26.4c0,0-2.2-0.7-2.7-0.9c-0.3-0.1-0.6-0.1-0.9,0c-0.2,0-4.4,1.1-4.7,1.2s-0.3,0.7-0.2,0.8
			c0.2,0.2,0.4,0.4,0.7,0.4c0.2,0,4.9-1.2,5.3-1.2s2.4,0.4,2.6,0.4c0.2,0,0.3-0.1,0.4-0.2L43.4,26.4z"/>
		<path class="st11" d="M36.1,29.2c0.2-0.3,0.5-0.6,0.8-0.8c0.5-0.4,0.8-0.4,0.9-0.5s-0.4-0.4-0.7-0.4s0.9-0.7,1.8-0.9
			c0.8-0.1,1.6-0.1,2.4,0c-0.3,0-0.1,0-0.4,0.1c-0.7,0.1-1.5,0.1-1,1c0.3,0.2,0.6,0.4,1,0.5c0.4,0.3,0.9,0.6,1.2,0.9
			c0.2,0.2,0.6,0.5,0.6,0.5c-0.3-0.1-0.6-0.3-0.8-0.5c-0.3-0.3-0.6-0.5-1-0.7c-0.3-0.1-0.6-0.2-0.7-0.3s0.2,0.3,0.2,0.3
			c0.3,0.2,0.6,0.3,0.8,0.6c0.4,0.3,0.6,0.6,0.6,0.6c-0.3-0.1-0.6-0.3-0.8-0.5c-0.4-0.3-1-0.6-1.5-0.6c-0.8-0.2-1.7-0.1-2.5,0.3
			c-0.3,0.1-0.6,0.4-0.8,0.7C36.2,29.6,36,29.4,36.1,29.2z"/>
		<path class="st11" d="M39,30h-0.2c-0.8,0-1.4-0.7-1.4-1.5c0,0,0,0,0,0h0.3c-0.1,0.6,0.4,1.2,1,1.3c0,0,0.1,0,0.1,0
			c0.4,0.1,0.8-0.1,1-0.5c0.2-0.3,0.2-0.6,0.2-0.9l0.2-0.2c0.1,0.4,0.1,0.9-0.1,1.2C39.9,29.8,39.5,30,39,30z"/>
		<circle class="st11" cx="38.9" cy="28.5" r="0.6"/>
		<path class="st11" d="M36.7,29.9c0.6-0.1,1.3-0.1,1.9,0c0.6,0.1,1.2,0.1,1.7,0c0.5-0.1,0.9-0.8,0.9-0.8l0.3,0.2
			c-0.3,0.4-0.6,0.6-1,0.8c-0.8,0.1-1.7,0.1-2.5-0.1c-0.5-0.1-0.9-0.1-1.4,0C36.5,30.1,36.5,29.9,36.7,29.9z"/>
		<path class="st11" d="M36.9,28.9c0,0-0.3,0.4-0.2,0.6c0,0.1,0.1,0.2,0.1,0.3c0,0-0.3,0.1-0.4-0.2S36.9,28.9,36.9,28.9z"/>
		<path class="st11" d="M36.1,29.6c0,0-0.2,0.1-0.2,0.2s0.2,0.2,0.3,0.1S36.2,29.6,36.1,29.6z"/>
		<path class="st11" d="M38.6,30.7c0.5,0,1.1,0,1.6,0c0.5,0,1-0.2,1.4-0.5c-0.3,0.4-0.9,0.7-1.4,0.7C39.7,30.9,39.1,30.8,38.6,30.7z
			"/>
		<path class="st11" d="M19.3,36.2c-0.4-0.2-0.7-0.5-1-0.8c-0.3-0.3-0.6-0.6-0.8-1c-0.2-0.4-0.3-0.8-0.4-1.2c0-0.2,0-0.4,0-0.6v-0.7
			c-0.1,0.4-0.1,0.9-0.1,1.3c0,0.5,0.1,0.9,0.3,1.3C17.8,35.3,18.5,35.9,19.3,36.2z"/>
		<path class="st11" d="M37.9,43.7c-0.3,0.1-0.6,0-0.9-0.1c-0.9-0.4-1.9-0.7-2.9-0.9c-0.3-0.1-0.8,0.3-1.1,0.5
			c-0.3-0.2-0.9-0.6-1.1-0.5c-1,0.2-1.9,0.5-2.9,0.9c-0.3,0.1-0.6,0.2-0.8,0.1c-0.5-0.1-0.5,0.3-0.1,0.4c0.5,0,1.1-0.1,1.6-0.2
			c0.7,0,1.5,0,2.2,0.2c0.4,0,0.8,0,1.2,0c0.4,0,0.8,0,1.2,0c0.7-0.1,1.5-0.2,2.2-0.2c0.5,0.1,1.1,0.1,1.6,0.2
			C38.3,44,38.4,43.6,37.9,43.7z"/>
		<path class="st11" d="M36.2,35.7c-0.6-0.4-0.8-0.2-0.8-0.2s0.3-0.1,1,0.9s0.8,1.4,0.4,1.8s-1.2,0.2-0.9,0.1s0.8-0.8,0.1-0.8
			c-0.7,0.2-1.3,0.5-1.8,0.9c-0.2,0.1-0.4,0.2-0.6,0.2c-0.4,0.1-0.8,0.1-1.2,0c-0.2,0-0.4-0.1-0.6-0.2c-0.5-0.4-1.1-0.8-1.8-0.9
			c-0.8-0.1-0.2,0.6,0.1,0.8s-0.4,0.3-0.9-0.1S29,37,29.7,36.2s0.7-1.2,0.7-1.2s0,0.2-0.6,0.7c-0.7,0.5-1.1,1.2-1.2,2
			c0,0.6,0.5,1.1,1.1,1.1c0,0,0,0,0.1,0c0.6,0,1.1,0,1.7,0C32,39,32.5,39,33,39c0.4,0,0.9,0,1.3-0.2c0.6,0,1.1,0,1.7,0
			c0.7,0,1.4-0.4,1.5-1.1C37.3,36.8,36.8,36.1,36.2,35.7z"/>
		<path class="st11" d="M31.2,37.7c-0.1-0.5-0.1-1-0.1-1.5c0-0.3,0-0.5,0.1-0.8c0.1-0.3,0.1-0.5,0.1-0.8c-0.1,0.2-0.2,0.5-0.3,0.8
			c-0.1,0.3-0.1,0.5-0.1,0.8C30.9,36.6,31,37.2,31.2,37.7z"/>
		<path class="st11" d="M26.5,29.8h0.2c0.8-0.1,1.4-0.7,1.3-1.5c0,0,0,0,0-0.1h-0.3c0.1,0.6-0.4,1.2-1,1.2c0,0,0,0-0.1,0
			c-0.4,0.1-0.8-0.1-1-0.5c-0.2-0.3-0.2-0.6-0.1-0.9L25.2,28c-0.1,0.4-0.1,0.9,0.1,1.2C25.6,29.6,26,29.9,26.5,29.8z"/>
		<circle class="st11" cx="26.6" cy="28.4" r="0.6"/>
		<path class="st11" d="M28.8,29.7c-0.6-0.1-1.3-0.1-1.9,0c-0.6,0.1-1.1,0.1-1.7,0.1c-0.5-0.1-0.9-0.8-0.9-0.8L24,29.2
			c0.3,0.4,0.6,0.6,1,0.8c0.8,0.1,1.7,0.1,2.5-0.1c0.5,0,0.9,0,1.4,0C29,29.9,29,29.7,28.8,29.7z"/>
		<path class="st11" d="M28.6,28.7c0,0,0.3,0.4,0.2,0.6c0,0.1-0.1,0.2-0.1,0.3c0,0,0.3,0.1,0.4-0.2S28.6,28.7,28.6,28.7z"/>
		<path class="st11" d="M29.4,29.5c0,0,0.2,0.1,0.2,0.2s-0.2,0.2-0.3,0.1S29.2,29.5,29.4,29.5z"/>
		<path class="st11" d="M27.7,30.7c-0.7-0.1-1.4,0-2.1,0c-0.7,0-1.4-0.3-1.9-0.7c0.5,0.6,1.2,0.9,1.9,0.9
			C26.2,30.9,27,30.8,27.7,30.7z"/>
		<path class="st11" d="M37.7,27.5c-0.5,0-0.9,0.1-1.4,0.1c-0.5,0.1-1,0.4-1.4,0.9c-0.3,0.5-0.6,1.1-0.7,1.7c-0.1,0.3,0-1,0-1l1-1.9
			c0.1-0.2,1.2-0.4,1.4-0.4S37.6,27.2,37.7,27.5z"/>
		<path class="st11" d="M32.3,27.2c-0.2-0.3-0.3-0.6-0.5-1c-0.1-0.4-0.2-0.7-0.2-1.1c0.2,0.3,0.3,0.7,0.5,1
			C32.2,26.5,32.2,26.8,32.3,27.2z"/>
		<path class="st11" d="M33.3,27.1c0-0.4,0-0.7,0.1-1.1c0.1-0.4,0.2-0.7,0.3-1.1c0,0.4,0,0.7-0.1,1.1C33.6,26.4,33.5,26.7,33.3,27.1
			z"/>
		<path class="st11" d="M28.8,44.4c0.8,0.3,1.4,0.9,2.1,1.1c0.4,0.1,0.7,0.2,1.1,0.1c0.4,0,0.8,0,1.2,0c0.8,0.1,1.5,0.1,2.3,0
			c0.7-0.2,1-1.2,1.8-1.4c-0.7,0.4-0.8,1.3-1.7,1.7c-0.8,0.2-1.6,0.3-2.4,0.1c-0.4,0-0.8,0-1.2,0c-0.4,0-0.9-0.1-1.2-0.2
			c-0.4-0.2-0.7-0.4-1-0.7C29.4,44.9,29.1,44.6,28.8,44.4z"/>
		<path class="st11" d="M48.9,29.2c0-0.7-0.3-0.9-0.6-0.5c-0.4,1-0.7,2-1,3c-0.2-1.2-0.3-2.5-0.1-3.7c0.3-1,0.9-0.9,0.9-0.9l0.1-0.8
			c0,0,0.1-3.2,0.2-4.6c0-1.1,0-2.1,0-3.2c0.2-1.7,0.2-3.4,0-5.1c-0.4-3.8-2.2-5.4-3.8-7s-5.1-2.6-5.8-2.8c-3.1-0.7-6.2-0.9-9.3-0.6
			c-1.4,0.2-4.1,0.1-6.6,1.9c-1.8,1.3-4.2,2.7-4.2,2.7c-0.9,0.9-1.6,1.9-2,3.1c-1,2.3-1.4,7.3-0.9,10.4c0.5,3.2,0.8,5.5,0.8,5.5h0.5
			l0.1,0.5c0,0,0.6-0.1,0.9,0.9c0.1,1.2,0.1,2.5-0.1,3.7c-0.3-1-0.6-2-1-3c-0.3-0.4-0.6-0.2-0.6,0.5s0.1,3,0.1,3l0.7-2
			c0,0,0.7,2.5,0.8,2.9s-0.6,0.7-0.7,1.2s0.5,1.1,0.5,1.1l0.8,0.6c0.2,0.2,0.4,0.5,0.5,0.9c0.2,0.9,0.3,1.9,0.2,2.8
			c0.1,0.4,0.2,0.8,0.5,1.2l0.2-1.7c0.1-1.2-0.1-2.4-0.5-3.6c-0.4-1.2-0.7-2.4-1-3.7c0,0,0.9-5.5,0.9-5.6S19,22.6,19,22.1
			c0.2-0.6,0.4-1.1,0.8-1.6l-0.5,0.3l0.6-0.8l-0.6,0.3l0.6-0.8l-0.6,0.3L20,19l-0.6,0.3l0.6-0.8l-0.7,0.4c0.5-0.5,1-1.1,1.3-1.8
			c0.8-1.3,2-2.2,3.4-2.8c0.9-0.5,2-0.6,2.9-0.2l2,0.6l-0.4-0.4l1.9,0.8l-0.5-0.5l1.7,0.8L31,14.8l1.2,0.6c0.2-0.1,0.4-0.3,0.5-0.5
			c0.1,0.2,0.3,0.4,0.5,0.5l1.2-0.6l-0.5,0.5l1.7-0.8L35,14.9l1.9-0.8l-0.4,0.4l2-0.6c1-0.3,2-0.2,2.9,0.3c1.3,0.7,2.3,1.7,3.1,2.9
			c0.5,0.6,1,1.2,1.6,1.7l-0.7-0.4l0.6,0.8L45.5,19l0.6,0.8l-0.6-0.3l0.6,0.8L45.5,20l0.6,0.8l-0.5-0.3c0.4,0.5,0.6,1,0.8,1.6
			c0,0.5-0.6,4-0.6,4.1s0.9,5.6,0.9,5.6c-0.3,1.2-0.6,2.5-1,3.7c-0.4,1.2-0.6,2.4-0.5,3.6l0.2,1.7c0.2-0.4,0.4-0.7,0.4-1.2
			c0-1,0-1.9,0.2-2.8c0.1-0.3,0.3-0.6,0.5-0.9l0.8-0.6c0,0,0.6-0.6,0.5-1.1s-0.8-0.9-0.7-1.2s0.8-2.9,0.8-2.9l0.7,2
			C48.7,32.2,48.9,29.8,48.9,29.2z"/>
		<polygon class="st11" points="21.2,46 21.2,50.8 21.9,51.3 21.9,46.7 		"/>
		<path class="st11" d="M29.4,29.1c-0.2-0.3-0.5-0.6-0.8-0.8c0,0-0.4-0.2-0.8-0.4l0,0c-0.1-0.1-0.2-0.1-0.4-0.1
			c-0.5-0.1-1.1-0.1-1.7-0.1c-0.3,0-0.5,0.1-0.7,0.2L24.5,28c-0.4,0.2-0.9,0.6-1.2,0.9c-0.2,0.2-0.6,0.5-0.6,0.5
			c0.3-0.1,0.6-0.3,0.8-0.4c0.3-0.3,0.6-0.5,1-0.7c0.2-0.1,0.5-0.2,0.7-0.3c0.1,0-0.2,0.3-0.2,0.3c-0.3,0.2-0.6,0.4-0.9,0.6
			c-0.4,0.3-0.6,0.6-0.6,0.6c0.3-0.1,0.6-0.3,0.8-0.5c0.4-0.3,1-0.6,1.5-0.6c0.8-0.2,1.7-0.1,2.5,0.3c0.3,0.1,0.6,0.4,0.8,0.7
			C29.2,29.4,29.5,29.3,29.4,29.1z"/>
		<path class="st11" d="M31.2,28.8c-0.1-0.3-0.3-0.6-0.6-0.8c-0.2-0.1-0.4-0.2-0.6-0.3c0.1-0.1,0.3-0.2,0.4-0.3
			c0-0.1,0.1-0.7-0.2-0.8s-4.5-1.1-4.7-1.2c-0.3-0.1-0.6-0.1-0.9,0c-0.5,0.1-2.8,0.9-2.8,0.9l-0.4,0.5c0.1,0.1,0.2,0.2,0.4,0.2
			c0.2,0,2.2-0.4,2.6-0.4l0.8,0.2c0.5,0.1,2,0.5,2.8,0.7l0,0l0.8,0.2l0.7,0.3c0.6,0.1,1.1,0.5,1.3,1.1c0.2,0.6,0.3,1.2,0.1,1.8
			c0.1,0.6,0.2,1.3,0.4,1.9c0-0.7-0.1-1.3-0.1-1.9C31.5,30.1,31.4,29.4,31.2,28.8z"/>
		<path class="st11" d="M23.1,34.9c-0.6-0.3-1.2-0.7-1.6-1.2c-0.5-0.6-0.9-1.3-1-2c-0.2-0.8-0.2-1.6,0-2.3c0.1-0.4,0.2-0.8,0.3-1.1
			l0.2-1.1l-0.1,1.1c-0.1,0.4-0.2,0.8-0.2,1.1c-0.1,0.7-0.1,1.5,0.1,2.2c0.2,0.7,0.5,1.4,1,1.9C22.1,34,22.6,34.5,23.1,34.9z"/>
		<path class="st11" d="M28.2,38.3c0.2-0.5,0.4-1,0.7-1.5c0.4-0.4,0,0.5,0,0.5L28.2,38.3z"/>
		<path class="st11" d="M21.7,25.4c-0.1-0.4-0.1-0.8-0.2-1.1c-0.1-0.4-0.2-0.7-0.4-1.1c-0.3-0.7-0.5-1.4-0.7-2.2
			c0.1,0.4,0.3,0.7,0.4,1.1l0.5,1.1C21.6,23.8,21.7,24.6,21.7,25.4z"/>
		<path class="st11" d="M44.6,20.5c0,0.4,0,0.9-0.1,1.3c-0.1,0.4-0.2,0.8-0.4,1.2c-0.1,0.4-0.2,0.8-0.2,1.2c0,0.4-0.1,0.8-0.1,1.3
			c0-0.4,0-0.9,0-1.3c0-0.4,0.1-0.9,0.2-1.3c0.2-0.4,0.4-0.8,0.4-1.2C44.4,21.3,44.5,20.9,44.6,20.5z"/>
		<path class="st11" d="M35.9,35c-0.3-0.4-0.6-0.9-0.8-1.3c-0.2-0.5-0.3-1-0.3-1.5c0.1,0.2,0.1,0.5,0.2,0.7c0.1,0.2,0.2,0.5,0.3,0.7
			C35.5,34,35.7,34.5,35.9,35z"/>
		<path class="st11" d="M46.8,33.3c0.2-0.9,0.2-1.8,0.1-2.7c0-0.3-0.3-2.4-0.3-2.4c-0.3,2.1-0.8,4.3-1.5,6.3
			c-0.9,2.2-0.9,2.4-1.8,3.4c-0.9,1.3-1.5,2.7-1.9,4.2c-0.3,0.8-0.6,1.6-0.9,2.3c0,0-0.8-1.7-0.9-1.9c-0.8-0.8-1.7-1.5-2.6-2.1
			c-0.6-0.5-1.3-0.7-2.1-0.8c-0.2,0-0.4,0-0.6,0c-0.5,0-1,0-1.4,0c-0.6,0-1.2,0-1.9,0h-0.2c-0.8,0.1-1.5,0.4-2.1,0.8
			c-1,0.6-1.9,1.3-2.6,2.1c-0.1,0.2-0.9,1.9-0.9,1.9c-0.4-0.7-0.7-1.5-0.9-2.3c-0.4-1.5-1-2.9-1.9-4.2c-0.9-1-0.9-1.2-1.8-3.4
			c-0.7-2.1-1.1-4.2-1.4-6.3c0,0-0.3,2.1-0.3,2.4c-0.1,0.9-0.1,1.8,0.1,2.7c0.3,1.5,0.8,3.3,0.9,4.8s-0.7,3.2-0.4,5s2.8,4.5,3.5,5.8
			c0.9,1.5,2,2.8,3.4,3.8l0.1,0.1c0.5,0.4,1,0.8,1.5,1.1c1.5,0.9,3.3,1.2,5,1c2.3,0,4.6-0.8,6.4-2.3c1.4-1,2.6-2.3,3.4-3.8
			c0.8-1.4,3.3-4,3.6-5.8s-0.5-3.5-0.4-5S46.6,34.9,46.8,33.3z M38,46.8l-0.4-1V47l-0.4-0.8l0.1,1L37,46.5l0.1,1l-0.5-0.8l0.1,0.9
			l-0.5-0.9l0.1,0.9l-0.5-0.9l0.1,0.7l-0.5-0.8l0.2,0.8c-0.1-0.1-0.2-0.2-0.3-0.4c-0.3-0.3-0.6-1-0.8-1C34,46.1,33.4,46,32.9,46
			c0,0-0.1,0.1-0.1,0.2c-0.1-0.1-0.1-0.2-0.2-0.2c-0.5,0-1,0-1.6,0.1c-0.3,0.3-0.6,0.6-0.8,1c-0.1,0.1-0.2,0.2-0.3,0.4l0.2-0.8
			l-0.5,0.8l0.1-0.7l-0.5,0.9l0.1-0.9l-0.5,0.9l0.1-0.9l-0.5,0.8l0.1-1l-0.4,0.8l0.1-1L27.9,47l0.1-1.2l-0.4,1l0-1.4l-0.3,1
			c0,0,0.5-2.7,0.5-2.7c0.8-0.5,1.6-1,2.5-1.4c0.4-0.1,0.9-0.2,1.3-0.2c0.2,0,0.4,0,0.6,0h1.9c0.3,0,0.6,0.1,0.9,0.2
			c0.9,0.4,1.8,0.9,2.7,1.5c0,0,0.5,2.7,0.5,2.7l-0.3-1L38,46.8z"/>
		<path class="st11" d="M27.5,55.8c-0.2-0.2-0.5-0.3-0.7-0.4l-0.3-0.1v-0.1c0.2-0.9,0.3-1.4-0.1-1.6c-1-0.7-2.1-1.3-3.2-1.9
			c-2.2-1.2-3.1-2.5-3.3-3.2c-0.1-0.2,0-0.4,0.1-0.6c0.4-0.5,0.9-0.9,1.4-1.1l-0.2-0.8c-0.7,0.3-1.4,0.7-1.8,1.4
			c-0.2,0.2-0.3,0.5-0.3,0.8l0,0v4c-0.2,0.4-0.4,0.7-0.8,1c-0.5,0.2-3.5,1.7-3.5,1.7l0.4,0.7l3.5-1.7c0.5-0.4,0.9-0.9,1.2-1.5V50
			c0.8,1,1.9,1.8,3,2.3c2.1,1.2,2.8,1.6,3,1.8c0,0.2-0.1,0.6-0.2,0.8c-0.1,0.4-0.1,0.5-0.1,0.6s0.2,0.3,0.8,0.5l0.3,0.1
			c0,0.2-0.1,0.4-0.2,0.7c-0.4,1.4-0.5,2.9-0.3,4.3c0.2-0.8,0.9-3.4,1.1-4.1C27.7,56.2,27.7,56,27.5,55.8z"/>
		<path class="st11" d="M21.2,50.8c0,0-1.5-1-1.5-2.2s0.2-1.3,0.7-1.6s1-0.8,1-0.6c0,0.3,0.1,0.5,0.1,0.8c0,0.1,0.1,2.2,0.1,2.3v1.1
			L21.2,50.8z"/>
		<path class="st11" d="M25.9,54.2c0,0-1.1,4.4-1.2,4.7s0.3-0.1,0.7-0.8s1-3.7,1-3.9S26,53.9,25.9,54.2z"/>
		<path class="st11" d="M32.9,59.4c-2.1-0.2-4.2-0.7-6.1-1.7l0.3-0.7C29,58,31,58.5,33,58.7c1.9,0,3.8-0.5,5.4-1.5l0.4,0.7
			c-1.7,1.1-3.7,1.6-5.8,1.6H32.9z"/>
		<path class="st11" d="M19,53.2v0.6c0.5,0.6,1.2,1.2,1.8,1.6c1,0.7,2.1,1.3,3.2,1.8c-1.2-0.3-2.4-0.8-3.5-1.5
			c-0.8-0.5-1.5-1.1-2.1-1.9L19,53.2z"/>
		<path class="st11" d="M38.1,55.8c0.2-0.2,0.5-0.3,0.7-0.4l0.3-0.1v-0.1c-0.2-0.9-0.3-1.4,0.1-1.6c1-0.7,2.1-1.3,3.2-1.9
			c2.2-1.2,3.1-2.5,3.3-3.2c0.1-0.2,0-0.4-0.1-0.6c-0.4-0.5-0.9-0.9-1.4-1.1l0.2-0.8c0.7,0.3,1.4,0.7,1.8,1.4
			c0.2,0.2,0.3,0.5,0.3,0.8l0,0v4c0.2,0.4,0.4,0.7,0.8,1c0.5,0.2,3.5,1.7,3.5,1.7l-0.3,0.7L46.9,54c-0.5-0.4-0.9-0.9-1.2-1.5V50
			c-0.8,1-1.9,1.8-3,2.3c-2.1,1.2-2.7,1.6-3.1,1.8c0,0.2,0.1,0.6,0.2,0.8c0.1,0.4,0.1,0.5,0.1,0.6s-0.2,0.3-0.8,0.5l-0.3,0.1L39,57
			c0.1,0.9,0,1.7-0.2,2.6c-0.1-0.8-0.3-1.6-0.6-2.4C37.9,56.2,37.9,56,38.1,55.8z"/>
		<path class="st11" d="M44.4,50.8c0,0,1.5-1,1.5-2.2s-0.2-1.3-0.7-1.6s-1-0.8-1-0.6c0,0.3-0.1,0.5-0.1,0.8c0,0.1-0.1,2.2-0.1,2.3
			v1.1L44.4,50.8z"/>
		<path class="st11" d="M39.7,54.2c0,0,1.1,4.4,1.2,4.7s-0.3-0.1-0.7-0.8s-1-3.7-1-3.9S39.6,53.9,39.7,54.2z"/>
		<path class="st11" d="M46.6,53.2v0.6c-0.5,0.6-1.2,1.2-1.8,1.6c-1,0.7-2,1.3-3.1,1.8c1.2-0.3,2.4-0.8,3.5-1.5
			c0.8-0.5,1.5-1.1,2.1-1.9L46.6,53.2z"/>
		<path class="st11" d="M24.6,5.2L22.9,5c-2,0.5-3.8,1.6-5.1,3.1c-2.7,2.8-4.4,7.7-4.1,10.5s1.1,3.7,1.1,3.7l0.1-1.1
			c0.2,0.7,0.4,1.5,0.5,2.2c0,0.5,0,1,0,1.4l0.4-0.6c0.1,0.9,0.2,1.8,0.3,2.7c0.1,0.2,1.1-0.4,1.1-0.4c0-1.7-0.2-3.4-0.6-5
			C16.2,19.5,22.6,10,24.2,9c1.1-0.7,2-1.7,2.7-2.9L24.6,5.2z"/>
		<path class="st11" d="M41.9,5.3c0.7,0,1.3,0.2,1.9,0.5c0.6,0.4,4.3,3.3,5.4,6.2c0.7,2,0.9,4,0.9,6.1l-0.6-0.8
			c0.4,1.2,0.6,2.4,0.4,3.6l-0.4-0.9c0.1,1.3,0.1,2.6-0.2,3.8c-0.3,1-0.5,2.1-0.5,3.1l-1.2-0.5c0,0,0.6-4.8-0.4-7.4
			s-2.3-5.8-2.3-5.8s-2.1-3.6-2.9-3.9S41.9,5.3,41.9,5.3z"/>
		<path class="st11" d="M17.9,39.1c0,1.1-0.1,2.2-0.4,3.3l0.9-1l-0.3,2.1l0.7-1.1l0.3,2.2c0.3-0.9,0.5-1.8,0.7-2.7
			c0-0.8,0-1.6-0.2-2.3L17.9,39.1z"/>
		<path class="st11" d="M47.5,39.1c0,1.1,0.1,2.2,0.4,3.3l-0.9-1l0.3,2.1l-0.7-1.1l-0.3,2.2c-0.3-0.9-0.6-1.8-0.7-2.7
			c0-0.8,0-1.6,0.2-2.3L47.5,39.1z"/>
		<path class="st11" d="M32.4,39.2c-0.7-0.1-1.4,0-2.1,0.2c-0.6,0.2-1.3,0.4-1.9,0.6l0.4,0.1c-0.8,0.4-1.5,0.9-2.2,1.5
			c-0.5,0.5-1,1.1-1.4,1.7c-0.2,0.4-0.3,0.8-0.4,1.2l0.2,0.7l2.8,2.2c0.2-0.6,0.3-1.2,0.3-1.8c0-1,0.3-1.9,0.8-2.7
			c0.8-0.4,1.8-0.7,2.7-0.7c0.4,0,0.9,0.1,1.2,0.3c0.2,0,0.7-0.2,1.2-0.3s0.8-0.9,0.7-1.3c-0.2-0.5-0.3-0.9-0.6-1.3L32.4,39.2z"/>
		<path class="st11" d="M33.5,39.2c0.7-0.1,1.4,0,2.1,0.2c0.6,0.2,1.3,0.4,1.9,0.6l-0.3,0.1c0.8,0.4,1.5,0.9,2.2,1.5
			c0.5,0.5,1,1.1,1.3,1.7c0.2,0.4,0.3,0.8,0.4,1.2l-0.2,0.7l-2.8,2.2c-0.2-0.6-0.3-1.2-0.3-1.8c0-1-0.3-1.9-0.8-2.7
			c-0.8-0.4-1.8-0.7-2.7-0.7c-0.4,0-0.9,0.1-1.3,0.3c-0.2,0-0.7-0.2-1.2-0.3s-0.8-0.9-0.7-1.3c0.2-0.5,0.3-0.9,0.5-1.3L33.5,39.2z"
			/>
	</g>
	<g id="top" class="st1">
		<path class="st12" d="M23,13.6c-0.5-0.1-0.9-0.3-1.3-0.6c-0.4-0.4-0.7-0.8-0.9-1.3c-0.4-1-0.6-2-1.1-2.9c0.3,0.4,0.6,0.9,0.8,1.4
			c0.2,0.5,0.4,1,0.6,1.4c0.2,0.5,0.5,0.9,0.8,1.2C22.2,13.1,22.6,13.4,23,13.6z"/>
		<path class="st12" d="M23.2,13.3c-0.8-0.4-1.4-1.1-1.7-1.9C21.1,10.5,21,9.5,21,8.5c0.1,1.2,0.6,2.4,1.4,3.3
			c-0.4-1.1-0.6-2.3-0.6-3.6c0.2,1.1,0.6,2.1,1.2,3.1l-0.4-3.6l1,3.6l-0.2-3.9l0.9,3.7L24,6.9l1,3.9V6.9l0.8,3.5l0.1-3.6l0.5,3.3
			l0.2-2c0.3,1.7,0.8,3.3,1.5,4.8c-0.6-0.7-1-1.5-1.4-2.3c0.1,0.7,0.3,1.4,0.5,2.1c-0.4-0.6-0.7-1.2-0.9-1.9
			c0.1,0.7,0.3,1.5,0.5,2.2c-0.5-0.6-0.9-1.3-1.1-2c0.1,0.7,0.2,1.4,0.5,2c-0.4-0.6-0.7-1.2-0.9-1.9c0,0.7,0.2,1.4,0.4,2
			c-0.3-0.5-0.6-1.1-0.8-1.7c0,0.6,0.1,1.2,0.2,1.8c-0.3-0.4-0.5-0.9-0.7-1.4c0.1,0.5,0.1,1,0.2,1.4c-0.3-0.4-0.5-0.8-0.6-1.3
			c0,0.4,0.1,0.9,0.2,1.3c-0.2-0.4-0.5-0.8-0.6-1.2c0,0,0.3,1.2,0.3,1.2s-0.7-1.1-0.7-1.1l0.3,1.2l-0.8-1L23.2,13.3z"/>
		<path class="st12" d="M28.7,13c-0.5-0.8-0.8-1.6-1-2.5c-0.2-1.2-0.6-2.3-0.9-3.4L27.7,9l-0.2-2l0.8,2.1V7.9
			c0.2,0.7,0.4,1.4,0.5,2.1l0.1-0.7c0.1,0.9,0.4,1.8,0.7,2.7c0.2,0.5,0.5,0.9,0.8,1.3c-0.5-0.5-0.9-1-1.2-1.7l0.5,1.6
			c-0.5-0.6-0.9-1.4-1-2.2l0.1,1.1l-0.6-1.2C28.3,11.6,28.5,12.3,28.7,13z"/>
		<path class="st12" d="M31.6,12.4l0.5,1.6c0,0-0.2-1.4-0.4-2.5s-0.2-3.1-0.2-3.1L31.4,11l-0.3-1.4l0.1,2c-0.2-0.4-0.4-0.8-0.5-1.3
			c-0.2-0.8-0.2-1.7-0.2-2.5l-0.3,1.4V8.9c0-0.6,0-1.3,0.1-1.9c0.1-0.9,0.1-1.7,0-2.6c-0.1,0.8-0.2,1.7-0.3,2.5
			c-0.1,0.9-0.2,1.7-0.2,2.6c0,0.9,0.2,1.8,0.5,2.6c0.3,0.8,0.8,1.5,1.3,2.1c-0.2-0.5-0.5-1-0.6-1.4c0.2,0.3,0.4,0.7,0.7,1l-0.3-1.5
			c0.2,0.5,0.4,1.1,0.6,1.6L31.6,12.4z"/>
		<path class="st13" d="M36.4,13.7c0.5-0.7,0.9-1.6,1.1-2.4c0.3-1.2,0.6-2.3,1-3.4l-1,1.9l0.3-2L37,9.9V8.6c-0.2,0.7-0.4,1.3-0.6,2
			l-0.1-0.7c-0.2,0.9-0.4,1.8-0.7,2.7c-0.2,0.5-0.5,0.9-0.8,1.3c0.5-0.4,0.9-1,1.2-1.6l-0.6,1.6c0.5-0.6,0.9-1.4,1.1-2.2l-0.2,1.1
			l0.7-1.2C36.9,12.3,36.7,13,36.4,13.7z"/>
		<path class="st13" d="M35.7,6.8l-0.1,2.6L35.4,8c0,0.8,0,1.7-0.2,2.5c-0.1,0.4-0.3,0.9-0.5,1.3l0.1-2l-0.3,1.4l-0.1-2.7
			c0,0-0.1,2-0.2,3.1S33.8,14,33.8,14l0.5-1.6L34,13.9c0.2-0.5,0.4-1,0.6-1.6l-0.3,1.5c0.5-0.6,0.9-1.4,1.2-2.1
			C35.9,10.1,35.9,8.4,35.7,6.8z"/>
		<path class="st12" d="M32.3,13.8l-0.3-3.6l0.4,1.5l-0.1-3.6l0.4,2.2L33,6.8l0.3,2.7l0.4-3.8c0.1,1.5,0.1,3,0,4.5
			c-0.1,1.2-0.2,2.5-0.4,3.7v-2l-0.3,2L32.9,12l-0.2,1.9l-0.2-1.8L32.3,13.8z"/>
		<path class="st13" d="M42.5,14c0.5-0.2,0.9-0.6,1.2-1c0.4-0.4,0.6-0.9,0.8-1.4c0.2-0.5,0.4-1.1,0.6-1.6c0.2-0.6,0.4-1.1,0.8-1.6
			c-0.5,1.1-0.6,2.2-1,3.3c-0.2,0.6-0.5,1.1-0.9,1.5C43.5,13.6,43,13.9,42.5,14z"/>
		<path class="st13" d="M42.1,13.6c0.8-0.5,1.4-1.1,1.7-1.9c0.4-0.9,0.5-1.9,0.5-2.9c-0.1,1.2-0.6,2.4-1.4,3.3
			c0.4-1.1,0.6-2.3,0.6-3.6c-0.2,1.1-0.6,2.1-1.2,3.1L42.9,8l-1.1,3.6L42,7.7l-0.9,3.7l0.3-4.1l-1,3.9V7.2l-0.8,3.5l-0.1-3.6
			l-0.5,3.4l-0.2-2c-0.3,1.7-0.8,3.3-1.5,4.8c0.6-0.7,1-1.4,1.3-2.3c-0.1,0.7-0.3,1.3-0.5,2c0.4-0.6,0.7-1.2,0.8-1.9
			c-0.1,0.7-0.3,1.5-0.5,2.2c0.5-0.6,0.9-1.3,1.1-2c-0.1,0.7-0.2,1.4-0.5,2c0.4-0.6,0.7-1.3,0.9-2c0,0.7-0.2,1.4-0.4,2
			c0.3-0.5,0.6-1.1,0.8-1.7c0,0.6-0.1,1.2-0.2,1.8c0.3-0.4,0.5-0.9,0.7-1.4c-0.1,0.5-0.1,1-0.2,1.4c0.3-0.4,0.5-0.8,0.6-1.3
			c0,0.4-0.1,0.9-0.2,1.3c0.2-0.4,0.5-0.8,0.6-1.2l-0.3,1.3c0,0.1,0.7-1.1,0.7-1.1l-0.3,1.2l0.8-1L42.1,13.6z"/>
		<path class="st13" d="M43.6,14.3c0.6-0.4,1-0.9,1.4-1.5c0.2-0.4,0.5-0.8,0.8-1.2L45.2,13l0.5-0.6l-0.2,1l0.4-0.6l-0.1,0.9l0.3-0.5
			l-0.1,1.1l0.4-0.7c0,0.6-0.1,1.1-0.2,1.7c-0.2,0.6-0.5,1.2-0.8,1.7l0.5-1.7L45,16.7l0.5-1.9l-0.8,1.5l0.6-1.9l-0.8,1.5l0.6-2
			l-0.9,1.5l0.6-1.8l-0.9,1.3l0.4-1.1L43.6,14.3z"/>
		<path class="st13" d="M45.8,17.2l0.8-2l-0.1,1.2l0.4-0.9L46.8,17l0.4-0.5c-0.1,0.7-0.2,1.4-0.4,2.1v-1l-0.4,0.5l0.2-1.2L46,17.8
			l0.2-1L45.8,17.2z"/>
		<path class="st12" d="M21.7,13.2c-0.5-0.4-1-0.8-1.4-1.4c-0.2-0.4-0.5-0.7-0.8-1l0.5,1.2l-0.5-0.5l0.2,0.9l-0.4-0.5l0.1,0.8
			l-0.3-0.4l0.1,1L19,12.6c0,0.5,0.1,1,0.2,1.5c0.2,0.5,0.5,1,0.8,1.5l-0.5-1.5l0.7,1.2l-0.5-1.7l0.8,1.3l-0.6-1.7l0.8,1.3l-0.6-1.7
			l0.9,1.3l-0.6-1.6l0.9,1.1l-0.4-0.9L21.7,13.2z"/>
		<path class="st13" d="M20.2,43.3c0.5,1.2,1.2,2.3,2.3,3.1c-0.5-0.6-0.9-1.3-1.3-2c0.4,0.5,0.9,1,1.4,1.4c-0.5-0.8-1-1.6-1.4-2.5
			c0.3,0.5,0.7,1,1.2,1.4c-0.4-0.6-0.8-1.2-1-1.8l0.8,0.9c-0.4-0.7-0.7-1.4-0.9-2.2c-0.1-0.4-0.1-0.9-0.1-1.3
			c-0.2,0.6-0.2,1.2-0.2,1.8l-0.3-1c0,0.5,0,1,0.1,1.5l-0.4-0.8l0.2,1.3l-0.3-0.8l0.2,1.1L20,42.6L20.2,43.3z"/>
		<path class="st14" d="M19.7,16.1l-0.9-1.7l0.1,1.1l-0.4-0.8l0.3,1.5l-0.4-0.6c0,0.6,0.2,1.2,0.4,1.8v-0.7l0.4,0.6l-0.1-1.1
			l0.4,0.5l-0.2-0.9L19.7,16.1z"/>
		<circle class="st2" cx="26" cy="28.6" r="0.3"/>
		<circle class="st2" cx="38.3" cy="28.7" r="0.3"/>
		<path class="st13" d="M20.2,40.9c0-0.5,0-1.1,0-1.6c0-0.5,0-1-0.1-1.4l0.3,1v-1.1l0.1,0.8l0.1-1.2l0.4,1.2l0.1-0.8l0.2,1.7
			L21,38.9l-0.1,1l-0.2-0.8l-0.1,1.1l-0.2-0.6L20.2,40.9z"/>
		<path class="st14" d="M19.2,26.4l-1,0.2l0.5-0.4l-1.4-0.1l1-0.3l-1.1-0.2l0.8-0.3l-1-0.3l0.7-0.2L17,24.5l0.8-0.2l-1-0.6h0.8
			L16.8,23l0.8,0.1l-1.1-1l0.8,0.2l-1-1.1l1,0.5l-0.8-1.1l0.8,0.4l-1-1.3l1.2,0.8l-1.2-1.4c0.5,0.3,1,0.7,1.4,1.1l0.7,0.8L18,20.7
			l0.6,0.8L17.8,21l0.8,1l-0.7-0.3l0.8,0.8L18,22.3l0.7,0.8L18,22.9l0.7,0.7L18,23.5l0.8,0.5l-0.6,0.1l0.7,0.4l-0.6,0.1l0.6,0.2
			L18.3,25l0.7,0.1l-0.6,0.2l0.8,0.2l-0.5,0.3l0.6,0.1L19,26.1L19.2,26.4z"/>
		<polygon class="st14" points="18.4,20.1 16.5,18.5 17.4,18.7 16.3,17.7 17.4,18.2 16.4,16.8 17.4,17.4 16.5,16 17.7,17.1 
			16.8,15.3 17.8,16.6 17.8,15.8 18.7,17.9 18.1,17.4 18.7,18.4 17.9,17.8 18.6,18.9 17.8,18.3 18.5,19.2 17.8,18.8 		"/>
		<path class="st12" d="M32.6,47.6c0,0,0,1.2,0,1.7c0,0.5,0.1,1,0.2,1.4c-0.3-0.4-0.5-0.9-0.6-1.4c0,0.6,0,1.1,0.1,1.7
			c-0.3-0.5-0.5-1.1-0.5-1.7c-0.1,0.6-0.1,1.1-0.1,1.7c-0.3-0.5-0.4-1.1-0.4-1.6l-0.1,0.9c-0.2-0.4-0.3-0.9-0.3-1.4l-0.2,0.8
			c-0.1-0.4-0.2-0.9-0.1-1.4c0.2-0.7,0.5-1.8,0.5-1.8l-0.1,1.8l0.4-1.2l-0.1,1.7l0.4-1.5l-0.1,1.5l0.3-1.3v1.2L32.6,47.6z"/>
		<path class="st12" d="M25.4,47.2c-0.2-0.5-0.2-0.9-0.2-1.4c0.1-0.4,0.2-0.9,0.3-1.3v1.1l0.3-1c0,0-0.1,1.2,0,1.2l0.4-1l0.1,1
			l0.3-0.8c0,0,0,1,0,0.9c0.1-0.2,0.2-0.5,0.3-0.7v1.6l-0.3-0.5l-0.1,0.6l-0.2-0.6l-0.1,0.7l-0.2-0.8L25.9,47l-0.2-0.8v0.8l-0.2-0.7
			V47.2z"/>
		<path class="st12" d="M32.3,39.7c0,0.2,0,0.4-0.1,0.6c0,0.2-0.1,1-0.1,1l-0.1-1l-0.2,1.1l-0.2-1.1l-0.4,1.2v-0.9l-0.4,1.2v-1.1
			l-0.5,1.2v-1.1L29.7,42v-1.1l-0.5,1.4v-0.8l-0.5,1.2v-0.9l-0.5,1.1l0.1-1c0,0-0.4,1.2-0.6,2s-0.3,1-0.3,1l0.2-1.6L27,44.7v-1.2
			l-0.3,1.2v-1.2l-0.3,0.9v-1L26,44.3l0.1-0.7l-0.4,0.5c0.1-0.3,0.2-0.6,0.3-0.9c0.3-0.5,0.6-0.9,0.6-0.9v0.5l0.8-1.2v0.5l0.5-0.9
			v0.4l0.5-0.8v0.4l0.5-0.7l-0.1,0.5l0.4-0.6l-0.1,0.4l0.7-0.7l-0.1,0.4l0.4-0.6L30,40.4l0.6-0.5l-0.1,0.4l0.5-0.5l0,0.3l0.4-0.4
			v0.3l0.4-0.5V40l0.2-0.3l0,0.3L32.3,39.7z"/>
		<path class="st13" d="M25,47.9c0,0,0.3,1.4,0.5,1.9s0.3,1,0.3,1l0.1-0.6l0.4,1.2l0.1-0.6l0.4,0.9l0.1-1.1l0.4,1.1l0.1-0.9l0.4,0.8
			l0.1-0.9l0.4,1.1l0.1-1l0.4,1.1v-1.1l0.6,1.1l-0.1-1.1l0.7,1l-0.2-1.1l0.6,0.8c0,0-0.3-1-0.4-1.5s-0.2-1.3-0.2-1.3l-0.2,1.2
			l-0.2-1.2l-0.2,1.3l-0.3-1.3l-0.2,1.2l-0.2-1.3l-0.2,1.2L28,48.4l-0.3,1.3l-0.2-1.5l-0.3,1.4L26.9,48l-0.1,1.4l-0.2-1.6l-0.3,1.4
			L26,47.8l-0.2,1.3l-0.2-1.4l-0.1,0.8L25,47.9z"/>
		<polygon class="st13" points="22.7,47.1 24.5,49.8 23.9,48 24.5,48.5 23.9,47.1 24.5,47.5 23.4,45.6 23.6,46.7 23.1,45.9 
			23.5,47.2 22.8,46.3 23.4,47.6 		"/>
		<path class="st11" d="M47.1,8.8c-0.4-1-1-1.9-1.9-2.6c-0.6-0.6-1.4-0.9-2.2-0.9C42,4.5,40.8,4,39.6,3.6c-1-0.3-2-0.4-3-0.2
			c-1.4-0.6-2.9-1-4.4-1c-1.4-0.1-2.8,0.2-4,1c-1,0.2-1.9,0.4-2.9,0.8c-0.7,0.3-1.3,0.7-2,1.1c0,0-2.4,0.7-3.6,1.2
			c-1.3,0.4-2.3,1.4-2.8,2.6c-0.3,1.2-0.1,1.4-0.1,1.4s3.4-3.4,5.1-4.1c2.1-1,4.2-1.7,6.5-2.2c3.2-0.6,6.3-0.8,8.4,0s4.1,0.5,6.4,2
			s3.2,1.8,3.4,2.8c0.2,0.7,0.5,1.3,1.1,1.7L47.1,8.8z"/>
	</g>
</g>
</svg>
