<?xml version="1.0" encoding="utf-8"?>
<!-- Generator: Adobe Illustrator 21.1.0, SVG Export Plug-In . SVG Version: 6.00 Build 0)  -->
<svg version="1.1" id="Layer_1" xmlns="http://www.w3.org/2000/svg" xmlns:xlink="http://www.w3.org/1999/xlink" x="0px" y="0px"
	 viewBox="0 0 65 65" style="enable-background:new 0 0 65 65;" xml:space="preserve">
<style type="text/css">
	.st0{fill:#D2F058;}
	.st1{clip-path:url(#SVGID_2_);fill:#FFD898;}
	.st2{clip-path:url(#SVGID_2_);fill:#FFC64C;}
	.st3{clip-path:url(#SVGID_2_);fill:#C79089;}
	.st4{clip-path:url(#SVGID_2_);fill:#AC8AAD;}
	.st5{clip-path:url(#SVGID_2_);fill:#9C6BBE;}
	.st6{clip-path:url(#SVGID_2_);fill:#7553B8;}
	.st7{clip-path:url(#SVGID_2_);fill:#CFB8BD;}
	.st8{clip-path:url(#SVGID_2_);fill:#FFB34C;}
	.st9{clip-path:url(#SVGID_2_);fill:#FF984C;}
	.st10{clip-path:url(#SVGID_2_);fill:#D08E26;}
	.st11{clip-path:url(#SVGID_2_);fill:#DC7B3C;}
	.st12{clip-path:url(#SVGID_2_);fill:#484C4B;}
	.st13{clip-path:url(#SVGID_2_);fill:#A2AFBE;}
</style>
<circle class="st0" cx="32.4" cy="32.5" r="27.6"/>
<title>ESPN_AVG_Thanos</title>
<g id="blacks">
	<defs>
		<path id="SVGID_1_" d="M56.9,19.9h2.6V0.6H3.2v19.3h4.6c-2,3.8-3.1,8.1-3.1,12.7c0,15.2,12.4,27.6,27.6,27.6
			C47.6,60.1,60,47.8,60,32.5C60,28,58.9,23.7,56.9,19.9z"/>
	</defs>
	<clipPath id="SVGID_2_">
		<use xlink:href="#SVGID_1_"  style="overflow:visible;"/>
	</clipPath>
	<path class="st1" d="M17.6,40.5L16.9,40c-0.4,0.2-0.8,0.4-1.2,0.7c-0.2,0.3-2,3.5-2,3.5l-1.3,0.5l0.1,1.2L8,47.6
		c1.2,1.6,2.5,3,3.9,4.4l5.6-1.6L17.6,40.5z"/>
	<path class="st2" d="M28.4,55c-1.4-0.8-3-1.3-4.6-1.7c-2.2-0.6-4.3-1.5-6.2-2.7v-0.2L11.9,52c4.6,4.3,10.4,7,16.6,7.8L28.4,55z"/>
	<path class="st3" d="M36.7,54.7c0.3-0.3,7.9-1.8,8.8-2.5c0.8-0.6,1.6-1.2,2.2-2c0.1-0.3-0.4-9.1-0.4-9.1l-1.9-1.4l-26.4,2.6
		c-0.1-0.8-0.4-1.6-0.9-2.2c-0.2-0.1-0.6,0.9-0.6,0.9l0.1,9.7c1.4,0.9,3,1.6,4.6,2.2c2.1,0.6,6.1,1.6,6.2,2.1
		c0.2,1.6,0.2,3.2,0.2,4.8c1.3,0.2,2.6,0.3,3.9,0.3c1.3,0,2.7-0.1,4-0.2C36.4,58.6,36.4,54.9,36.7,54.7z"/>
	<path class="st3" d="M32.5,2.8c-2.1-0.1-4.2,0.4-6.1,1.2c-2.4,1.1-6.2,3.4-6.6,5.3c-0.5,2-0.8,4-0.9,6.1c0,1.3,0.4,5.9,0.4,5.9
		l-0.1,1c0,0-0.9-0.5-1-0.5c-0.1,0-0.9,0.6-0.9,0.6v2.2c-0.2,1-0.2,2,0,3c0.3,1.1-0.2,2.2,0,2.8c0.2,0.6,1.1,0.8,1.1,0.8
		s0.1,4.6,0.1,6c0.1,2.1,0.7,4.2,1.9,6c1.3,1.7,3.2,3.9,3.2,3.9s0.6,3,1.9,3.5c1.3,0.4,1.6,1.1,2.6,1.1c1.1,0,0.8,0.8,2.5,0.6
		c0.6-0.1,1.2,0,1.7,0.2c0.4,0.1,0.7,0.1,1.1,0c0.3-0.1,0.4-0.3,1.6-0.2c1.8,0.2,1.5-0.6,2.6-0.6s1.4-0.7,2.6-1.1
		c1.3-0.4,1.9-3.5,1.9-3.5s1.9-2.2,3.2-3.9c1.2-1.8,1.8-3.8,1.9-6c0-1.4,0.1-6,0.1-6s0.9-0.2,1.1-0.8s-0.3-1.8,0-2.8
		c0.2-1,0.2-2,0-3v-2.2c0,0-1-0.6-1.1-0.6c-0.1,0-1,0.5-1,0.5l-0.1-0.9c0,0,0.4-4.6,0.5-5.9c-0.1-2.1-0.4-4.1-0.8-6.1
		c-0.4-1.9-4.2-4.2-6.6-5.3c-1.9-0.9-4.1-1.3-6.2-1.2H32.5z"/>
	<path class="st4" d="M22.4,19.5l-0.1,0.1c0.2,0.3,0.4,0.6,0.7,0.8c0.2,0.1-0.4,0.1-0.4,0.1c0.2,0.2,0.4,0.3,0.6,0.4l0.3,0.1h-0.8
		c0.2,0.1,0.4,0.1,0.7,0.2c0.1,0,0.1,0,0.2,0c-0.3,0.2-0.6,0.3-1,0.4c0.3,0.1,0.5,0.1,0.8,0c0.3,0-0.3,0.3-0.3,0.3
		c0.4,0.2,0.9,0.5,1.3,0.6c0.8,0.1,1.5,0.1,2.3,0c0.4-0.2,0.9,0.2,0.9,0.2c0.3-0.2,0.6-0.4,0.9-0.5c0.3,0,1.7,0,2.1-0.1
		c0.2-0.1,0.5-0.2,0.6-0.3c-0.1-0.4-0.1-0.7,0-1.1c0.1-0.4,0.5-0.6,0.4-0.8c-0.1-0.2-0.6-0.2-1.2-0.2c-0.7-0.1-1.3-0.2-1.9-0.5
		c-1.5-0.4-2.6-1.2-4-1.3C23.7,17.9,22.7,18.5,22.4,19.5z"/>
	<path class="st4" d="M32.2,27.9c0,0,0.1-0.2,0.2-0.2c0.1,0,0.5,0.3,0.5,0.3c-0.1,1-0.2,1.9-0.2,2.9c0.1,0.7,0.8,1.1,0.7,1.2
		s-0.9,0.1-1,0c-0.1-0.1-0.8-0.6-0.9-0.9C31.6,30.1,31.9,29,32.2,27.9z"/>
	<path class="st4" d="M32.8,35.8v7c0,0,0,3,0.1,3.6c0.1,0.7,0.2,5.5,0.1,5.8c0,0.3,0.6,0.7,0.6,0.7c0.7-0.2,1.4-0.3,2.2-0.4
		c1.2,0,2.4-0.2,3.5-0.6c0.9-0.4,2.2-1.3,2.4-2c0.2-0.9,0.3-1.8,0.2-2.7c-0.1-0.5-1.1-6-1.1-6.1c0-0.8,0-1.6,0-2.4
		c0.1-0.8,0-1.6-0.2-2.3c-0.3-0.7-2.2-1.5-3.1-1.5C35.9,35.1,34.3,35.4,32.8,35.8z"/>
	<path class="st5" d="M32.8,38.4c0,0,0.4,1.6,0.7,4.1c0.2,2.1,0.3,4.2,0.3,6.4c-0.1,1,0.1,3.6-0.3,3.9C33.2,53,33,52.9,33,52.9
		l-0.1-3.5l-0.2-5.1v-4.1L32.8,38.4z"/>
	<path class="st4" d="M28.7,52c-0.4-1.5-0.6-3-0.6-4.6c0.2-1.8,1-4.4,1.1-5.1c-0.1-1.1-0.2-2.3-0.5-3.4v2.5l-1.1,3.9
		c-0.2,1.2-0.3,2.5-0.2,3.7c0.3,1.7,0.5,2.8,0.5,2.8L28.7,52z"/>
	<path class="st4" d="M31.3,52.4c0,0-0.7-5.1-0.7-7.1c0-2-0.1-5.9-0.1-6c0-0.2-0.2,0.7-0.2,0.7s-0.2,4.5-0.3,4.7
		c0,0.2,0,4.4,0.2,5.4c0.2,1,0.1,2.6,0.1,2.6L31.3,52.4z"/>
	<path class="st4" d="M25.1,37.3c0,0.4,0,0.9,0.1,1.3c0.2,1,0.3,2,0.2,3.1c-0.1,1.2-1,4.4-0.9,5.4c0.1,0.9,0.1,2.5,0.2,3
		c0.1,0.5-0.7-0.1-0.9-0.9c-0.1-1-0.1-1.9,0-2.9c0,0,0.9-3.2,1-4.3c0.1-0.9,0.2-1.9,0.1-2.8C24.8,38.6,24.9,37.9,25.1,37.3z"/>
	<path class="st4" d="M26.5,51.2c-0.4-1.3-0.7-2.6-0.8-4c0-1.6,1.2-3.7,1.4-5c0-1.3-0.1-2.6-0.4-3.9c-0.1-0.7-0.2-1.2-0.2-1.2
		l-0.1,2.7l0.1,2.2l-0.8,2.2c-0.6,1.3-0.9,2.8-0.8,4.2c0.1,1.2,0.5,2.3,1.2,3.3L26.5,51.2z"/>
	<path class="st5" d="M30.3,21.6c0.4-0.1,0.4-0.7,0.4-1.1c0-0.3-0.2-0.6-0.5-0.7c-0.2-0.1-0.4-0.1-0.5-0.2c-0.3-0.1-0.7-0.3-1-0.4
		c-1.3-0.6-2.7-1-4.2-1.1c-1-0.1-1.6,0.3-1.6,0.7c0.1-0.1,0.3-0.1,0.4,0c0.3,0.3,0.5,0.6,0.7,1c0.1,0.3-0.2,1-0.2,1.3
		c0.1,0.3,0.3,0.6,0.6,0.9c0,0,0.1,0.2-0.1,0.3c-0.2,0.2,0.2,0.4,0.4,0.5c0.3,0.1,0.6,0.1,0.9,0.2L25,23.3c0.4,0.3,0.9,0.4,1.4,0.2
		c0.8-0.4,1.5-0.8,2.1-1.4C28.8,22.1,29.9,21.8,30.3,21.6z"/>
	<path class="st4" d="M32.1,27.1c0.4,0.1,0.9-0.1,1.1-0.5c0.4-0.7,0.4-1.6,0.1-2.4c-0.1-0.7,0-1.5,0.2-2.2c0-0.6,0-1.2-0.1-1.8
		c-0.1-0.5-0.2-1-0.3-1.6c0-0.5,0.1-1.1,0.2-1.6c0,0.4,0,0.7,0.2,1.1c0.3,0.5,0.9,0.7,1.5,0.5c0.5-0.2,2.7-1.4,3.3-1.7
		c0.5-0.3,1.4-3.8,1.5-6c0.1-2.2,0.3-3.3-0.4-4.6c-0.6-1.3-0.8-1.6-1-1.8c1.1,0.2,2.1,1,2.7,2c0.8,1.6,0,9.8-0.2,10.7
		c-0.2,0.8-3.5,2.3-4.5,3.1c-1.1,0.9-1.7,2.2-1.6,3.7c0.1,1.7,0.2,2.5-0.6,3.3c-0.5,0.5-1.4,0.5-1.9,0
		C32.3,27.2,32.2,27.2,32.1,27.1z"/>
	<path class="st5" d="M32.8,2.6c2.5-0.2,4.9,0.2,7.2,1.2c2.4,1.1,4.4,2.8,6,4.8c1.1,1.5,1.1,6.1,1.1,6.1l-0.2,6.7
		c0,0-0.1,2.1-0.1,2.3l0.7,6c0,0-0.1,4-0.1,6.1s0.3,3.1-0.1,4c-0.6,1.4-1.3,2.8-2.2,4c-1,1.2-1.9,2.4-2.7,3.7l-0.2,0.2
		c0,0-1-5.1-1.3-6c-0.2-1.1-0.2-2.2-0.1-3.3c-0.1-0.7-0.2-1.3-0.5-2c-0.2-0.5,0-0.6-1.5-1.1c-1.2-0.2-2.4-0.1-3.5,0.3
		C34.5,36,33.6,36,32.7,36v-1.5c0-0.1,0-0.2,0.1-0.4c0.5-0.2,1-0.4,1.5-0.6c0.5-0.1,1-0.3,1.3-0.7c0.3-0.3,0.5-0.5,0.3-0.6
		c-0.4-0.3-0.9-0.4-1.4-0.5c-0.2,0.1-0.1-0.3-0.1-0.3s-0.6-2.3-0.7-2.5c-0.1-0.2-0.4-0.5-0.9-0.7c-0.4-0.3-0.8-0.7-1.1-1.1
		c0-0.1,0.9,0.2,1.3,0.1c0.6-0.1,1.1-0.6,1.3-1.2c0.1-0.6,0-1.2-0.3-1.8c-0.3-0.3-0.4-0.9-0.1-1.2c0.4-0.5,0.4-1.1,0.2-1.6
		c-0.2-0.5-0.2-1.1,0-1.6c0.1-0.2,0.4-0.2,0.9-0.1c1-0.1,1.9-0.3,2.8-0.7c0.5-0.2,1-0.5,1.4-0.9l0.5-1.7c0,0,0.7-3,0.9-3.8
		c0.3-1.3,0.4-2.6,0.2-3.9c-0.4-1.9-1.6-3.5-3.3-4.4C36.2,3.4,34.5,2.9,32.8,2.6z"/>
	<path class="st6" d="M42.7,45.5c0,0,1.1-7.8,1.2-8.2c0.1-0.4,0.7-4,1-5.6c0.5-2.4,0.5-4.9,0-7.3c-0.6-1.8-0.3-2.7,0.1-5.7
		s0.8-6.1,1-7.7l0.2-1.6c0,0,0.6,4.4,0.8,5.5c0.2,1.1,0.1,6.8-0.2,6.7c-0.3,0-0.1,2,0.2,3.3c0.2,1.3,0.7,10.1,0.7,10.1
		c0,1.9-0.2,3.9-0.6,5.8c-1.1,1.9-2.4,3.8-3.8,5.6c-0.2,0.3-0.5,0.6-0.8,0.9L42.7,45.5z"/>
	<path class="st6" d="M36,21.4c0,0,0.4-0.4,0.7-0.6s0.6-0.2,1-0.3c0.4-0.1,0.4-0.5,0.5-0.8s0.6-0.8,0.6-1c0-0.2,1.9-0.7,2.4-0.7
		c0.4-0.1,0.9,0.1,1.3,0.3c0.3,0.4,0.6,0.8,0.8,1.3c0,0.4-0.2,0.8-0.5,1.1c-0.4,0.2-0.8,0.2-0.9,0.4c-0.1,0.1-0.1,0.3,0.1,0.4
		c0,0,0.1,0,0.1,0c0.1,0,0.7,0.1,0.9,0.1s-0.5,0.6-0.7,0.7s-0.8,0.2-1.2,0.4c-0.4,0.2-0.8,0.3-1.3,0.2c-0.4-0.1-0.8-0.2-1.2-0.4
		c-0.1-0.1-0.3-0.2-0.4-0.2l0.7,0.7c-0.3,0-0.7-0.2-0.9-0.4C37.4,22.3,37,22,37,22l-0.4-0.6L36,21.4z"/>
	<path class="st6" d="M36.3,32.1c0.6-1.1,1.3-2.1,2.1-3.1c0.6-0.4,1.2-1,1.3-1.3c0.1-0.4,0.3-1.1,0.3-1.2c0,0.6-0.1,1.1-0.2,1.7
		c-0.2,0.5-0.6,1-1.1,1.4c-0.7,1-1.4,2-2,3.1C36.8,32.7,36.3,32.1,36.3,32.1z"/>
	<path class="st6" d="M38.1,33.4c0,0,1.4-2.2,1.8-2.9s0.9-0.9,1.1-1.5c0.1-0.6,0.3-1.1,0.7-1.5c0.3-0.4,0.6-0.9,0.9-1.4
		c-0.2,0.5-0.4,1-0.6,1.4c-0.3,0.6-0.2,1.5-0.5,2.1s-1.2,1.4-1.7,2.2c-0.4,0.7-0.9,1.4-1.4,2C38.4,33.8,37.9,33.6,38.1,33.4z"/>
	<path class="st6" d="M39.5,34.7c0,0,1.1-1.4,1.4-1.9c0.2-0.4,0.5-0.8,0.8-1.1c0.3-0.3,0.8-0.7,0.9-1.1c0.1-0.3,0.2-0.6,0.3-1
		c0,0.5-0.1,0.9-0.3,1.4c-0.2,0.5-0.5,1-0.8,1.5c-0.4,0.3-1.8,2.7-2,2.8S39.3,34.9,39.5,34.7z"/>
	<path class="st6" d="M40.2,34.2c0.2-0.1,0.4-0.3,0.6-0.4c0.3-0.4,0.9-0.1,1,0.2c0.1,0.3,0.3,0,0.1-0.7c-0.1-0.4-0.2-0.7-0.5-0.9
		L40.2,34.2z"/>
	<path class="st6" d="M41.9,46.9c0,0-0.6-3.5-0.8-3.9c-0.2-0.8-0.3-1.7-0.4-2.5c0-0.4,0.6,1,0.7,1.3c0.1,0.6,0.4,1.2,0.7,1.7
		c0.4,0.5,0.6,1,0.6,1.6c0,0.7-0.1,1.5-0.3,2.2C42.2,47.9,41.9,46.9,41.9,46.9z"/>
	<path class="st6" d="M23.5,18.2c0.3-0.1,0.6-0.2,0.9-0.1c0.2,0,0.4,0.2,0.5,0.3c0.2,0.3,0.4,0.5,0.5,0.8c-0.3,0.2-0.5,0.4-0.8,0.6
		c-0.3,0.2-0.5,0.5-0.5,0.9c0,0.1-0.1,0.7-0.1,0.7c0.2,0,0.4,0.1,0.5,0.1c0.4,0.2,0.8,0.3,1.2,0.4c0.7,0.1,0.8,0.2,0.8,0.3
		c0,0.1-0.1,0.4-0.2,0.5c-0.1,0.1,0.7-0.3,0.9-0.3c0.2-0.1,0.5,0,0.4,0.2c-0.1,0.2,0,0.2,0.2,0c0.3-0.1,0.5-0.3,0.7-0.5
		c0.1-0.2,0.1-0.5,0.2-0.5c0.1,0,0.7,0,0.8-0.1c0.1,0,0.1-0.1,0.1-0.2c0,0,0-0.4-0.1-0.5c-0.3-0.2-0.5-0.4-0.8-0.5
		c-0.4-0.3-0.5-0.8-0.3-0.9c0.2,0,0.2,0.1,0.5,0.1c-0.7-0.5-1.6-1-2.5-1.2c-0.7-0.2-1.4-0.3-2.1-0.4C23.8,17.8,23.6,18,23.5,18.2z"
		/>
	<path class="st7" d="M22.9,46.6c-0.1-0.9-0.2-1.9-0.4-2.8c-0.3-0.8-2.1-3.9-2.6-7c-0.5-2.8-0.5-5.6,0-8.4c0.3-2,0.6-4,0.7-6
		c-0.3-2.3-0.5-4.6-0.5-7c0.2-2.3,0.1-5.2,1.4-7.2c0.8-1.2,1.7-2.4,2.6-3.5c-1.5,1-2.9,2.2-4.1,3.5c-0.7,1.3-1.2,2.8-1.5,4.2
		c-0.1,2.3-0.1,4.5,0,6.8c0.2,1.2,0.1,2.2-0.1,2.2c-0.5,0.2-0.9,0.6-1.2,1C17,24.2,16.9,26,17,27.8c0.1,1,0,3.1,0,3.1l0.9,0.9v4.8
		c0,0,0.1,4,1.1,5.6c1.1,1.5,2.3,3,3.6,4.4L22.9,46.6z"/>
	<path class="st7" d="M23.7,47.3l0.9-4.1c0,0,0.4-2.2,0.5-3c0-0.6-0.1-1.1-0.2-1.7l0.2-1l0.1-0.6c-0.2,0.5-0.5,1-0.6,1.6
		c-0.1,0.5,0.1,2.2-0.1,3.1s-1,2.8-1.2,3.5c-0.2,0.8-0.2,1.6,0,2.4C23.3,47.7,23.7,47.3,23.7,47.3z"/>
	<path class="st7" d="M25.5,50.7c-0.3-1-0.4-2.1-0.5-3.2c0-1.1,0.2-2.2,0.7-3.1c0.2-0.5,0.4-0.9,0.5-1.4c0.1-0.5,0.1-1.3,0.2-1.5
		c0-0.2,0-2.5,0-2.8c0-0.4-0.2-1.4-0.2-1.4c-0.1,0.7-0.2,1.4-0.3,2.1c0,0.9-0.1,3.1-0.2,3.4c-0.5,1.2-1,2.4-1.3,3.6
		c-0.3,1.3-0.2,2.7,0.1,4.1c0.2,0.3,0.4,0.6,0.7,0.8L25.5,50.7z"/>
	<path class="st7" d="M27.8,51.8c-0.2-1.4-0.4-2.7-0.4-4.1c0.1-1.1,0.3-2.2,0.6-3.3c0.3-0.8,0.5-1.7,0.7-2.6c-0.1-0.4-0.1-2-0.1-2
		l-0.4-3.1c0,0-0.1,1.2-0.1,2.1c0,0.9,0.1,2.9,0.1,3.1s-1.5,4.2-1.5,6.3c0,1.2,0.2,2.4,0.7,3.5C27.5,52.1,27.8,51.8,27.8,51.8z"/>
	<path class="st7" d="M30.6,52.3c0,0-0.3-5.7-0.3-6v-1.9c0,0-0.1-1.9,0-3.3c0.1-1,0.1-2,0-3l-0.2-0.6c0,0-0.1,4.4-0.2,5
		c-0.2,1.9-0.3,3.9-0.2,5.8c0.1,1.2,0.1,2.4,0.1,3.7c0,0.3-0.3,0.3-0.3,0.3c0,0.2,0.2,0.4,0.4,0.5C30.2,52.8,30.6,52.3,30.6,52.3z"
		/>
	<path class="st7" d="M32.6,52.8c0.2-0.3,0.3-0.7,0.3-1.1c-0.1-0.6,0-3.5,0-3.5s-0.2-9-0.2-9.2c0-0.2-0.1-0.8-0.1-0.8
		s-0.4,4.1-0.3,5.4c0.1,1.2-0.3,4.2-0.3,5.2c0,1,0.2,2.6,0.2,3c0,0.4-0.3,0.8-0.2,1.1C32.1,53.1,32.6,52.8,32.6,52.8z"/>
	<path class="st5" d="M40.4,50.9c0.7-0.4,1.1-1.1,1.2-1.9c0.2-0.7,0.3-1.5,0.2-2.2c-0.3-1.5-0.7-3-1.3-4.5c-0.4-1-0.7-2-0.8-3.1
		c-0.1-0.9-0.3-2.1-0.3-2.1s-0.3,3.3-0.2,3.8c0.1,0.5,0.2,1.9,0.4,2.5c0.5,1.1,0.9,2.3,1,3.6c0,1-0.1,2.1-0.4,3.1
		C40.1,50.7,40.4,50.9,40.4,50.9z"/>
	<path class="st5" d="M37.5,37.9c0,0,0.1,2.1,0.1,2.9c0.4,1.7,1,3.3,1.6,4.9c0.4,1.4,0.4,2.9,0.1,4.3c-0.3,0.9-0.4,1.6-0.8,1.8
		c-0.2,0.1-0.4,0.2-0.6,0.2c0.3-1.5,0.4-3,0.4-4.5c-0.1-1.1-0.3-2.1-0.7-3.1c-0.3-0.8-0.5-1.7-0.6-2.5l0.3-3.3L37.5,37.9z"/>
	<path class="st5" d="M35.5,38.8c0,0,0.2,2.5,0.4,3.6c0.4,2.3,0.6,4.6,0.6,6.8c0,2.8-0.4,3.3-0.4,3.3l-0.9-0.1l0.2-5.9v-2.2l0.1-2.6
		L35.5,38.8z"/>
	<path class="st5" d="M27.3,34.6c0.6-0.1,1.3-0.2,1.9-0.4c0.7-0.3,1.6-0.3,2.3-0.1c1,0.1,1.9,0.1,2.9,0c0.8-0.1,1.6-0.2,2.4-0.6
		v-0.9L35,31.9c-0.7,0.2-1.3,0.3-2,0.4c-0.4-0.1-0.9-0.2-1.3-0.4c-0.2-0.1-0.5-0.1-0.8,0c-0.2,0.1-1.4,0.7-1.4,0.7L28,33.7h-0.3
		l-0.4,0.4L27.3,34.6z"/>
	<path class="st6" d="M28,33.6c0,0-0.1,0.2,0.3,0c1-0.3,2-0.5,3.1-0.5c0.5,0.1,1,0.2,1.5,0.1c0.6,0,0.2-1,0.1-1
		c0.5-0.1,0.9-0.2,1.4-0.3c0.4-0.1,0.7-0.1,1.1,0l1.8,1l1.9,1.7L38,34.5c-1.1-0.3-2.3-0.5-3.4-0.6c-0.7,0.2-1.4,0.3-2.2,0.4
		c-0.6-0.2-1.3-0.3-1.9-0.3c-0.7,0.1-3.1,0.7-3.3,0.7S27.2,33.6,28,33.6z"/>
	<path class="st7" d="M32.1,20.1c0,0-0.2,0.8-0.4,1.5c0,0.7,0,1.4,0.2,2.1c-0.1,0.7-0.2,1.4-0.4,2c-0.1,0.3-0.4-0.3-0.2-0.9
		c0.2-0.6,0.7-1.1,0.3-1.8c-0.3-0.7-0.4-1.4-0.3-2.2C31.3,20.5,32.1,20.1,32.1,20.1z"/>
	<path class="st4" d="M22.7,25.5c0,0,0.9,1.4,1.2,1.8c0.2,0.4,0.9,2.2,1.1,2.4c0.2,0.2,0.5,0.5,0.7,0.8l2.1,3.1l0.5-0.1l0.2-0.2
		c-0.7-1.1-1.4-2.2-2.2-3.3c-0.6-0.4-1-0.8-1.4-1.4C24.7,28,22.9,25.4,22.7,25.5z"/>
	<path class="st4" d="M26.2,27.1c0.2,0.5,0.5,0.9,0.9,1.2c0.7,0.7,1.4,1.5,1.8,2.4c0.2,0.6,0.6,1.1,1,1.6c0.2-0.1,0.5-0.2,0.7-0.4
		c-0.4-0.7-0.8-1.4-1.4-2.1c-0.5-0.5-0.7-1.2-0.7-1.9l0.3-1.4l-1.1,1.4c0,0-0.9-1-1.3-1.6c-0.2-0.2-0.3-0.4-0.4-0.7L26.2,27.1z"/>
	<path class="st4" d="M22.4,29.7c0,0,1,1.3,1.5,1.5c0.5,0.2,1,0.1,1.1,0.2c0.1,0.1,0.8-0.8,0.8-0.8s-0.3,1.3-0.2,1.5
		c0.1,0.2,1.6,2.2,1.5,2.3s-0.5,0.5-0.6,0.5c-0.1-0.1-1.1-1.1-1.2-1.3c-0.1-0.2-0.6-0.1-0.9,0.3c-0.3,0.6-0.6,1.2-0.8,1.8
		c0-0.8,0.1-1.6,0.3-2.3c0.1-0.4,0.3-0.9,0.4-1.3c-0.4-0.3-0.8-0.7-1.2-1C22.7,30.6,22.5,30.1,22.4,29.7z"/>
	<path class="st4" d="M27.2,31.4c-0.1-0.5-0.1-0.9,0-1.4c0.2-0.4,0.5-0.9,0.5-1.1c0-0.2-0.4-0.1-0.4-0.1l-1.1,1.3L27.2,31.4z"/>
	<path class="st4" d="M21.2,33.9c0.4,0.8,0.7,1.6,1,2.5c0.3,1.3,0.9,3.2,0.9,3.5c0,0.3,0.2-3.4,0.3-3.8c0.2,1.2,0.4,2.5,0.3,3.7
		c-0.1,0.5-0.3,2.4-0.5,3.4c-0.2,1-0.5,0.7-0.5,0.7L21.2,33.9z"/>
	<path class="st6" d="M47.2,21c0.6,0.3,1.1,0.6,1.5,1.1c0.1,0.4,0.1,4.9,0.1,5.9c0,1-0.1,3-0.1,3l-1,0.6L47.3,29
		c0,0-0.7-5.7-0.8-5.9C46.7,22.4,46.9,21.7,47.2,21z"/>
	<path class="st5" d="M22.1,46.3c-0.4-0.1-0.8-0.2-1.2-0.2c-0.5,0.1-1,0.4-1.4,0.8c-0.2,1.4-0.4,2.8-0.4,4.1c0,0-0.1,0.5-0.2,0.5
		c-0.1-0.1-1.2-0.6-1.3-1.4c-0.2-3.1-0.2-6.2-0.1-9.3c0.3-0.5,0.5-0.9,0.6-0.7s0.2,0.1,0.3,0.4c0.1,0.3,1.6,3.1,1.8,3.4L22.1,46.3z"
		/>
	<path class="st5" d="M47.2,41.7c0,0,0.3,6.9,0.2,7.6c-0.1,0.5-0.2,1.1-0.4,1.6c-1.6,0.9-3.3,1.7-5,2.4c-1.3,0.4-4.9,1.3-5.2,1.4
		c-0.3,0.2-0.5,0.4-0.7,0.6c0,0.6,0,1.2-0.1,1.8c-1,0.2-2,0-2.8-0.4c-0.7-0.5-1.7-0.5-2.2-0.8c-0.6-0.9-1.1-1.8-1.4-2.8
		c0.9-0.1,1.8-0.1,2.6-0.1c1.3,0.1,1.7-0.2,2.8-0.2c1-0.1,1.9-0.3,2.8-0.6c0.9-0.2,1.8-0.6,2.7-1.1l1.5-1.5l0.8-2.4l2.1-2.7
		L47.2,41.7z"/>
	<path class="st6" d="M37.4,52.7c0,0,0.5,0.1,1.2,0.3c0.6,0.1,1.1,0.3,1.6,0.6c0,0,5-1.3,5.9-2c0.5-0.3,0.9-0.8,1.2-1.2
		c0,0,0-8-0.1-8.3c-0.1-0.3-0.4,0-0.9,0.5c-0.5,0.5-3.3,3.9-3.6,4.5s-0.7,2.4-1.2,3c-0.7,0.6-1.4,1.2-2.1,1.7l-1.9,0.5L37.4,52.7z"
		/>
	<path class="st8" d="M41.1,53.4c2.2-0.6,4.3-1.5,6.2-2.7V40.5l0.8-0.5c0.4,0.2,0.8,0.4,1.2,0.7c0.2,0.3,2,3.5,2,3.5l1.3,0.5
		l-0.1,1.2l4.4,1.7c-4.9,6.7-12.3,11.2-20.5,12.2l0.1-4.8C38,54.3,39.5,53.7,41.1,53.4z"/>
	<path class="st9" d="M16.1,40.4l-0.5,1.4c0,0,0.4,8.7,0.4,9c1,1.4,2.4,2.4,4.1,2.9c2.2,0.7,8.2,2.2,8.2,2.2v-1.3
		c-2.8-0.7-5.5-1.5-8.2-2.5c-0.9-0.6-1.7-1.2-2.5-2c0,0-0.1-9.7-0.1-9.8s-0.8-0.3-0.8-0.3L16.1,40.4z"/>
	<path class="st10" d="M47.3,40.5l0.8-0.5c0.4,0.2,0.8,0.4,1.2,0.7c0.2,0.3,2,3.5,2,3.5l1.3,0.5l-0.1,1.2l4.4,1.7
		c-1.1,1.6-2.5,3-3.9,4.4l-5.7-1.5V40.5z"/>
	<path class="st11" d="M48.9,40.4l0.5,1.4c0,0-0.4,8.7-0.4,9c-1,1.4-2.4,2.4-4.1,2.9c-2.2,0.7-8.2,2.2-8.2,2.2v-1.3
		c2.8-0.7,5.5-1.5,8.2-2.5c0.9-0.6,1.7-1.2,2.5-2c0,0,0.1-9.7,0.1-9.8c0-0.1,0.8-0.3,0.8-0.3L48.9,40.4z"/>
	<path class="st12" d="M33.1,2.8c2.1-0.1,4.2,0.4,6.1,1.2c2.4,1.1,6.2,3.4,6.6,5.3c0.5,2,0.7,4,0.8,6.1c0,1.3-0.5,5.9-0.5,5.9l0.1,1
		c0,0,0.9-0.5,1-0.5l0,0c0.3,0.2,0.6,0.4,0.9,0.6v2.2c0.2,1,0.2,2,0,3c-0.3,1.1,0.2,2.2,0,2.8c-0.2,0.6-1.1,0.8-1.1,0.8
		s-0.1,4.6-0.1,6c-0.1,2.1-0.7,4.2-1.9,6c-1.3,1.7-3.2,3.9-3.2,3.9s-0.6,3-1.9,3.5c-1.3,0.4-1.5,1.1-2.6,1.1s-0.8,0.6-2.1,0.6h-0.5
		c-0.2,0-0.5,0-0.7,0c-0.3,0-0.7,0.1-0.9,0.2c-0.2,0.1-0.4,0.1-0.6,0.1c-0.2,0-0.3,0-0.5-0.1c-0.3-0.1-0.7-0.2-1.1-0.2h-0.6H30
		c-1.2,0-1.1-0.6-2.1-0.6c-1,0-1.4-0.7-2.6-1.1C24,50.1,23.4,47,23.4,47s-1.9-2.2-3.2-3.9c-1.2-1.8-1.8-3.8-1.9-6c0-1.4-0.1-6-0.1-6
		s-0.9-0.2-1.1-0.8c-0.2-0.6,0.3-1.8,0-2.8c-0.2-1-0.2-2,0-3v-2.2c0.3-0.2,0.6-0.4,0.9-0.6l0,0c0.1,0,1,0.5,1,0.5l0.1-1
		c0,0-0.2-4.7-0.2-5.9c0.1-2.1,0.4-4.1,0.8-6.1C20.2,7.4,24,5.1,26.3,4c1.9-0.9,4-1.3,6.2-1.2H33.1 M33.1,1.7h-0.7
		C30.2,1.6,28,2.1,25.9,3c-2,0.9-6.6,3.4-7.2,6.1c-0.5,2.1-0.8,4.2-0.9,6.4c0,1,0.3,3.9,0.4,5.2c-0.3,0-0.6,0.1-1.5,0.8l-0.4,0.3
		v0.5v2.2c-0.2,1.1-0.2,2.3,0,3.4c0.1,0.4,0.1,0.9,0,1.3c-0.1,0.5-0.1,1,0,1.5c0.2,0.5,0.5,0.9,1,1.2c0,1.3,0.1,4.3,0.1,5.3
		c0,2.4,0.8,4.7,2.1,6.6c1.1,1.4,2.5,3.1,3,3.7c0.2,1.1,0.9,3.5,2.5,4c0.4,0.1,0.7,0.3,1,0.5c0.6,0.4,1.3,0.7,2,0.7
		c0.1,0,0.1,0,0.3,0.1c0.5,0.4,1.1,0.5,1.7,0.5h0.6h0.4c0.2,0,0.4,0,0.6,0.1l0.2,0.1c0.3,0.1,0.6,0.1,0.8,0.1c0.3,0,0.7,0,1-0.2
		l0.2-0.1c0.1,0,0.1,0,0.3,0h0.6h0.6c0.6,0,1.2-0.2,1.8-0.5c0.2-0.1,0.2-0.1,0.3-0.1c0.7,0,1.4-0.3,2-0.7c0.3-0.2,0.6-0.4,1-0.5
		c1.6-0.5,2.3-2.9,2.5-4c0.5-0.6,2-2.4,3-3.7c1.3-2,2.1-4.3,2.1-6.6c0-1,0.1-4,0.1-5.3c0.5-0.3,0.8-0.7,1-1.2c0.1-0.5,0.1-1,0-1.5
		c-0.1-0.4-0.1-0.9,0-1.3c0.2-1.1,0.2-2.3,0-3.4v-2.2v-0.5l-0.4-0.3c-0.9-0.8-1.3-0.9-1.6-0.9c0.1-1.4,0.4-4.2,0.4-5.2
		c-0.1-2.1-0.4-4.3-0.8-6.4C46.3,6.5,41.7,4,39.7,3C37.6,2.1,35.4,1.6,33.1,1.7z"/>
	<path class="st12" d="M22,21.3c0.3,0.2,0.7,0.4,1.1,0.3c0.2,0,0.4,0,0.5,0c0.2,0,0.3-0.1,0.4-0.2v0.1c0.1-0.6,0.5-1.1,1.2-1.2
		c0.5-0.2,1.1-0.2,1.6-0.1c0.5,0.1,1.1,0.2,1.6,0.3l0.4,0.1c0.1,0.1,0.2,0.2,0.3,0.3c0.2,0.2,0.4,0.4,0.6,0.5
		c-0.2-0.1-0.5-0.3-0.7-0.4c-0.1-0.1-0.2-0.1-0.3-0.2l-0.5-0.1l-1.6-0.3c-0.5-0.1-1-0.1-1.5,0.1c-0.5,0.1-0.9,0.5-1,0.9v0.1l0,0
		c-0.2,0.1-0.4,0.2-0.6,0.2c-0.2,0-0.4,0-0.6,0C22.6,21.7,22.3,21.5,22,21.3z"/>
	<path class="st12" d="M24.8,21.1c0.8,0.4,1.7,0.6,2.5,0.3c0.2-0.1,0.4-0.2,0.5-0.2c0.1,0,0.4,0.2,0.6,0.1c0.1-0.1,0.1-0.2-0.2-0.3
		c-0.2-0.1-0.6-0.6-0.6-0.6c-0.5-0.2-1.1-0.2-1.6-0.2C25.6,20.4,25.1,20.7,24.8,21.1z"/>
	<path class="st12" d="M24.6,21.6c0.4,0.1,0.9,0.2,1.3,0.3c0.6,0,1.1,0,1.6-0.1c-0.6,0.3-1.2,0.5-1.9,0.5c-1.2,0-1.3-0.4-1.3-0.4
		c0.4,0.2,0.8,0.3,1.1,0.2C25.2,22,24.9,21.8,24.6,21.6z"/>
	<path class="st12" d="M22.1,22.3c0.5,0,1,0,1.5,0c0.5,0.1,1,0.3,1.4,0.5c0.5,0.1,0.9,0.1,1.4,0c0.5-0.2,0.9-0.4,1.4-0.6
		c-0.4,0.3-0.8,0.6-1.3,0.8c-0.5,0.2-1,0.2-1.5,0c-0.5-0.2-0.9-0.4-1.4-0.5C23.1,22.3,22.6,22.4,22.1,22.3z"/>
	<path class="st12" d="M23.6,23.2l1.3-0.1C24.5,23.3,24,23.4,23.6,23.2z"/>
	<path class="st12" d="M26.4,23.5l2-1.3C27.9,22.8,27.2,23.3,26.4,23.5z"/>
	<path class="st12" d="M22.3,19.6c0.1-0.4,0.3-0.8,0.6-1.2c0.1-0.2,0.3-0.4,0.5-0.5c0.2-0.1,0.4-0.2,0.7-0.2c0.9,0,1.8,0.2,2.6,0.4
		c0.8,0.3,1.6,0.7,2.4,1.1c0.4,0.2,0.8,0.3,1.2,0.4c0.4,0.1,0.8,0,1.1-0.3c-0.3,0.4-0.7,0.6-1.2,0.6c-0.4,0-0.8-0.1-1.2-0.3
		c-0.8-0.3-1.6-0.7-2.4-0.9c-0.8-0.3-1.6-0.5-2.4-0.5c-0.4,0-0.8,0.2-1,0.5C22.8,18.9,22.6,19.2,22.3,19.6z"/>
	<path class="st12" d="M31.7,19c0.3-0.5,0.5-1,0.6-1.6C32.5,17.9,32.3,18.6,31.7,19z"/>
	<path class="st12" d="M27.5,19.5c-0.3-0.2-0.5-0.4-0.7-0.6c-0.2-0.2-0.4-0.5-0.5-0.8c-0.3-0.6-0.5-1.2-0.6-1.8
		c-0.2-1.2-0.4-2.5-0.7-3.7c0.2,0.6,0.4,1.2,0.6,1.8c0.2,0.6,0.3,1.2,0.4,1.8c0.1,0.6,0.3,1.2,0.5,1.7
		C26.7,18.6,27.1,19.1,27.5,19.5z"/>
	<path class="st12" d="M23.3,13.8c0.3,0.9,0.6,1.8,0.9,2.7c0.1,0.5,0.3,0.9,0.5,1.3c0.2,0.4,0.5,0.8,0.8,1.2
		c-0.3-0.4-0.6-0.7-0.8-1.1c-0.2-0.4-0.4-0.9-0.6-1.3C23.8,15.6,23.6,14.7,23.3,13.8z"/>
	<path class="st12" d="M22.2,20.6c0.4,0.4,0.9,0.6,1.5,0.6C23.1,21.4,22.5,21.1,22.2,20.6z"/>
	<path class="st12" d="M22.9,20.4l0.9,0.4C23.5,20.7,23.2,20.6,22.9,20.4z"/>
	<path class="st12" d="M29.4,20.7l0.7,0.4C29.7,21.2,29.4,21,29.4,20.7z"/>
	<path class="st12" d="M28.8,21.2l-0.1,0.3h0.3C29.1,21.4,29,21.2,28.8,21.2z"/>
	<path class="st12" d="M29.1,22.9c0,0-1,0.8-1.7,1.3c-0.5,0.3-1.1,0.5-1.7,0.6c0.6,0.1,1.2,0,1.7-0.4C28.1,24,28.6,23.4,29.1,22.9z"
		/>
	<path class="st12" d="M23.7,39.5c-0.2-1.3-0.3-2.5-0.4-3.8c0-0.7,0-1.3,0.1-1.9c0.1-0.7,0.3-1.3,0.7-1.9c0.8-1,1.6-1.9,2.5-2.8
		c0.8-0.9,1.6-1.8,2.5-2.7c-0.7,1-1.5,2-2.2,3l-2.4,2.8c-0.3,0.5-0.5,1.1-0.6,1.6c-0.1,0.6-0.2,1.2-0.2,1.8
		C23.7,37,23.7,38.2,23.7,39.5z"/>
	<path class="st12" d="M26.3,35.3c1.2-0.6,2.4-0.9,3.7-1.1c1,0,2,0.1,3,0.4c1-0.2,1.9-0.4,2.9-0.3c0.9,0,1.8,0.2,2.7,0.6
		c0.6,0.3,0.8,0.4,1,0.5c0.1,0-0.1-0.4-0.2-0.6c-0.6-0.3-1.3-0.5-1.9-0.6c-1-0.3-2.1-0.4-3.1-0.5c-0.5,0.1-0.9,0.2-1.4,0.3
		c-0.4,0-0.9-0.2-1.6-0.2c-1.1,0.1-2.1,0.3-3.1,0.7c-0.8,0.2-1.7,0.2-1.8,0.3c-0.2,0.2-0.4,0.4-0.5,0.6C25.9,35.4,26,35.5,26.3,35.3
		z"/>
	<path class="st12" d="M26.3,34.9c0.4-0.5,0.9-1,1.4-1.4c0.3-0.2,0.3,0.1,0.4,0c0.5-0.5,1.1-0.9,1.7-1.3c0.1,0,0.1,0.2,0.2,0.1
		c0.5-0.3,0.9-0.5,1.5-0.7c0.1,0,0.9,0.7,1.4,0.7c0.6,0,1.1-0.2,1.6-0.5c0.3-0.2,1.5,0.2,1.6,0.3s0,0.3,0,0.4s0.2-0.2,0.3-0.2
		s1.6,1.1,1.6,1.1c0,0.1,0,0.1,0,0.2h0.4c0,0,1.2,1,1.2,1.3c0.1,0.3-0.9-0.2-0.9-0.2s-0.6-0.7-0.7-0.7c-0.1,0-0.3,0.1-0.3,0.1
		c-0.1,0,0-0.4-0.1-0.5c-0.1-0.1-1.3-0.9-1.3-0.9c0,0-0.4,0.4-0.5,0.4c-0.1,0.1-0.3,0.3-0.3,0.3s0.4-0.9,0.4-0.9
		c-0.3-0.2-0.7-0.3-1.1-0.4c-0.3,0-1.1,0.4-1.7,0.4c-0.5,0-1-0.2-1.5-0.5c-0.2-0.1-1.4,0.6-1.4,0.6s0.3,0.5,0.4,0.6
		c0,0-0.5-0.5-0.5-0.5c-0.1,0-0.2-0.1-0.3-0.1c0,0-0.5,0.3-0.7,0.4c-0.3,0.2-0.5,0.4-0.8,0.7c0,0,0.2,0.3,0.2,0.4
		c0,0.1-0.5-0.3-0.6-0.3s-0.3,0.2-0.3,0.3s-0.1,0.4,0.1,0.4c0.2,0-0.4,0.4-0.5,0.5C27.1,35,26.3,34.9,26.3,34.9z"/>
	<path class="st12" d="M26.2,35.1l0.4-0.2c-0.3-0.4-0.6-0.9-0.9-1.4l-0.5-0.7l-0.3-0.4l-0.1-0.2c-0.1-0.1-0.1-0.2-0.2-0.2l-1.3-1.1
		c-0.7-0.9-1.3-2-2-3c0.5,1.1,1,2.2,1.7,3.3c0.4,0.5,0.9,0.8,1.3,1.2c0.1,0.1,0.3,0.4,0.5,0.7l0.5,0.7
		C25.6,34.2,25.9,34.6,26.2,35.1z"/>
	<path class="st12" d="M26.1,31.3l1.6,2.3c0.1-0.1,0.3,0.1,0.4,0.1s0-0.2,0-0.3c-0.5-0.8-1.1-1.7-1.6-2.5c-0.2-0.3-0.4-0.6-0.6-0.9
		c-0.2-0.3-0.5-0.5-0.7-0.8c-0.4-0.6-0.7-1.2-1-1.9c-0.4-0.7-0.9-1.1-1.2-1.7c-0.3-0.6-0.6-1.3-0.8-2c0.1,0.7,0.3,1.4,0.6,2.1
		c0.3,0.7,0.8,1.2,1.1,1.8c0.3,0.7,0.6,1.3,1,2c0.3,0.3,0.5,0.5,0.7,0.8C25.7,30.7,25.9,31,26.1,31.3z"/>
	<path class="st12" d="M27.1,28.5c0.4,0.4,0.8,0.9,1.1,1.3c0.3,0.5,0.6,1,0.9,1.5l0.6,1.1c0.1,0,0.2,0,0.4,0l0.1-0.1l-0.7-1.2
		c-0.3-0.5-0.6-1-1-1.5c-0.4-0.5-0.8-0.9-1.2-1.3c-0.5-0.3-0.8-0.8-1-1.3c-0.2-0.6-0.3-1.2-0.3-1.8c0,0.6,0,1.2,0.1,1.8
		C26.3,27.6,26.6,28.1,27.1,28.5z"/>
	<path class="st2" d="M25.6,20.8c0,0.2,0.1,0.3,0.2,0.4l0.4,0.1c-0.2-0.2-0.3-0.4-0.3-0.7L25.6,20.8z"/>
	<path class="st2" d="M27,21.3c0,0,0.2-0.1,0.2-0.3c0-0.1,0-0.2,0-0.4c0.1,0,0.1,0,0.2,0.1c0.1,0.1,0.2,0.2,0.2,0.4
		C27.7,21.1,27.2,21.3,27,21.3z"/>
	<path class="st12" d="M24.7,50.7c-0.7-0.5-1.1-1.2-1.3-2c-0.5-1.8-0.8-3.6-1-5.5c-0.3-2.5-0.6-5-0.9-6.9c-0.3-1.9-0.4-3.5-0.4-3.5
		s0.4,1.3,0.7,3.1c0.3,1.8,1,6.6,1.2,7.7c0.2,1.9,0.6,3.7,1.1,5.5c0.2,0.5,0.6,0.9,1,1.2L24.7,50.7z"/>
	<path class="st12" d="M26.4,51.3c-0.7-1.1-1.1-2.4-1.1-3.7c0-1.2,0.3-2.4,0.7-3.5c0.2-0.6,0.2-1,0.2-1L25.4,45
		c-0.4,1.1-0.6,2.3-0.5,3.4c0.1,1.1,0.4,2.1,1,3c0.2,0.3,0.5,0.4,0.8,0.6L26.4,51.3z"/>
	<path class="st12" d="M26.3,42.5c0,0,0.3-0.8,0.3-0.9c0-0.1-0.1-3-0.1-3.3c0-0.8,0-1.6,0.1-2.4c0.1-0.2,0.2-0.6,0.2-0.6
		c-0.2,0.3-0.4,0.7-0.5,1.1c-0.2,1-0.2,2,0,3C26.4,40.5,26.4,41.5,26.3,42.5z"/>
	<path class="st12" d="M25.6,36c-0.4,0.8-0.6,1.7-0.6,2.6c0.2,0.9,0.2,1.9,0.1,2.8c-0.1,0.9-0.3,1.9-0.5,2.8l-0.5,2.7
		c-0.2,0.9-0.1,1.8,0.2,2.6c0.1,0.4,0.3,0.8,0.6,1.1c0.3,0.3,0.6,0.6,1,0.8c0.8,0.4,1.6,0.6,2.4,0.9c0.4,0.2,0.8,0.4,1.2,0.5
		c0.4,0.1,0.9,0,1.3,0c-0.4,0.1-0.9,0.1-1.3,0.1c-0.4,0-0.9-0.2-1.3-0.4c-0.8-0.3-1.7-0.4-2.5-0.8c-0.4-0.2-0.8-0.5-1.1-0.8
		c-0.3-0.4-0.5-0.8-0.7-1.3c-0.3-0.9-0.4-1.9-0.2-2.9l0.6-2.7c0.2-0.9,0.4-1.7,0.6-2.7c0.1-0.9,0.1-1.8,0-2.7
		C24.8,37.6,25.1,36.8,25.6,36z"/>
	<path class="st12" d="M23.3,41.5l-0.2,3.9C22.7,44.1,22.7,42.7,23.3,41.5z"/>
	<path class="st12" d="M24.2,37.2c0.1-0.4,0.4-0.8,0.7-1c0.5-0.3,1.3-0.8,1.5-1c0.2-0.1-0.3-0.4-0.3-0.4s-1,0.8-1.3,1.1
		C24.6,36.1,24.1,36.7,24.2,37.2z"/>
	<path class="st12" d="M28.5,35.1c-0.2,0-0.2,0.3-0.2,0.4c0,0.2,0,0.4,0,0.5c0,0.4,0.1,0.8,0.1,1.1c0.1,0.8,0.2,1.5,0.3,2.2
		c0.1,0.8,0.1,1.5,0.2,2.3c-0.2,0.8-0.4,1.5-0.7,2.2c0.2-0.7,0.3-1.5,0.4-2.2c0.1-0.7-0.2-1.5-0.3-2.2c-0.1-0.7-0.1-1.5-0.2-2.3
		c0-0.4,0-0.7,0-1.1c0-0.2,0-0.4,0.1-0.6C28.2,35.4,28.3,35.1,28.5,35.1z"/>
	<path class="st12" d="M28.9,52.3c0,0-0.3-0.1-0.8-1.1c-0.4-1.1-0.6-2.3-0.5-3.5c0-0.8,0.1-1.6,0.3-2.4c0.1-0.3,0.1-0.5,0.1-0.8
		c-0.5,1.1-0.8,2.3-0.9,3.6c-0.1,1.2,0.1,2.4,0.4,3.5c0.2,0.7,0.7,1.2,1.3,1.5c0.2,0,0.4,0,0.5-0.2L28.9,52.3z"/>
	<path class="st12" d="M30.1,52.6c0.1-0.8,0.1-1.7,0-2.5c-0.1-1.4-0.1-2.1-0.1-3.5c0-0.7,0.1-1.5,0.2-2.2c0,0,0.2,3.7,0.3,4.8
		c0,1.1,0.2,2.2,0.6,3.3c0.3,0.2-0.5,0.4-0.5,0.5C30.6,52.9,30.1,52.6,30.1,52.6z"/>
	<path class="st12" d="M30.2,43.2c-0.1-0.7-0.1-1.4-0.1-2.2s0-1.4,0-2.1s-0.1-1.4-0.1-2.2c0-0.4,0-0.7,0-1.1
		c0.1-0.3,0.2-0.7,0.3-1.1c0,0.4-0.1,0.7-0.1,1.1c0,0.4,0,0.7,0.1,1.1c0.1,0.7,0.1,1.4,0.2,2.1c0.1,0.7,0,1.4-0.1,2.2
		S30.3,42.5,30.2,43.2z"/>
	<path class="st12" d="M30.6,24.4c-0.3,0.3-0.5,0.6-0.7,0.9c-0.2,0.3-0.2,0.7-0.2,1c0,0.3,0.3,0.6,0.6,0.7c0.3,0,0.7,0,1.1,0
		c-0.4,0.1-0.7,0.1-1.1,0.2c-0.2,0-0.4-0.1-0.6-0.2c-0.1-0.2-0.2-0.4-0.3-0.6c-0.1-0.4,0-0.8,0.2-1.2C30,24.9,30.3,24.6,30.6,24.4z"
		/>
	<path class="st12" d="M35.2,24.4c0.3,0.3,0.5,0.6,0.7,0.9c0.2,0.3,0.2,0.7,0.1,1c0,0.3-0.3,0.6-0.6,0.7c-0.3,0-0.7,0-1.1,0
		c0.4,0.1,0.7,0.1,1.1,0.2c0.2,0,0.4-0.1,0.6-0.2c0.1-0.2,0.2-0.4,0.3-0.6c0.1-0.4,0-0.8-0.2-1.2C35.8,24.9,35.5,24.6,35.2,24.4z"/>
	<path class="st12" d="M35.4,26.7c-0.2-0.2-0.5-0.3-0.8-0.3c-0.4,0.2-0.8,0.4-1.2,0.7c-0.3,0.1-0.7,0.1-1,0
		c-0.5-0.2-0.8-0.6-1.2-0.7c-0.3,0-0.6,0.1-0.8,0.3c-0.1,0.1,0.1,0.1,0.1,0.1s0.5-0.3,0.8-0.2c0.3,0.2,0.7,0.4,1,0.7
		c0.2,0.1,0.4,0.2,0.6,0.2h0.3c0.2,0,0.4-0.1,0.6-0.2c0.3-0.3,0.6-0.5,1-0.7c0.3-0.1,0.7,0.2,0.7,0.2S35.5,26.8,35.4,26.7z"/>
	<path class="st12" d="M31.3,25.3c0-0.3,0-0.5,0-0.8c0.1-0.2,0.1-0.5,0.3-0.7c0.1-0.2,0.1-0.4,0.1-0.6c0-0.1,0-0.2-0.1-0.3l-0.1-0.4
		c0.2,0.2,0.3,0.4,0.4,0.6c0.1,0.3,0.1,0.6,0,0.8c-0.1,0.1-0.1,0.2-0.2,0.3l-0.1,0.3L31.3,25.3z"/>
	<path class="st12" d="M32.3,20c-0.3,0.1-0.6,0.3-0.8,0.7c-0.2,0.3-0.2,0.7-0.2,1.1c-0.1-0.3-0.2-0.6-0.1-1
		C31.3,20.3,31.8,20,32.3,20z"/>
	<path class="st12" d="M32.8,32.2c-0.4-0.2-0.8-0.4-1.1-0.7c-0.1-0.2,0-0.5,0.2-1.8c0.2-1.3,0.3-1.8,0.3-1.8
		c-0.2,0.5-0.4,1.1-0.5,1.6c-0.1,0.6-0.3,1.3-0.6,1.9c-0.1,0.1-1.2,0.7-1.3,0.8c-0.1,0.1,0.2,0.2,0.2,0.2s1.2-0.6,1.3-0.6
		c0.1,0,1,0.5,1.3,0.6c0.2,0.1,0.5,0.1,0.7,0L32.8,32.2z"/>
	<path class="st12" d="M33.6,28.2c0,0,0.1,0.7,0.3,1.8c0.2,0.5,0.2,1.1,0.1,1.6c-0.3,0.2-0.7,0.4-1.1,0.5c-0.2,0-0.5-0.1-0.7-0.2
		c-0.2-0.1,0.1,0.2,0.2,0.3c0.2,0.1,0.5,0.1,0.7,0c0.3,0,1-0.3,1.2-0.4c0.3-0.1,0.5-0.1,0.8,0c0.2,0.1,0.4,0.2,0.4,0.1
		c-0.1-0.1-0.6-0.2-0.8-0.3s-0.3-0.5-0.6-1.6C34.1,29.4,33.9,28.8,33.6,28.2z"/>
	<path class="st12" d="M18.4,34c0,0,0.3-6.3,0.4-7c0.1-0.7,0.4-2.8,0.6-3.4c0.1-0.8,0.1-1.7,0-2.6c-0.1-0.8-0.5-0.5-0.5-0.5
		c-0.2,0.3-0.3,0.6-0.5,1c0.1,0.7,0.2,1.4,0.3,2.2c-0.1,0.4-0.1,0.9-0.2,1.3c0-0.7-0.1-1.3-0.3-1.9c-0.2-0.5-0.2-0.5-0.4-0.5
		c-0.2,0-0.1,1.3-0.1,1.6c0,0.3,0.3-0.4,0.3-0.4c0.1,0.2,0.1,0.4,0.1,0.6c-0.2,0.3-0.4,0.7-0.5,1c-0.2,0.4,0,0.8,0.3,1.1
		c0.2,0.2,0,0.7-0.1,1c-0.1,0.3,0.2,0.1,0.3-0.1c0.1,1.1,0,2.1-0.2,3.2c-0.2,1.2-0.2,2.5,0,3.7C18.2,34.9,18.4,34,18.4,34z"/>
	<path class="st12" d="M17.6,27.2c0,0-0.3-0.2-0.3-0.9c0-0.6,0.1-1.3,0.3-1.9c-0.4,0.4-0.6,1-0.6,1.5c0,0.7,0.2,1.4,0.6,2l0.1,0.3
		C17.8,27.9,17.7,27.6,17.6,27.2z"/>
	<path class="st12" d="M43.7,21.3c-0.3,0.2-0.7,0.4-1.1,0.3c-0.2,0-0.4,0-0.5,0c-0.2,0-0.3-0.1-0.4-0.2v0.1
		c-0.1-0.6-0.5-1.1-1.2-1.2c-0.5-0.1-1.1-0.1-1.6,0c-0.5,0.1-1.1,0.2-1.6,0.3l-0.4,0.1c-0.1,0.1-0.2,0.2-0.3,0.3
		c-0.2,0.2-0.4,0.4-0.6,0.5c0.2-0.1,0.5-0.3,0.7-0.4c0.1-0.1,0.2-0.1,0.3-0.2l0.4-0.1l1.6-0.3c0.5-0.1,1-0.1,1.5,0.1
		c0.5,0.1,0.9,0.4,1,0.9v0.1l0,0c0.2,0.1,0.4,0.2,0.6,0.2c0.2,0,0.4,0,0.6,0C43,21.8,43.4,21.6,43.7,21.3z"/>
	<path class="st12" d="M40.9,21.1c-0.4,0.2-0.8,0.4-1.3,0.4c-0.4,0.1-0.9,0-1.3-0.1c-0.2-0.1-0.4-0.2-0.5-0.2
		c-0.2,0-0.4,0.2-0.6,0.1s0-0.2,0.2-0.3c0.2-0.2,0.4-0.4,0.6-0.6c0.5-0.2,1-0.2,1.6-0.2C40.1,20.4,40.6,20.7,40.9,21.1z"/>
	<path class="st12" d="M41.1,21.6c-0.4,0.1-0.9,0.2-1.3,0.3c-0.6,0-1.1,0-1.7-0.1c0.6,0.3,1.2,0.5,1.9,0.5c1.2,0,1.3-0.4,1.3-0.4
		c-0.3,0.2-0.7,0.2-1.1,0.2C40.6,22,40.9,21.9,41.1,21.6z"/>
	<path class="st12" d="M43.6,22.3c-0.5,0-1,0-1.5,0c-0.5,0.1-1,0.3-1.4,0.5c-0.5,0.1-0.9,0.1-1.4,0c-0.5-0.2-0.9-0.4-1.4-0.6
		c0.4,0.3,0.9,0.5,1.3,0.7c0.5,0.2,1,0.2,1.5,0c0.5-0.2,0.9-0.4,1.4-0.5S43.1,22.4,43.6,22.3z"/>
	<path class="st12" d="M41.2,23.2l-1.8-0.2C39.9,23.3,40.6,23.4,41.2,23.2z"/>
	<path class="st12" d="M38.6,23.2l-1.2-0.9C37.4,22.2,38,23.1,38.6,23.2z"/>
	<path class="st12" d="M43.4,19.7c-0.2-0.4-0.4-0.8-0.6-1.2c-0.1-0.2-0.3-0.4-0.5-0.5c-0.2-0.1-0.4-0.2-0.7-0.2
		c-0.9,0-1.7,0.2-2.6,0.4c-0.8,0.3-1.6,0.7-2.4,1.1c-0.4,0.2-0.8,0.3-1.2,0.4c-0.4,0.1-0.8,0-1.1-0.3c0.3,0.4,0.7,0.6,1.2,0.5
		c0.4,0,0.9-0.2,1.2-0.3c0.8-0.3,1.6-0.7,2.4-0.9c0.8-0.3,1.6-0.4,2.4-0.5c0.4,0,0.8,0.2,1,0.5C42.9,18.9,43.1,19.3,43.4,19.7z"/>
	<path class="st12" d="M34,19c-0.3-0.5-0.5-1-0.6-1.6C33.2,18,33.5,18.6,34,19z"/>
	<path class="st12" d="M38.2,19.5c0.3-0.2,0.5-0.4,0.7-0.6c0.2-0.3,0.4-0.5,0.5-0.8c0.3-0.6,0.5-1.2,0.6-1.8
		c0.2-1.2,0.4-2.5,0.7-3.7c-0.3,0.6-0.5,1.2-0.6,1.8c-0.2,0.6-0.3,1.2-0.4,1.8c-0.1,0.6-0.3,1.2-0.5,1.7
		C39,18.6,38.7,19.1,38.2,19.5z"/>
	<path class="st12" d="M42.5,13.6c-0.3,0.8-0.6,1.6-0.8,2.4c-0.1,0.4-0.3,0.8-0.4,1.1c-0.2,0.4-0.4,0.7-0.6,1.1
		c0.3-0.3,0.5-0.6,0.7-1c0.2-0.4,0.4-0.8,0.5-1.2C42.1,15.2,42.3,14.5,42.5,13.6z"/>
	<path class="st12" d="M43.5,20.6c-0.4,0.4-0.9,0.6-1.5,0.6C42.6,21.4,43.3,21.1,43.5,20.6z"/>
	<path class="st12" d="M42.9,20.7L42,21C42.3,21,42.6,20.9,42.9,20.7z"/>
	<path class="st12" d="M36.4,20.7l-0.7,0.4C36,21.1,36.3,21,36.4,20.7z"/>
	<path class="st12" d="M36.9,21.2l0.1,0.3h-0.3C36.6,21.5,36.7,21.2,36.9,21.2z"/>
	<path class="st12" d="M36.4,22.3c0,0,1,0.8,1.8,1.3c0.5,0.3,1.1,0.5,1.7,0.6c-0.6,0.1-1.2,0-1.7-0.4C37.5,23.4,36.9,22.8,36.4,22.3
		z"/>
	<path class="st12" d="M42,39.5c0.2-1.3,0.3-2.5,0.4-3.8c0-0.7,0-1.3-0.1-2c-0.1-0.7-0.3-1.3-0.7-1.9c-0.8-1-1.6-1.9-2.5-2.8
		c-0.9-0.9-1.1-1.3-2-2.2c0.7,1,0.9,1.4,1.7,2.4l2.3,2.9c0.3,0.5,0.5,1.1,0.6,1.6c0.1,0.6,0.2,1.2,0.2,1.8
		C42.1,37.1,42,38.3,42,39.5z"/>
	<path class="st12" d="M39.5,35.1l-0.4-0.2c0.3-0.4,0.6-0.9,0.9-1.4l0.5-0.7l0.3-0.4l0.1-0.2c0.1-0.1,0.1-0.1,0.2-0.2l0.8-0.9
		c0.6-0.7,1-1.6,1.3-2.5c-0.1,1-0.4,1.9-1,2.8c-0.3,0.3-0.6,0.7-0.9,1c-0.2,0.2-0.3,0.4-0.5,0.7l-0.5,0.7L39.5,35.1z"/>
	<path class="st12" d="M39.6,31.3L38,33.6c-0.1-0.1-0.1-0.1-0.2-0.1s-0.1-0.1-0.2-0.2c0.5-0.9,1-1.6,1.6-2.4
		c0.2-0.3,0.4-0.6,0.6-0.9c0.2-0.3,0.5-0.5,0.7-0.8c0.4-0.5,0.3-0.9,0.7-1.5c0.4-0.6,0.9-1.1,1.2-1.7c0.3-0.6,0.6-1.3,0.8-2
		c-0.1,0.7-0.3,1.4-0.6,2.1c-0.3,0.7-0.8,1.2-1.1,1.8c-0.3,0.6-0.2,1-0.6,1.6c-0.2,0.3-0.5,0.5-0.7,0.8C40,30.7,39.8,31,39.6,31.3z"
		/>
	<path class="st12" d="M39,28.7c-0.4,0.4-0.8,0.8-1.1,1.3c-0.3,0.5-0.6,1-0.9,1.5l-0.6,1c-0.1,0-0.3,0.3-0.4,0.2
		c-0.1-0.1,0-0.3,0-0.3c0.2-0.4,0.5-0.8,0.7-1.2s0.6-1,0.9-1.5c0.4-0.5,0.8-0.9,1.2-1.3c0.4-0.3,0.8-0.8,1-1.3
		c0.2-0.6,0.3-1.1,0.3-1.7c0,0.6,0,1.2-0.1,1.8C39.8,27.8,39.4,28.3,39,28.7z"/>
	<path class="st2" d="M40.2,20.8c0,0.2-0.1,0.3-0.2,0.4l-0.4,0.1c0.2-0.2,0.3-0.4,0.3-0.7L40.2,20.8z"/>
	<path class="st2" d="M38.7,21.3c0,0-0.2,0-0.2-0.3c-0.1-0.3,0-0.4,0-0.4c-0.1,0-0.1,0-0.2,0.1c-0.1,0.1-0.2,0.2-0.2,0.4
		C38.1,21.1,38.5,21.3,38.7,21.3z"/>
	<path class="st12" d="M41.1,50.8c0.7-0.5,1.1-1.2,1.3-2c0.5-1.8,0.8-3.6,1-5.5c0.3-2.5,0.6-5,0.9-6.9c0.3-1.9,0.4-3.5,0.4-3.5
		s-0.4,1.3-0.7,3.1c-0.3,1.8-1,6.6-1.2,7.7c-0.3,1.9-0.6,3.7-1.1,5.5c-0.2,0.5-0.6,0.9-1,1.2L41.1,50.8z"/>
	<path class="st12" d="M39.3,51.3c0.7-1.1,1.1-2.4,1.1-3.7c0-1.2-0.3-2.4-0.7-3.5c-0.2-0.6-0.2-1-0.2-1l0.9,1.9
		c0.4,1.1,0.6,2.3,0.5,3.4c-0.1,1.1-0.4,2.1-1,3c-0.2,0.2-0.5,0.4-0.8,0.6L39.3,51.3z"/>
	<path class="st12" d="M39.4,42.5c0,0-0.3-0.8-0.3-0.9c0-0.1,0.1-3,0.1-3.3c0-0.8,0-1.6-0.1-2.5c-0.1-0.2-0.2-0.6-0.2-0.6
		c0.2,0.3,0.4,0.7,0.5,1.1c0.2,1,0.2,2,0,3C39.3,40.4,39.3,41.5,39.4,42.5z"/>
	<path class="st12" d="M40.1,36c0.4,0.8,0.6,1.7,0.6,2.6c-0.2,0.9-0.2,1.9-0.1,2.8c0.1,0.9,0.3,1.9,0.5,2.8l0.5,2.7
		c0.2,0.9,0.1,1.8-0.2,2.6c-0.1,0.4-0.3,0.8-0.6,1.1c-0.3,0.3-0.6,0.6-1,0.8c-0.7,0.4-1.6,0.6-2.4,0.9c-0.4,0.2-0.8,0.4-1.2,0.5
		c-0.4,0.1-0.9,0-1.3,0c0.4,0.1,0.9,0.1,1.3,0.1c0.4,0,0.9-0.2,1.3-0.4c0.8-0.3,1.7-0.4,2.5-0.8c0.4-0.2,0.8-0.5,1.1-0.8
		c0.3-0.4,0.5-0.8,0.7-1.2c0.3-0.9,0.4-1.9,0.2-2.9l-0.6-2.7c-0.2-0.9-0.4-1.8-0.6-2.7c-0.1-0.9-0.1-1.8,0-2.8
		C40.9,37.7,40.6,36.8,40.1,36z"/>
	<path class="st12" d="M42.4,41.6l0.2,3.8C43,44.1,42.9,42.8,42.4,41.6z"/>
	<path class="st12" d="M41.5,37.2c-0.1-0.4-0.4-0.8-0.7-1c-0.5-0.3-1.3-0.8-1.5-1s0.3-0.4,0.3-0.4s1,0.8,1.3,1.1
		S41.6,36.7,41.5,37.2z"/>
	<path class="st12" d="M37.2,35.2c0.2,0,0.2,0.3,0.2,0.4c0,0.2,0,0.4,0,0.6c0,0.4-0.1,0.7-0.2,1.1c-0.1,0.8-0.2,1.5-0.3,2.2
		c-0.1,0.8-0.1,1.5-0.2,2.3c0.1,0.8,0.4,1.5,0.7,2.2c-0.2-0.7-0.3-1.5-0.4-2.2c-0.1-0.7,0.2-1.5,0.3-2.2c0.1-0.7,0.2-1.5,0.2-2.3
		c0-0.4,0-0.7,0-1.1c0-0.2,0-0.4-0.1-0.6C37.5,35.4,37.4,35.1,37.2,35.2z"/>
	<path class="st12" d="M36.8,52.3c0,0,0.3-0.1,0.8-1.1c0.4-1.1,0.6-2.3,0.5-3.5c0-0.8-0.1-1.6-0.3-2.4c-0.1-0.3-0.1-0.5-0.1-0.8
		c0.5,1.1,0.8,2.3,0.9,3.5c0.1,1.2-0.1,2.4-0.4,3.5c-0.2,0.7-0.7,1.2-1.3,1.5c-0.2,0-0.4,0-0.5-0.2L36.8,52.3z"/>
	<path class="st12" d="M35.6,52.6c-0.1-0.8-0.1-1.7,0-2.5c0.1-1.4,0.1-2.1,0.1-3.5c0-0.7-0.1-1.5-0.2-2.2c0,0-0.2,3.7-0.3,4.8
		c0,1.1-0.2,2.2-0.6,3.3c-0.3,0.2,0.5,0.4,0.5,0.5S35.6,52.6,35.6,52.6z"/>
	<path class="st12" d="M35.5,43.3c0-0.7,0.1-1.4,0.1-2.2c0-0.8,0-1.4,0-2.2c0-0.8,0.1-1.4,0.1-2.2c0-0.4,0-0.7,0-1.1
		c-0.1-0.3-0.2-0.7-0.3-1.1c0,0.4,0.1,0.7,0.1,1.1c0,0.4,0,0.7-0.1,1.1c-0.1,0.7-0.1,1.4-0.2,2.1c-0.1,0.7,0,1.4,0.1,2.2
		S35.4,42.5,35.5,43.3z"/>
	<path class="st12" d="M34.5,25.3c0-0.2,0-0.5,0-0.8c-0.1-0.2-0.1-0.5-0.3-0.7c-0.1-0.2-0.1-0.4-0.1-0.6c0-0.1,0.1-0.2,0.1-0.3
		l0-0.4c-0.1,0.2-0.3,0.4-0.4,0.6c-0.1,0.3-0.1,0.6,0,0.8c0.1,0.1,0.1,0.2,0.2,0.3c0.1,0.1,0.1,0.2,0.1,0.3L34.5,25.3z"/>
	<path class="st12" d="M47.3,34c0,0-0.3-6.3-0.4-7c-0.1-0.7-0.4-2.8-0.6-3.4c-0.2-0.8-0.2-1.7,0-2.6c0.1-0.8,0.5-0.5,0.5-0.5
		c0.2,0.3,0.3,0.6,0.5,1c-0.1,0.7-0.2,1.4-0.3,2.2c0.1,0.4,0.1,0.9,0.2,1.3c0-0.7,0.1-1.3,0.3-1.9c0.2-0.5,0.2-0.5,0.4-0.5
		c0.2,0,0.1,1.3,0.1,1.6c0,0.3-0.4-0.4-0.4-0.4c-0.1,0.2-0.1,0.4-0.1,0.6c0.2,0.3,0.4,0.7,0.5,1c0.1,0.4,0,0.8-0.3,1.1
		c-0.2,0.2,0,0.7,0,1c0,0.3-0.2,0.1-0.3-0.1c-0.1,1.1,0,2.1,0.2,3.2c0.2,1.2,0.2,2.5,0,3.7C47.5,34.9,47.3,34,47.3,34z"/>
	<path class="st12" d="M48.1,27.2c0,0,0.3-0.2,0.3-0.9c0-0.6-0.1-1.3-0.3-1.9c0.4,0.4,0.6,1,0.6,1.5c0,0.7-0.2,1.4-0.6,2L48,28.3
		C47.9,27.9,48,27.6,48.1,27.2z"/>
	<path class="st12" d="M32.7,35.3c0.1,1.3,0.2,2.6,0.2,3.9c0,1.3-0.1,2.6-0.2,3.9c-0.2-1.3-0.2-2.6-0.2-3.9
		C32.5,37.9,32.6,36.6,32.7,35.3z"/>
	<path class="st12" d="M32.4,52.8c0-0.1,0.1-0.2,0.1-0.3c0.1-0.6,0.2-1.1,0.1-1.7c-0.1-0.5-0.2-1.9-0.2-2.8s0.2-3.7,0.2-3.7
		s0.5,3.8,0.5,4.1c0,0.3-0.1,2-0.1,2.3c0,0.4,0.1,0.8,0.1,1.2c0.1,0.3,0.1,0.7-0.2,1C32.9,53.2,32.4,52.8,32.4,52.8z"/>
	<path class="st13" d="M26.1,20.5l0.2-0.1c0.1,0,0.1,0.1,0.1,0.2c0,0.1-0.2,0.2-0.3,0.2C26.1,20.9,26.1,20.6,26.1,20.5z"/>
	<path class="st13" d="M38.8,20.6l0.2-0.1c0.1,0,0.1,0.1,0.1,0.2c0,0.1-0.2,0.2-0.3,0.2S38.8,20.7,38.8,20.6z"/>
	<path class="st12" d="M52.9,45.5l0.3-1l-0.4-0.1c-0.5-0.2-1.1-0.4-1.3-0.5l-0.3-0.5c-1.3-2.6-2-3.5-2.5-3.7
		c-0.4-0.2-0.9-0.2-1.4-0.1L47,39.7V40c0,0.4,0,9.8,0,10.3c-0.2,0.4-2.3,1.9-5.6,2.7c-4.4,1.1-5,1.3-5.2,1.6s-0.3,0.3-0.4,5.1V60
		l0.9-0.1v-0.2c0-0.8,0.1-2.3,0.1-3.4c1.3-0.3,4.6-1,6.9-1.7c2-0.6,3.8-1.7,5.3-3.1l0.5,0.1c-1,1.2-2.3,2.1-3.8,2.7
		c-2.7,1.1-5.4,1.9-8.2,2.4h-0.3v3.1l0.7-0.1v-2.4c2.8-0.5,5.5-1.3,8.1-2.4c1.6-0.7,3.1-1.7,4.2-3.1l2.4,0.7l0.8-0.7L51,51
		c0.2-0.8,0.9-3.2,1.3-4.7l4.4,1.6l0.6-0.8L52.9,45.5z M48.8,50.9c-1.5,1.4-3.2,2.4-5.2,3c-2.2,0.7-5.3,1.4-6.7,1.7
		c0-0.2,0-0.4,0-0.5c1.5-0.5,3.1-1,4.7-1.3c3-0.7,6.4-2.4,6.3-3.5c0-0.5,0-8,0-9.8c0.1,0,0.3,0.1,0.4,0.1c0.3,0.5,0.5,1,0.5,1.6
		C48.9,43.5,48.8,50.4,48.8,50.9z M49.7,42.6c0.2,0.4,0.4,0.8,0.6,1.2c0.1,0.3,0.3,0.5,0.4,0.8l-1.1,3.6
		C49.7,46.2,49.7,43.8,49.7,42.6z M51.8,46.1c-0.4,1.5-1.1,3.9-1.4,4.7l-0.8-0.2c0-0.2,0-0.4,0-0.7l1.6-5.1l0.8,0.3L51.8,46.1
		L51.8,46.1z"/>
	<path class="st12" d="M7.7,47.2l0.6,0.8l4.4-1.6c0.4,1.5,1.1,3.9,1.3,4.7l-2.4,0.7l0.8,0.7l2.4-0.7c1.1,1.4,2.5,2.4,4.2,3.1
		c2.6,1.1,5.3,1.9,8.1,2.4v2.4l0.7,0.1v-3.1h-0.3c-2.8-0.5-5.6-1.3-8.2-2.4c-1.4-0.6-2.7-1.5-3.8-2.7l0.5-0.1
		c1.5,1.4,3.3,2.4,5.2,3.1c2.3,0.7,5.6,1.5,6.9,1.7c0.1,1.1,0.1,2.7,0.1,3.4v0.2l0.9,0.1v-0.3c-0.1-4.8-0.2-4.9-0.4-5.1
		c-0.2-0.2-0.8-0.5-5.2-1.6c-3.3-0.8-5.5-2.2-5.6-2.7c0-0.5,0-9.9,0-10.3v-0.3l-0.3-0.1c-0.5-0.1-1-0.1-1.4,0.1
		c-0.5,0.2-1.2,1.1-2.5,3.7L13.4,44c-0.2,0.1-0.8,0.3-1.3,0.5l-0.4,0.1l0.3,1L7.7,47.2z M16.1,42.1c0-0.6,0.1-1.1,0.5-1.6
		c0.1-0.1,0.3-0.1,0.4-0.1c0,1.9,0,9.4,0,9.8c0,1.1,3.3,2.8,6.3,3.5c1.6,0.3,3.2,0.8,4.7,1.3c0,0.2,0,0.3,0,0.5
		c-1.4-0.3-4.5-1-6.7-1.7c-1.9-0.6-3.7-1.7-5.2-3C16.2,50.4,16.1,43.5,16.1,42.1z M15.3,48.1l-1.1-3.6c0.2-0.2,0.3-0.5,0.4-0.8
		c0.2-0.4,0.4-0.8,0.6-1.2C15.2,43.8,15.2,46.2,15.3,48.1z M13.1,46.1l-0.3-1l0.8-0.3l1.6,5.1c0,0.3,0,0.5,0,0.7l-0.8,0.2
		C14.2,50.1,13.5,47.6,13.1,46.1L13.1,46.1z"/>
</g>
</svg>
