<?xml version="1.0" encoding="utf-8"?>
<!-- Generator: Adobe Illustrator 19.2.1, SVG Export Plug-In . SVG Version: 6.00 Build 0)  -->
<svg version="1.1" id="Layer_1" xmlns="http://www.w3.org/2000/svg" xmlns:xlink="http://www.w3.org/1999/xlink" x="0px" y="0px"
	 viewBox="0 0 72 72" style="enable-background:new 0 0 72 72;" xml:space="preserve">
<style type="text/css">
	.st0{fill:#FFFFFF;}
	.st1{fill:#BCBCBC;}
	.st2{fill:#00006B;}
	.st3{fill:#0000BC;}
	.st4{fill:#D8D8D8;}
	.st5{fill:#4428BC;}
	.st6{fill:#AE3201;}
	.st7{fill:#787878;}
	.st8{fill:#393939;}
	.st9{fill:#E45C11;}
	.st10{fill:#FCA044;}
	.st11{fill:#881400;}
	.st12{fill:#F8F8F8;}
</style>
<path class="st0" d="M65.4,62.3h-1.5v1.5h-1.5v1.5h-1.5v1.5H11.4v-1.5H9.9v-1.5H8.4v-1.5H6.9V12.8h1.5v-1.5h1.5V9.8h1.5V8.3h19.5
	V6.8h10.5v1.5h19.5v1.5h1.5v1.5h1.5v1.5h1.5V62.3z"/>
<path class="st1" d="M9.1,22.5h1.5V24H9.1V22.5z M37.6,43.5h1.5V45h-1.5V43.5z M31.6,9h9v1.5h-9L31.6,9z M33.1,43.5h1.5V45h-1.5
	V43.5z M61.6,22.5h1.5V24h-1.5V22.5z M31.6,15h1.5v1.5h6V15h1.5v-3h-9L31.6,15z"/>
<path class="st1" d="M61.6,61.5h-1.5V63h-48v-1.5h-1.5v-36H9.1V63h1.5v1.5h51V63h1.5V25.5h-1.5V61.5z"/>
<path class="st2" d="M54.1,28.5h1.5V30h-1.5V28.5z M52.6,15h1.5v13.5h-1.5V15z M57.1,30h-1.5v3h3v-1.5h-1.5V30z M18.1,15h1.5v13.5
	h-1.5V15z M16.6,28.5h1.5V30h-1.5V28.5z M15.1,31.5h-1.5V33h3v-3h-1.5V31.5z"/>
<path class="st3" d="M13.6,22.5h1.5V24h-1.5V22.5z M13.6,16.5h1.5V18h-1.5V16.5z M15.1,15h1.5v1.5h-1.5V15z M16.6,16.5h1.5V18h-1.5
	V16.5z M15.1,21h1.5v1.5h-1.5V21z M13.6,19.5h1.5V21h-1.5V19.5z M15.1,18h1.5v1.5h-1.5V18z M55.6,25.5h1.5V27h-1.5V25.5z M55.6,22.5
	h1.5V24h-1.5V22.5z M54.1,24h1.5v1.5h-1.5V24z M55.6,19.5h1.5V21h-1.5V19.5z M54.1,21h1.5v1.5h-1.5V21z M57.1,30h1.5v1.5h-1.5V30z
	 M55.6,28.5h1.5V30h-1.5V28.5z M54.1,27h1.5v1.5h-1.5V27z M57.1,27h1.5v1.5h-1.5V27z M54.1,18h1.5v1.5h-1.5V18z M57.1,15h1.5v1.5
	h-1.5V15z M54.1,15h1.5v1.5h-1.5V15z M55.6,16.5h1.5V18h-1.5V16.5z M57.1,24h1.5v1.5h-1.5V24z M57.1,21h1.5v1.5h-1.5V21z M57.1,18
	h1.5v1.5h-1.5V18z M15.1,24h1.5v1.5h-1.5V24z M16.6,25.5h1.5V27h-1.5V25.5z M15.1,27h1.5v1.5h-1.5V27z M13.6,28.5h1.5V30h-1.5V28.5z
	 M13.6,25.5h1.5V27h-1.5V25.5z M16.6,22.5h1.5V24h-1.5V22.5z M16.6,19.5h1.5V21h-1.5V19.5z"/>
<path class="st4" d="M61.6,24h1.5v1.5h-1.5V24z M9.1,24h1.5v1.5H9.1V24z M61.6,18h1.5v4.5h-1.5V18z M9.1,18h1.5v4.5H9.1V18z
	 M61.6,15h1.5v1.5h-1.5V15z M9.1,15h1.5v1.5H9.1V15z"/>
<path class="st5" d="M57.1,16.5h1.5V18h-1.5V16.5z M55.6,15h1.5v1.5h-1.5V15z M54.1,16.5h1.5V18h-1.5V16.5z M13.6,30h1.5v1.5h-1.5
	V30z M55.6,18h1.5v1.5h-1.5V18z M57.1,19.5h1.5V21h-1.5V19.5z M15.1,28.5h1.5V30h-1.5V28.5z M55.6,24h1.5v1.5h-1.5V24z M55.6,21h1.5
	v1.5h-1.5V21z M54.1,19.5h1.5V21h-1.5V19.5z M57.1,28.5h1.5V30h-1.5V28.5z M54.1,25.5h1.5V27h-1.5V25.5z M57.1,22.5h1.5V24h-1.5
	V22.5z M57.1,25.5h1.5V27h-1.5V25.5z M55.6,27h1.5v1.5h-1.5V27z M54.1,22.5h1.5V24h-1.5V22.5z M16.6,15h1.5v1.5h-1.5V15z M15.1,16.5
	h1.5V18h-1.5V16.5z M13.6,15h1.5v1.5h-1.5V15z M15.1,19.5h1.5V21h-1.5V19.5z M16.6,18h1.5v1.5h-1.5V18z M13.6,24h1.5v1.5h-1.5V24z
	 M13.6,27h1.5v1.5h-1.5V27z M13.6,21h1.5v1.5h-1.5V21z M13.6,18h1.5v1.5h-1.5V18z M16.6,21h1.5v1.5h-1.5V21z M16.6,27h1.5v1.5h-1.5
	V27z M15.1,22.5h1.5V24h-1.5V22.5z M16.6,24h1.5v1.5h-1.5V24z M15.1,25.5h1.5V27h-1.5V25.5z"/>
<path class="st6" d="M40.6,24h7.5v1.5h-7.5V24z M48.1,39h1.5v4.5h-1.5V39z M46.6,43.5h1.5v3h-1.5V43.5z M51.1,27h-1.5v12h1.5v-1.5
	h1.5v-6h-1.5V27z M48.1,25.5h1.5V27h-1.5V25.5z M45.1,46.5h1.5v3h-1.5V46.5z M31.6,31.5h1.5V33h-1.5L31.6,31.5z M24.1,24h7.5v1.5
	h-7.5V24z M22.6,25.5h1.5V27h-1.5V25.5z M33.1,49.5h6V51h-6V49.5z M39.1,31.5h1.5V33h-1.5V31.5z M21.1,27v4.5h-1.5v6h1.5V39h1.5V27
	H21.1z M22.6,39h1.5v4.5h-1.5V39z M25.6,46.5h1.5v3h-1.5V46.5z M24.1,43.5h1.5v3h-1.5V43.5z"/>
<path class="st7" d="M37.6,58.5h1.5V60h-1.5V58.5z M33.1,58.5h1.5V60h-1.5V58.5z M13.6,57h16.5v1.5H13.6V57z M30.1,55.5h1.5V57h-1.5
	V55.5z M15.1,36v-1.5h1.5V33h-3v3H15.1z M60.1,13.5h1.5v48h-1.5V13.5z M31.6,57h1.5v1.5h-1.5L31.6,57z M12.1,61.5h48V63h-48
	L12.1,61.5z M51.1,12h9v1.5h-9V12z M55.6,33h3v1.5h-3V33z M34.6,57h3v1.5h-3V57z M39.1,57h1.5v1.5h-1.5V57z M40.6,55.5h1.5V57h-1.5
	V55.5z M42.1,57h16.5v1.5H42.1V57z M10.6,13.5h1.5v48h-1.5V13.5z M12.1,12h9v1.5h-9V12z M9.1,63h1.5v1.5H9.1V63z M10.6,64.5h51V66
	h-51L10.6,64.5z M61.6,63h1.5v1.5h-1.5V63z M63.1,12h1.5v51h-1.5V12z M7.6,12h1.5v51H7.6V12z M10.6,9h13.5v1.5H10.6V9z M48.1,9h13.5
	v1.5H48.1V9z M25.6,15v1.5h1.5V18h1.5v1.5h-4.5V21h24v-1.5h-4.5V18h1.5v-1.5h1.5V15h-3v-1.5h1.5v-3h-1.5V9h-1.5V7.5h-12V9h-1.5v1.5
	h-1.5v3h1.5V15H25.6z"/>
<path class="st7" d="M31.6,9h9v1.5h-9L31.6,9z M31.6,12h9v3h-1.5v1.5h-6V15h-1.5L31.6,12z M21.1,18h1.5v1.5h-1.5V18z M22.6,21h1.5
	v1.5h-1.5V21z M22.6,16.5h3V18h-3V16.5z M61.6,10.5h1.5V12h-1.5V10.5z M21.1,22.5h1.5V24h-1.5V22.5z M46.6,16.5h3V18h-3V16.5z
	 M49.6,18h1.5v1.5h-1.5V18z M49.6,22.5h1.5V24h-1.5V22.5z M48.1,21h1.5v1.5h-1.5V21z M9.1,10.5h1.5V12H9.1V10.5z"/>
<path class="st8" d="M18.1,37.5h1.5V39h-1.5V37.5z M18.1,40.5h1.5V42h-1.5V40.5z M16.6,39h1.5v1.5h-1.5V39z M19.6,42h1.5v1.5h-1.5
	V42z M55.6,42h1.5v1.5h-1.5V42z M21.1,43.5h1.5V45h-1.5V43.5z M15.1,34.5h1.5V36h-1.5V34.5z M19.6,39h1.5v1.5h-1.5V39z M13.6,39h1.5
	v1.5h-1.5V39z M13.6,36h1.5v1.5h-1.5V36z M13.6,42h1.5v1.5h-1.5V42z M15.1,43.5h1.5V45h-1.5V43.5z M57.1,34.5h1.5V36h-1.5V34.5z
	 M55.6,36h1.5v1.5h-1.5V36z M55.6,39h1.5v1.5h-1.5V39z M24.1,21v-1.5h4.5V18h-1.5v-1.5h-1.5V18h-3v1.5h-1.5v3h1.5V21H24.1z
	 M54.1,43.5h1.5V45h-1.5V43.5z M51.1,43.5h1.5V45h-1.5V43.5z M46.6,9h1.5v1.5h-1.5V9z M49.6,12h1.5v1.5h-1.5V12z M22.6,10.5h1.5V12
	h-1.5V10.5z"/>
<path class="st8" d="M25.6,16.5V15h3v-1.5h-1.5v-3h-1.5V12h-1.5v1.5h-1.5V15h-1.5v3h1.5v-1.5H25.6z M49.6,24h1.5v1.5h-1.5V24z
	 M54.1,37.5h1.5V39h-1.5V37.5z M51.1,40.5h1.5V42h-1.5V40.5z M57.1,40.5h1.5V42h-1.5V40.5z M48.1,22.5h1.5V24h-1.5V22.5z M24.1,21
	h24v1.5h-24L24.1,21z M57.1,37.5h1.5V39h-1.5V37.5z"/>
<path class="st8" d="M49.6,22.5h1.5v-3h-1.5V18h-3v-1.5h-1.5V18h-1.5v1.5h4.5V21h1.5V22.5z M48.1,10.5h1.5V12h-1.5V10.5z M57.1,43.5
	h1.5V45h-1.5V43.5z M24.1,9h1.5v1.5h-1.5V9z"/>
<path class="st8" d="M49.6,18h1.5v-3h-1.5v-1.5h-1.5V12h-1.5v-1.5h-1.5v3h-1.5V15h3v1.5h3V18z M16.6,42h1.5v1.5h-1.5V42z M18.1,43.5
	h1.5V45h-1.5V43.5z M54.1,40.5h1.5V42h-1.5V40.5z M52.6,42h1.5v1.5h-1.5V42z M21.1,12h1.5v1.5h-1.5V12z M16.6,36h1.5v1.5h-1.5V36z
	 M15.1,37.5h1.5V39h-1.5V37.5z M52.6,39h1.5v1.5h-1.5V39z M15.1,40.5h1.5V42h-1.5V40.5z M21.1,24h1.5v1.5h-1.5V24z M42.1,52.5h1.5
	V54h-1.5V52.5z M43.6,51h1.5v1.5h-1.5V51z M22.6,22.5h1.5V24h-1.5V22.5z M30.1,54h1.5v1.5h-1.5V54z M27.1,51h1.5v1.5h-1.5V51z
	 M28.6,52.5h1.5V54h-1.5V52.5z M31.6,55.5h9V57h-9L31.6,55.5z M40.6,54h1.5v1.5h-1.5V54z"/>
<path class="st9" d="M39.1,46.5h1.5v3h-1.5V46.5z M31.6,46.5h1.5v3h-1.5L31.6,46.5z M48.1,36h-6v-3h-3v1.5h1.5V39h1.5v1.5h1.5V42
	h1.5v4.5h1.5v-3h1.5V39h1.5v-4.5h-1.5V36z M37.6,27h-3v6h-4.5v3h-6v-1.5h-1.5V39h1.5v4.5h1.5v3h1.5V42h1.5v-1.5h1.5V39h1.5v-3h1.5
	v1.5h6v-3h-1.5V27z M52.6,31.5h1.5V36h-1.5V31.5z"/>
<path class="st9" d="M25.6,31.5h-1.5V30h3v-1.5h-3V27h-1.5v6h3V31.5z M18.1,31.5h1.5V36h-1.5V31.5z M48.1,28.5h-3V30h3v1.5h-1.5V33
	h3v-6h-1.5V28.5z M40.6,27h4.5v1.5h-4.5V27z M27.1,27h4.5v1.5h-4.5V27z M46.6,25.5h1.5V27h-1.5V25.5z M24.1,25.5h1.5V27h-1.5V25.5z"
	/>
<path class="st10" d="M39.1,25.5h1.5V24h-9v1.5h1.5V27h6V25.5z M33.1,37.5h6V39h-6V37.5z M46.6,30h1.5v1.5h-1.5V30z M31.6,45h1.5
	v1.5h-1.5L31.6,45z M24.1,30h1.5v1.5h-1.5V30z M18.1,30h1.5v1.5h-1.5V30z M25.6,31.5h6V33h-6V31.5z M52.6,30h1.5v1.5h-1.5V30z
	 M39.1,45h1.5v1.5h-1.5V45z M33.1,46.5h6V48h-6V46.5z M40.6,31.5h6V33h-6V31.5z"/>
<path class="st11" d="M45.1,49.5h1.5V51h-1.5V49.5z M25.6,49.5h1.5V51h-1.5V49.5z M33.1,48h6v1.5h-6V48z M24.1,46.5h1.5v3h-1.5V46.5
	z M46.6,46.5h1.5v3h-1.5V46.5z M33.1,45h6v1.5h-6V45z M48.1,43.5h1.5v3h-1.5V43.5z M22.6,43.5h1.5v3h-1.5V43.5z M21.1,39h1.5v4.5
	h-1.5V39z M49.6,39h1.5v4.5h-1.5V39z M33.1,39h6v1.5h-6V39z M51.1,37.5h1.5V39h-1.5V37.5z M19.6,37.5h1.5V39h-1.5V37.5z M52.6,36
	h1.5v1.5h-1.5V36z M31.6,36h1.5v3h-1.5L31.6,36z M18.1,36h1.5v1.5h-1.5V36z M39.1,34.5h1.5V39h-1.5V34.5z M16.6,30h1.5v6h-1.5V30z
	 M37.6,28.5h1.5v6h-1.5V28.5z M33.1,28.5h1.5V33h-1.5V28.5z M54.1,30h1.5v6h-1.5V30z M19.6,31.5h1.5V27h-1.5v1.5h-1.5V30h1.5V31.5z
	 M52.6,28.5V27h-1.5v4.5h1.5V30h1.5v-1.5H52.6z"/>
<path class="st12" d="M61.6,16.5h1.5V18h-1.5V16.5z M9.1,16.5h1.5V18H9.1V16.5z M10.6,13.5h1.5V12h10.5v-1.5h-12V12H9.1v3h1.5V13.5z
	 M61.6,10.5h-12V12h10.5v1.5h1.5V15h1.5v-3h-1.5V10.5z"/>
<path d="M64.6,12h1.5v51h-1.5V12z M52.6,40.5h1.5V42h-1.5V40.5z M54.1,42h1.5v1.5h-1.5V42z M52.6,37.5h1.5V39h-1.5V37.5z M61.6,64.5
	h1.5V66h-1.5V64.5z M55.6,40.5h1.5V42h-1.5V40.5z M55.6,37.5h1.5V39h-1.5V37.5z M63.1,63h1.5v1.5h-1.5V63z M51.1,39h1.5v1.5h-1.5V39
	z M18.1,42h1.5v1.5h-1.5V42z M15.1,39h1.5v1.5h-1.5V39z M54.1,39h1.5v1.5h-1.5V39z M15.1,42h1.5v1.5h-1.5V42z M54.1,36h1.5v1.5h-1.5
	V36z M55.6,34.5h1.5V36h-1.5V34.5z M51.1,42h1.5v1.5h-1.5V42z M46.6,10.5h1.5V12h-1.5V10.5z M22.6,34.5h1.5V36h6v-3h-7.5V34.5z
	 M48.1,12h1.5v1.5h-1.5V12z"/>
<path d="M51.1,15v10.5h-1.5V27h3V15h6v21h-1.5v1.5h1.5V39h-1.5v1.5h1.5V42h-1.5v1.5h1.5V45h-1.5v-1.5h-1.5V45h-1.5v-1.5h-1.5V45
	h-1.5v-1.5h-1.5v3h-1.5v3h-1.5V51h-1.5v1.5h-1.5V54h-1.5v3h16.5v1.5H42.1V57h-1.5v1.5h-1.5V60h-6v-1.5h-1.5V57h-1.5v1.5H13.6V57
	h16.5v-3h-1.5v-1.5h-1.5V51h-1.5v-1.5h-1.5v-3h-1.5V45h-1.5v-1.5h-1.5V45h-1.5v-1.5h-1.5V45h-1.5v-1.5h-1.5V42h1.5v-1.5h-1.5V39h1.5
	v-1.5h-1.5V15h6v12h3v-1.5h-1.5V15h1.5v-1.5H12.1v48h48v-48H49.6V15H51.1z M7.6,63h1.5v1.5H7.6V63z M43.6,9v1.5h3V9h15V7.5H42.1V9
	H43.6z M25.6,10.5h3V9h1.5V7.5H10.6V9h15V10.5z M9.1,9h1.5v1.5H9.1V9z M6.1,12h1.5v51H6.1V12z M30.1,6h12v1.5h-12L30.1,6z M10.6,66
	h51v1.5h-51L10.6,66z"/>
<path d="M27.1,27h4.5v1.5h-4.5V30h1.5v1.5h3V30h1.5v-1.5h1.5V27h-1.5v-1.5h-7.5V27h-1.5v1.5h3L27.1,27z M22.6,24h1.5v1.5h-1.5V24z
	 M24.1,22.5h24V24h-24L24.1,22.5z M45.1,30h1.5v1.5h-1.5V30z M42.1,36h6v-1.5h1.5V33h-7.5V36z M48.1,24h1.5v1.5h-1.5V24z"/>
<path d="M25.6,30h1.5v1.5h-1.5V30z M9.1,64.5h1.5V66H9.1V64.5z M39.1,30h1.5v1.5h3V30h1.5v-1.5h-4.5V27h4.5v1.5h3V27h-1.5v-1.5h-7.5
	V27h-1.5v1.5h1.5V30z M7.6,10.5h1.5V12H7.6V10.5z M15.1,36h1.5v1.5h-1.5V36z M19.6,40.5h1.5V42h-1.5V40.5z M16.6,40.5h1.5V42h-1.5
	V40.5z M18.1,39h1.5v1.5h-1.5V39z M16.6,37.5h1.5V39h-1.5V37.5z M63.1,10.5h1.5V12h-1.5V10.5z M24.1,10.5h1.5V12h-1.5V10.5z
	 M22.6,12h1.5v1.5h-1.5V12z M61.6,9h1.5v1.5h-1.5V9z M43.6,42v-1.5h-1.5V39h-3v1.5h-6V39h-3v1.5h-1.5V42h-1.5v9h1.5v1.5h1.5V54h1.5
	v1.5h9V54h1.5v-1.5h1.5V51h1.5v-9H43.6z M40.6,49.5h-1.5V51h-6v-1.5h-1.5V45h1.5v-1.5h6V45h1.5V49.5z"/>
</svg>
