<svg id="Layer_1" xmlns="http://www.w3.org/2000/svg" viewBox="0 0 72 72"><style>.st0{fill-rule:evenodd;clip-rule:evenodd;fill:#BFE2E8;} .st1{fill-rule:evenodd;clip-rule:evenodd;fill:#82B5BE;} .st2{fill-rule:evenodd;clip-rule:evenodd;fill:#F4E1CE;} .st3{fill-rule:evenodd;clip-rule:evenodd;fill:#5C925E;} .st4{fill-rule:evenodd;clip-rule:evenodd;fill:#1A1A18;} .st5{fill-rule:evenodd;clip-rule:evenodd;fill:#84B8C2;} .st6{fill-rule:evenodd;clip-rule:evenodd;fill:#801C00;} .st7{fill-rule:evenodd;clip-rule:evenodd;fill:#62797B;} .st8{fill-rule:evenodd;clip-rule:evenodd;fill:#6396A0;} .st9{fill-rule:evenodd;clip-rule:evenodd;fill:#2F5B62;} .st10{fill-rule:evenodd;clip-rule:evenodd;fill:#9EC8CF;} .st11{fill-rule:evenodd;clip-rule:evenodd;fill:#407244;} .st12{fill-rule:evenodd;clip-rule:evenodd;fill:#72A6B0;} .st13{fill-rule:evenodd;clip-rule:evenodd;fill:#600D00;} .st14{fill-rule:evenodd;clip-rule:evenodd;fill:#4D6869;} .st15{fill-rule:evenodd;clip-rule:evenodd;fill:#51848E;}</style><path class="st0" d="M36 12.5c-1.9.1-8.3.4-13.1 2-5.7 1.8-5.9 2.1-5.9 2.1s-4-4.4-8-6.1c-4-1.7-4.5 1-5.2 5.2-.7 4.2.1 11.4.1 11.4S.4 33.3 3 42.5s13 14.3 18.3 15.6l5.3 1.3s1.4 1.4 5.5 2.2c2.4.5 3.5.5 4 .4V12.5z"/><path class="st1" d="M11 29.5S8.8 32 9.7 36.8c.9 4.8 6.1 6.8 6.1 6.8l12.6-3.1s-.5-3.4-1.8-7.5-1.8-3.9-1.8-3.9-3.4 1.2-7.8 1c-4.3-.2-6-.6-6-.6z"/><path class="st2" d="M11.6 30s-2.1 2.3-1.2 6.8c.9 4.5 5.7 6.4 5.7 6.4l11.7-2.9s-.4-3.2-1.7-7c-1.2-3.8-1.7-3.7-1.7-3.7s-3.1 1.1-7.3.9c-4-.1-5.5-.5-5.5-.5z"/><path class="st3" d="M23.7 29.9s1.7 1.5 2 4.9c.2 2.5-.4 4.8-1.6 6.4L16.7 43c-1-.2-1.9-.6-2.8-1.1-1.4-1-3-2.7-3.5-5.1-.9-4.5 1.2-6.8 1.2-6.8s1.5.3 5.7.5c2.8.2 5.2-.3 6.4-.6z"/><path class="st4" d="M16.3 31.2s-1.3 1.7 0 5.7c1.3 4.1 2.3 4 2.3 4s-.8-3.6-1.3-6.2-1-3.5-1-3.5z"/><path class="st5" d="M33.3 42.3s-11.4 1.9-16 5.2c-4.6 3.3-4 8.2 1.3 10.7s10.4-.1 12.5-2.5c2-2.3 3.4-3.7 4.2-4.2.3-.2.6-.3.7-.4v-4.9c-.7 0-2.2-.1-4-.8-2.5-1-1.5-2.3.7-3 .2 0 .4-.1.6-.1zm1.1-.1h-.2.2z"/><path class="st6" d="M36 42.5c-.6-.2-1.8-.5-3.4 0-2.1.7-3.2 2-.7 3 1.9.7 3.4.8 4 .8v-3.8z"/><path class="st7" d="M5.1 22.1c.3 3.1 1.5 5.6 3.9 1.4 2.4-4.1 3-6.1 3-7.3 0-1.1-2.9-2.8-4.7-3-3.1-.3-2.3 7-2.2 8.9z"/><path class="st8" d="M36 61.9c-.5.1-1.5.1-4-.4-4.1-.8-5.5-2.2-5.5-2.2l-1.3-.3c2.6-.5 4.7-2 5.8-3.3 2-2.3 3.4-3.7 4.2-4.2.3-.2.6-.3.7-.4v10.8z"/><circle class="st9" cx="21.9" cy="50.2" r=".5"/><circle class="st9" cx="24.8" cy="48.4" r=".5"/><circle class="st9" cx="25.5" cy="53" r=".5"/><circle class="st9" cx="30.1" cy="48.8" r=".5"/><circle class="st9" cx="21" cy="55.2" r=".5"/><path class="st10" d="M36 12.5c1.9.1 8.3.4 13.1 2 5.7 1.8 5.9 2.1 5.9 2.1s4-4.4 8-6.1c4-1.7 4.5 1 5.2 5.2.7 4.2-.1 11.4-.1 11.4s3.5 6.2.9 15.4-13 14.3-18.3 15.6l-5.3 1.3s-1.4 1.4-5.5 2.2c-2.4.5-3.5.5-4 .4V12.5z"/><path class="st1" d="M61 29.5s2.2 2.5 1.3 7.3c-.9 4.8-6.1 6.8-6.1 6.8l-12.6-3.1s.5-3.4 1.8-7.5 1.8-3.9 1.8-3.9 3.4 1.2 7.8 1c4.3-.2 6-.6 6-.6z"/><path class="st2" d="M60.4 30s2.1 2.3 1.2 6.8c-.9 4.5-5.7 6.4-5.7 6.4l-11.7-2.9s.4-3.2 1.7-7c1.2-3.8 1.7-3.7 1.7-3.7s3.1 1.1 7.3.9c4-.1 5.5-.5 5.5-.5z"/><path class="st11" d="M48.3 29.9s-1.7 1.5-2 4.9c-.2 2.5.4 4.8 1.6 6.4l7.4 1.8c1-.2 1.9-.6 2.8-1.1 1.4-1 3-2.7 3.5-5.1.9-4.5-1.2-6.8-1.2-6.8s-1.5.3-5.7.5c-2.8.2-5.2-.3-6.4-.6z"/><path class="st4" d="M55.7 31.2s1.3 1.7 0 5.7c-1.3 4.1-2.3 4-2.3 4s.8-3.6 1.3-6.2 1-3.5 1-3.5z"/><path class="st12" d="M38.7 42.3s11.4 1.9 16 5.2c4.6 3.3 4 8.2-1.3 10.7s-10.4-.1-12.5-2.5c-2-2.3-3.4-3.7-4.2-4.2-.3-.2-.6-.3-.7-.4v-4.9c.7 0 2.2-.1 4-.8 2.5-1 1.5-2.3-.7-3-.2 0-.4-.1-.6-.1zm-1.1-.1h.2-.2z"/><path class="st13" d="M36 42.5c.6-.2 1.8-.5 3.4 0 2.1.7 3.2 2 .7 3-1.9.7-3.4.8-4 .8v-3.8z"/><path class="st14" d="M66.9 22.1c-.3 3.1-1.5 5.6-3.9 1.4s-3-6.1-3-7.3c0-1.1 2.9-2.8 4.7-3 3.1-.3 2.3 7 2.2 8.9z"/><path class="st15" d="M36 61.9c.5.1 1.5.1 4-.4 4.1-.8 5.5-2.2 5.5-2.2l1.3-.3c-2.6-.5-4.7-2-5.8-3.3-2-2.3-3.4-3.7-4.2-4.2-.3-.2-.6-.3-.7-.4v10.8z"/><g><circle class="st9" cx="50.1" cy="50.2" r=".5"/><circle class="st9" cx="47.2" cy="48.4" r=".5"/><circle class="st9" cx="46.5" cy="53" r=".5"/><circle class="st9" cx="41.9" cy="48.8" r=".5"/><circle class="st9" cx="51" cy="55.2" r=".5"/></g></svg>